<?xml version="1.0" encoding="UTF-8"?>
<svg version="1.1" xmlns="http://www.w3.org/2000/svg" width="404" height="391">
<path d="M0 0 C0.66 0 1.32 0 2 0 C1.608125 1.134375 1.21625 2.26875 0.8125 3.4375 C-1.67938623 10.88919824 -3.80864153 18.45583704 -6 26 C-3.63630218 24.1172633 -1.27801305 22.23372306 1.03515625 20.2890625 C14.96025393 8.85921354 29.51183411 5.63633226 47 5 C47 5.99 47 6.98 47 8 C46.26136719 8.20753906 45.52273437 8.41507813 44.76171875 8.62890625 C34.83402202 11.64379763 25.93055094 16.113511 19 24 C20.25490234 24.03867188 20.25490234 24.03867188 21.53515625 24.078125 C32.91515275 24.63263203 43.20343036 27.28465402 53.93334961 31.06933594 C63.42345394 34.39618252 69.6773998 35.33975814 79.0546875 31.55859375 C81 31 81 31 84 32 C79.30131523 38.26491303 74.67083827 41.75819662 66.828125 43.01171875 C64.9706461 43.25211383 63.11111783 43.47712399 61.25 43.6875 C59.37993724 43.91838769 57.51013137 44.15136838 55.640625 44.38671875 C54.82110352 44.48170654 54.00158203 44.57669434 53.15722656 44.67456055 C50.82379772 44.96363831 50.82379772 44.96363831 48 46 C48.60585937 46.18433594 49.21171875 46.36867187 49.8359375 46.55859375 C60.99078118 50.41988579 68.07400223 58.05278945 74 68 C77.84141801 74.27371774 81.64644931 80.08338927 86.71484375 85.44140625 C88 87 88 87 88 89 C88.639375 89.268125 89.27875 89.53625 89.9375 89.8125 C92 91 92 91 93 94 C88.71947031 93.4308221 85.90496315 91.91990078 82.3125 89.5625 C81.35988281 88.94503906 80.40726563 88.32757813 79.42578125 87.69140625 C77 86 77 86 75 84 C75.27714844 85.16015625 75.55429688 86.3203125 75.83984375 87.515625 C78.78932873 100.12399681 80.22991027 112.02284246 80 125 C79.01 125.33 78.02 125.66 77 126 C76.34 125.01 75.68 124.02 75 123 C74.82984375 124.30453125 74.6596875 125.6090625 74.484375 126.953125 C72.70068387 140.05108757 70.65876833 153.82354156 63 165 C61.02 165.99 61.02 165.99 59 167 C58.01 163.7 57.02 160.4 56 157 C55.74347656 157.70382813 55.48695313 158.40765625 55.22265625 159.1328125 C50.76816683 170.62149564 44.39934279 180.95455391 36 190 C35.34 189.67 34.68 189.34 34 189 C34.495 186.03 34.495 186.03 35 183 C34.01902344 183.53109375 33.03804688 184.0621875 32.02734375 184.609375 C15.92217596 193.13433686 -2.82657793 199.16662699 -21.125 193.9765625 C-22.07375 193.65429688 -23.0225 193.33203125 -24 193 C-24 192.67 -24 192.34 -24 192 C-23.19820312 191.99742187 -22.39640625 191.99484375 -21.5703125 191.9921875 C-6.01034834 191.46293702 7.74929003 185.91296815 21 178 C19.88625 178.020625 18.7725 178.04125 17.625 178.0625 C14 178 14 178 12 177 C12 176.34 12 175.68 12 175 C12.77085937 174.59007812 13.54171875 174.18015625 14.3359375 173.7578125 C15.33882813 173.21898437 16.34171875 172.68015625 17.375 172.125 C18.37273437 171.59132813 19.37046875 171.05765625 20.3984375 170.5078125 C23.05348395 169.1179862 23.05348395 169.1179862 25 167 C24.17757812 167.39832031 23.35515625 167.79664063 22.5078125 168.20703125 C4.74804687 176.63574219 4.74804687 176.63574219 -5 176 C-2.05720611 173.54012613 1.06378531 171.95662683 4.53344727 170.34985352 C19.92066826 163.17801116 31.08917703 152.10264641 37 136 C41.13973867 122.52860042 42.65412803 107.93417216 40 94 C43.65669197 94.55728291 43.65669197 94.55728291 45.16015625 96.49609375 C47.65395537 101.86154033 49.45547498 107.2899378 51 113 C52.0546394 99.81700752 46.58537257 87.82651818 38.23828125 77.90625 C34.56565085 74.01078585 30.75831114 71.42770977 26 69 C26.39832031 69.60585937 26.79664063 70.21171875 27.20703125 70.8359375 C35.84807278 84.50181827 37.05023189 97.21396967 33.88671875 112.7890625 C33.59410156 113.84867187 33.30148438 114.90828125 33 116 C32.01 116.495 32.01 116.495 31 117 C30.92652344 115.48019531 30.92652344 115.48019531 30.8515625 113.9296875 C30.77647436 112.57810089 30.70092919 111.22653962 30.625 109.875 C30.5940625 109.20984375 30.563125 108.5446875 30.53125 107.859375 C30.28080367 103.60178738 29.52471803 99.97914217 28 96 C27.54625 96.825 27.0925 97.65 26.625 98.5 C26.08875 99.325 25.5525 100.15 25 101 C24.34 101 23.68 101 23 101 C22.91363281 100.03320312 22.82726562 99.06640625 22.73828125 98.0703125 C21.72056025 88.64005368 20.55107895 80.1465386 13.1875 73.4375 C9.30816523 71.68799608 6.23330484 71.29195206 2 71 C2.11487748 72.58409994 2.24234508 74.16728963 2.375 75.75 C2.44460937 76.63171875 2.51421875 77.5134375 2.5859375 78.421875 C3.00143269 81.00892053 3.8093992 82.69623586 5 85 C5 85.99 5 86.98 5 88 C4.33613281 87.83628906 3.67226562 87.67257813 2.98828125 87.50390625 C-0.62883337 86.89396143 -4.15860708 86.89204487 -7.8125 86.9375 C-8.85180664 86.94426758 -8.85180664 86.94426758 -9.91210938 86.95117188 C-11.60811068 86.96286844 -13.30406703 86.98080076 -15 87 C-14.34 88.32 -13.68 89.64 -13 91 C-15.38315082 92.19157541 -16.67324194 92.00807183 -19.3125 91.875 C-23.34647769 91.84897434 -25.97483375 92.07241976 -29 95 C-29.91738597 97.91249553 -29.91738597 97.91249553 -29 101 C-27.15230894 102.90093864 -25.10853813 104.37466853 -23 106 C-23 106.99 -23 107.98 -23 109 C-23.82371094 108.67773438 -24.64742187 108.35546875 -25.49609375 108.0234375 C-30.05173166 106.69280525 -34.46202699 106.64431642 -39.16601562 106.609375 C-44.02999739 106.44308503 -46.65864385 105.57506159 -50 102 C-50.8125 99.75 -50.8125 99.75 -51 98 C-49.7625 97.5875 -48.525 97.175 -47.25 96.75 C-42.5285987 94.95653484 -39.93895191 93.07557792 -37.8125 88.375 C-36.74583755 83.94424827 -36.34077506 79.53768898 -36 75 C-43.63174126 73.11578679 -50.55121994 75.43268714 -57.40625 78.90234375 C-59.3159976 80.07249319 -59.3159976 80.07249319 -61 83 C-61.07905064 85.33199388 -61.08798769 87.66832622 -61 90 C-62.9375 89.625 -62.9375 89.625 -65 89 C-65.33 88.34 -65.66 87.68 -66 87 C-66.33 88.65 -66.66 90.3 -67 92 C-67.99 92 -68.98 92 -70 92 C-75.73417496 79.11397582 -75.73417496 79.11397582 -76 73 C-75.505 72.01 -75.505 72.01 -75 71 C-73.03662418 70.51433841 -71.05235255 70.11221353 -69.0625 69.75 C-62.41346547 68.30645961 -57.51889577 65.90921784 -52 62 C-51.08734375 61.41412109 -51.08734375 61.41412109 -50.15625 60.81640625 C-46.81405694 58.4490195 -45.6519935 56.37704729 -44.625 52.5625 C-42.73527347 45.99189915 -37.89579013 43.68579284 -32.2421875 40.39453125 C-25.45819161 36.35555822 -21.8734069 32.80954496 -18 26 C-16.39633273 23.34089087 -14.76318585 20.70045428 -13.125 18.0625 C-12.69759521 17.3722876 -12.27019043 16.6820752 -11.82983398 15.97094727 C-8.31551767 10.36013887 -4.6536043 4.74485144 0 0 Z " fill="#F5FEC4" transform="translate(166,89)"/>
<path d="M0 0 C0.6875 1.75 0.6875 1.75 1 4 C-0.4375 6.25 -0.4375 6.25 -2 8 C-0.68 8 0.64 8 2 8 C2.66 8.33 3.32 8.66 4 9 C-4.82709028 17.98675341 -17.34393184 25.13754844 -30.171875 26.17578125 C-31.78228729 26.18544372 -33.39297268 26.10480613 -35 26 C-32.05702459 23.5399744 -28.93555501 21.9566956 -25.46606445 20.34912109 C-15.01483737 15.48042336 -7.06315536 9.18210197 0 0 Z " fill="#F7FED3" transform="translate(196,239)"/>
<path d="M0 0 C-4.69868477 6.26491303 -9.32916173 9.75819662 -17.171875 11.01171875 C-19.0293539 11.25211383 -20.88888217 11.47712399 -22.75 11.6875 C-24.62006276 11.91838769 -26.48986863 12.15136838 -28.359375 12.38671875 C-29.58865723 12.52920044 -29.58865723 12.52920044 -30.84277344 12.67456055 C-33.17620228 12.96363831 -33.17620228 12.96363831 -36 14 C-31.05 15.98 -31.05 15.98 -26 18 C-30.12414757 19.03103689 -30.9841142 18.94701684 -34.75 17.5625 C-35.94882813 17.13130859 -35.94882813 17.13130859 -37.171875 16.69140625 C-37.77515625 16.46324219 -38.3784375 16.23507813 -39 16 C-39 14.68 -39 13.36 -39 12 C-30.51311539 9.70032804 -22.79393628 8.57218688 -14 9 C-14 8.34 -14 7.68 -14 7 C-12.02 6.34 -10.04 5.68 -8 5 C-13.94 4.67 -19.88 4.34 -26 4 C-26 3.34 -26 2.68 -26 2 C-27.65 1.67 -29.3 1.34 -31 1 C-27.58075351 -0.13974883 -26.3358086 0.48943686 -23.015625 1.5078125 C-16.57219631 3.08120788 -11.00134149 2.00054092 -4.9453125 -0.44140625 C-3 -1 -3 -1 0 0 Z " fill="#FBFEE8" transform="translate(250,121)"/>
<path d="M0 0 C0.99 0.33 1.98 0.66 3 1 C2.67 2.32 2.34 3.64 2 5 C1.67 4.34 1.34 3.68 1 3 C0.61521484 4.05574219 0.61521484 4.05574219 0.22265625 5.1328125 C-4.23183317 16.62149564 -10.60065721 26.95455391 -19 36 C-19.66 35.67 -20.32 35.34 -21 35 C-20.505 32.03 -20.505 32.03 -20 29 C-21.11375 29.66 -22.2275 30.32 -23.375 31 C-26.75 33 -26.75 33 -29 33 C-28 30 -28 30 -25 28 C-23.68 28 -22.36 28 -21 28 C-21 27.34 -21 26.68 -21 26 C-20.01 25.67 -19.02 25.34 -18 25 C-17 28 -17 28 -17 31 C-13.26703106 25.82498004 -9.66736137 20.81969753 -7 15 C-6.14868615 13.31105901 -5.29425265 11.62368855 -4.4375 9.9375 C-2.78416409 6.67718339 -1.31899258 3.40993011 0 0 Z " fill="#FBFEE3" transform="translate(221,243)"/>
<path d="M0 0 C0.66 0 1.32 0 2 0 C2.6392371 1.28468039 3.26033982 2.57838107 3.875 3.875 C4.22304687 4.59429687 4.57109375 5.31359375 4.9296875 6.0546875 C7.80975288 13.98012289 8.27772845 21.7601802 8.125 30.125 C8.11597656 31.08148438 8.10695312 32.03796875 8.09765625 33.0234375 C8.07439827 35.34923525 8.04172213 37.67447294 8 40 C7.01 40.495 7.01 40.495 6 41 C5.34444881 43.52733235 5.34444881 43.52733235 5 46 C4.67 46 4.34 46 4 46 C4 39.4 4 32.8 4 26 C4.33 26 4.66 26 5 26 C5.62700655 18.16241809 3.28064052 11.4372695 1 4 C0.65456431 2.66975075 0.31459987 1.33787735 0 0 Z " fill="#FBFEE5" transform="translate(212,176)"/>
<path d="M0 0 C0.66 0 1.32 0 2 0 C4.26954631 3.40431947 4.36549949 5.16524202 4.625 9.1875 C4.69976562 10.27417969 4.77453125 11.36085937 4.8515625 12.48046875 C4.90054688 13.31191406 4.94953125 14.14335937 5 15 C5.66 13.02 6.32 11.04 7 9 C10 10 10 10 11.1875 12.3125 C12.34159474 17.5503146 12.15556749 22.65884952 12 28 C12.66 28 13.32 28 14 28 C13.74438677 30.3431213 13.40729228 32.67843403 13 35 C12.01 35.495 12.01 35.495 11 36 C10.95101562 34.98679688 10.90203125 33.97359375 10.8515625 32.9296875 C10.77647436 31.57810089 10.70092919 30.22653962 10.625 28.875 C10.5940625 28.20984375 10.563125 27.5446875 10.53125 26.859375 C10.28080367 22.60178738 9.52471803 18.97914217 8 15 C7.54625 15.825 7.0925 16.65 6.625 17.5 C5.820625 18.7375 5.820625 18.7375 5 20 C4.34 20 3.68 20 3 20 C2.86722656 18.97519531 2.73445312 17.95039063 2.59765625 16.89453125 C2.41935912 15.5338426 2.24096877 14.17316615 2.0625 12.8125 C1.97548828 12.13896484 1.88847656 11.46542969 1.79882812 10.77148438 C1.32174523 7.14918834 0.76987965 3.57196415 0 0 Z " fill="#F9FDE3" transform="translate(186,170)"/>
<path d="M0 0 C0.66 0.33 1.32 0.66 2 1 C1.38511719 1.47050781 0.77023438 1.94101563 0.13671875 2.42578125 C-0.67152344 3.04839844 -1.47976562 3.67101562 -2.3125 4.3125 C-3.11300781 4.92738281 -3.91351563 5.54226562 -4.73828125 6.17578125 C-6.62701374 7.69916307 -8.33077636 9.24434407 -10 11 C-9.16339844 11.02578125 -8.32679688 11.0515625 -7.46484375 11.078125 C15.18160652 12.18160652 15.18160652 12.18160652 21 18 C18.35346869 17.69268013 15.707885 17.37940678 13.0625 17.0625 C12.30775391 16.97548828 11.55300781 16.88847656 10.77539062 16.79882812 C5.11328125 16.11328125 5.11328125 16.11328125 4 15 C1.14122091 14.76298761 -1.69883297 14.57780818 -4.5625 14.4375 C-5.36880859 14.39431641 -6.17511719 14.35113281 -7.00585938 14.30664062 C-9.00368805 14.20024738 -11.0018207 14.09959112 -13 14 C-13 12.35 -13 10.7 -13 9 C-12.360625 8.71125 -11.72125 8.4225 -11.0625 8.125 C-8.84793921 7.17176549 -8.84793921 7.17176549 -8 5 C-7.34 5 -6.68 5 -6 5 C-6 4.34 -6 3.68 -6 3 C-4.03533587 1.93224776 -2.03144641 0.93446535 0 0 Z " fill="#FAFEE0" transform="translate(195,102)"/>
<path d="M0 0 C0.33 0.66 0.66 1.32 1 2 C0.34 2 -0.32 2 -1 2 C-1 2.66 -1 3.32 -1 4 C-3.20432985 4.84549638 -5.41248533 5.67642814 -7.625 6.5 C-9.46964844 7.19609375 -9.46964844 7.19609375 -11.3515625 7.90625 C-14.81042866 8.94316919 -17.42185036 9.22019382 -21 9 C-20.46148032 14.27749285 -19.22656164 18.25645564 -17 23 C-16.21625 22.814375 -15.4325 22.62875 -14.625 22.4375 C-12 22 -12 22 -10 23 C-9.67 22.01 -9.34 21.02 -9 20 C-8.67 22.31 -8.34 24.62 -8 27 C-9.9375 26.625 -9.9375 26.625 -12 26 C-12.33 25.34 -12.66 24.68 -13 24 C-13.33 25.65 -13.66 27.3 -14 29 C-14.99 29 -15.98 29 -17 29 C-22.73417496 16.11397582 -22.73417496 16.11397582 -23 10 C-22.67 9.34 -22.34 8.68 -22 8 C-20.01735416 7.48958671 -18.01180376 7.06704168 -16 6.6875 C-9.93795361 5.39087707 -5.1701188 3.37994847 0 0 Z " fill="#FBFEE4" transform="translate(113,152)"/>
<path d="M0 0 C0.33 0.99 0.66 1.98 1 3 C0.360625 3.268125 -0.27875 3.53625 -0.9375 3.8125 C-3.33131686 4.88667752 -3.33131686 4.88667752 -4 8 C-5.32 8 -6.64 8 -8 8 C-7.65213292 9.97536745 -7.65213292 9.97536745 -7 12 C-3.81175432 13.59412284 -0.37103338 13.10174735 3.125 13.0625 C4.25615234 13.05573242 4.25615234 13.05573242 5.41015625 13.04882812 C7.27347127 13.03703499 9.13674555 13.01909942 11 13 C10.34515625 12.57074219 9.6903125 12.14148438 9.015625 11.69921875 C8.35046875 11.13847656 7.6853125 10.57773438 7 10 C6.75 6.8125 6.75 6.8125 7 4 C7.66 4 8.32 4 9 4 C9.04125 4.886875 9.0825 5.77375 9.125 6.6875 C10.04729873 10.17905946 10.37964931 10.61697053 13.0625 12.6875 C14.5165625 13.8321875 14.5165625 13.8321875 16 15 C16 15.99 16 16.98 16 18 C15.17628906 17.67773438 14.35257813 17.35546875 13.50390625 17.0234375 C8.94826834 15.69280525 4.53797301 15.64431642 -0.16601562 15.609375 C-5.02999739 15.44308503 -7.65864385 14.57506159 -11 11 C-11.8125 8.75 -11.8125 8.75 -12 7 C-10.7625 6.5875 -9.525 6.175 -8.25 5.75 C-4.69180176 4.43144781 -2.45806703 2.97016433 0 0 Z " fill="#FAFEE5" transform="translate(127,180)"/>
<path d="M0 0 C2.97 0.495 2.97 0.495 6 1 C6.33 2.32 6.66 3.64 7 5 C5.68 4.34 4.36 3.68 3 3 C3 6.36477972 3.6736797 9.15928558 4.4375 12.4375 C6.66266295 22.63966222 7.18455187 32.58307208 7 43 C5.515 43.495 5.515 43.495 4 44 C3.505 42.515 3.505 42.515 3 41 C3.66 41 4.32 41 5 41 C4.73971196 30.83575211 3.69285925 21.24817317 1.37207031 11.3347168 C0.47371389 7.47302045 -0.24797406 3.99958154 0 0 Z " fill="#FCFEEE" transform="translate(239,171)"/>
<path d="M0 0 C0 0.66 0 1.32 0 2 C2.12534659 1.85930804 4.25027529 1.71229079 6.375 1.5625 C7.55835938 1.48128906 8.74171875 1.40007812 9.9609375 1.31640625 C12.91518901 1.18915064 12.91518901 1.18915064 15 0 C17.3329866 -0.04022391 19.66706666 -0.04320247 22 0 C15.28357659 4.47761561 7.21428021 4.31777476 -0.625 4.25 C-1.52734375 4.25773437 -2.4296875 4.26546875 -3.359375 4.2734375 C-8.62897441 4.25807424 -13.01438103 3.72106299 -18 2 C-18 1.67 -18 1.34 -18 1 C-15.75013201 0.83156069 -13.50009983 0.66531346 -11.25 0.5 C-9.37054688 0.36078125 -9.37054688 0.36078125 -7.453125 0.21875 C-4.97265229 0.06161598 -2.48544483 0 0 0 Z " fill="#FBFDE7" transform="translate(160,280)"/>
<path d="M0 0 C1.05960938 0.00676758 1.05960938 0.00676758 2.140625 0.01367188 C3.88545275 0.02546125 5.630237 0.04339676 7.375 0.0625 C7.375 0.7225 7.375 1.3825 7.375 2.0625 C2.425 2.3925 -2.525 2.7225 -7.625 3.0625 C-6.965 4.3825 -6.305 5.7025 -5.625 7.0625 C-7.99663903 8.24831951 -9.24972265 8.07144272 -11.875 7.9375 C-16.16616109 7.86817591 -18.92082008 8.78300466 -22.625 11.0625 C-21.965 9.0825 -21.305 7.1025 -20.625 5.0625 C-19.366875 4.959375 -18.10875 4.85625 -16.8125 4.75 C-13.50634795 4.35932624 -13.50634795 4.35932624 -10.75 2.5625 C-10.37875 2.0675 -10.0075 1.5725 -9.625 1.0625 C-6.55966836 -0.47016582 -3.35745728 -0.04026471 0 0 Z " fill="#F9FEDB" transform="translate(158.625,172.9375)"/>
<path d="M0 0 C0.66 0.33 1.32 0.66 2 1 C0.1875 3.5 0.1875 3.5 -2 6 C-2.99 6 -3.98 6 -5 6 C-5.25523437 6.58265625 -5.51046875 7.1653125 -5.7734375 7.765625 C-7.11741087 10.21388223 -8.61810296 11.81743248 -10.625 13.75 C-11.57246094 14.67039062 -11.57246094 14.67039062 -12.5390625 15.609375 C-13.02117187 16.06828125 -13.50328125 16.5271875 -14 17 C-14.99 16.67 -15.98 16.34 -17 16 C-16.40546697 6.40546697 -16.40546697 6.40546697 -13 3 C-13.33 5.97 -13.66 8.94 -14 12 C-13.360625 11.319375 -12.72125 10.63875 -12.0625 9.9375 C-8.37290243 6.22657527 -4.16653626 3.1498651 0 0 Z " fill="#F8FDD6" transform="translate(174,104)"/>
<path d="M0 0 C0 0.99 0 1.98 0 3 C-7.5 5.5 -7.5 5.5 -15 8 C-14.67 6.68 -14.34 5.36 -14 4 C-20.435 4.495 -20.435 4.495 -27 5 C-23.52247803 2.68165202 -20.33996864 2.09987039 -16.3125 1.375 C-15.62994141 1.2409375 -14.94738281 1.106875 -14.24414062 0.96875 C-9.42866038 0.07749964 -4.89565562 -0.12088039 0 0 Z " fill="#F9FEDF" transform="translate(213,94)"/>
<path d="M0 0 C-17.98970944 8.65284504 -17.98970944 8.65284504 -28 8 C-24.2440786 4.57068046 -19.76533255 3.43570917 -15 2 C-15 2.66 -15 3.32 -15 4 C-14.16855469 3.62746094 -13.33710938 3.25492187 -12.48046875 2.87109375 C-11.39378906 2.39800781 -10.30710938 1.92492187 -9.1875 1.4375 C-8.10855469 0.96183594 -7.02960938 0.48617188 -5.91796875 -0.00390625 C-3 -1 -3 -1 0 0 Z " fill="#FAFEE4" transform="translate(189,257)"/>
<path d="M0 0 C0.66 0 1.32 0 2 0 C0.33333333 5 -1.33333333 10 -3 15 C-3.33 15 -3.66 15 -4 15 C-4 13.35 -4 11.7 -4 10 C-7.24849977 11.72226496 -7.24849977 11.72226496 -8 15 C-8.66 15 -9.32 15 -10 15 C-8.59983383 10.95264468 -6.6818763 8.01519578 -4 4.6875 C-3.29875 3.80449219 -2.5975 2.92148438 -1.875 2.01171875 C-1.25625 1.34785156 -0.6375 0.68398437 0 0 Z " fill="#FBFDEF" transform="translate(166,89)"/>
<path d="M0 0 C0.33 0 0.66 0 1 0 C1.33168709 12.2539952 -1.18619395 20.81065692 -6 32 C-6.66 32 -7.32 32 -8 32 C-7.0375276 29.07820878 -6.06199551 26.1685503 -5 23.28125 C-2.24064465 15.60679292 -0.90973499 8.0918533 0 0 Z " fill="#FBFEE5" transform="translate(207,204)"/>
<path d="M0 0 C0.8125 1.625 0.8125 1.625 1 4 C-0.18427278 5.51323745 -1.38252711 7.01983837 -2.6796875 8.4375 C-4.19571773 10.09812852 -4.19571773 10.09812852 -5.375 12.875 C-7.60844455 17.17008568 -10.72541568 20.46524323 -14 24 C-14.99 23.67 -15.98 23.34 -17 23 C-16.11957031 22.35546875 -15.23914063 21.7109375 -14.33203125 21.046875 C-10.37306177 17.74753987 -8.15281562 13.71391499 -5.6875 9.25 C-4.81737584 7.71299236 -3.94633156 6.17650513 -3.07421875 4.640625 C-2.69869873 3.96547852 -2.32317871 3.29033203 -1.9362793 2.59472656 C-1 1 -1 1 0 0 Z " fill="#F9FEDF" transform="translate(155,104)"/>
<path d="M0 0 C0 0.66 0 1.32 0 2 C-0.99 2.495 -0.99 2.495 -2 3 C0.97 3.495 0.97 3.495 4 4 C3.34 5.32 2.68 6.64 2 8 C0.56208484 7.85831863 -0.8753237 7.71148957 -2.3125 7.5625 C-3.11300781 7.48128906 -3.91351563 7.40007812 -4.73828125 7.31640625 C-7 7 -7 7 -10 6 C-10 5.34 -10 4.68 -10 4 C-8.71086513 3.32845067 -7.41859796 2.66291141 -6.125 2 C-5.40570313 1.62875 -4.68640625 1.2575 -3.9453125 0.875 C-2 0 -2 0 0 0 Z " fill="#FAFDE2" transform="translate(188,260)"/>
<path d="M0 0 C1.98 0.495 1.98 0.495 4 1 C3.87882813 1.65484375 3.75765625 2.3096875 3.6328125 2.984375 C2.34866543 9.97803753 1.15108663 16.9832698 0 24 C-0.33 24 -0.66 24 -1 24 C-0.67 16.08 -0.34 8.16 0 0 Z " fill="#FBFEEA" transform="translate(238,208)"/>
<path d="M0 0 C2.97 0.495 2.97 0.495 6 1 C6.33 2.32 6.66 3.64 7 5 C5.68 4.34 4.36 3.68 3 3 C2.86905212 5.8331588 2.86905212 5.8331588 3.49609375 7.828125 C4.12016517 10.51792119 4.09533663 12.99172348 4.0625 15.75 C4.05347656 16.73484375 4.04445312 17.7196875 4.03515625 18.734375 C4.02355469 19.48203125 4.01195312 20.2296875 4 21 C3.67 21 3.34 21 3 21 C2.49432271 18.43850372 1.99529868 15.87600535 1.5 13.3125 C1.35691406 12.59126953 1.21382812 11.87003906 1.06640625 11.12695312 C0.34428113 7.36158641 -0.1824976 3.85526187 0 0 Z " fill="#F9FEE0" transform="translate(239,171)"/>
<path d="M0 0 C0 0.99 0 1.98 0 3 C-0.72445312 2.81824219 -1.44890625 2.63648438 -2.1953125 2.44921875 C-5.11324146 1.98186244 -7.01013051 2.17637083 -9.875 2.8125 C-10.73609375 3.00199219 -11.5971875 3.19148437 -12.484375 3.38671875 C-15.68919678 4.16801847 -18.84426417 5.03955866 -22 6 C-21 3 -21 3 -19.35546875 2.05078125 C-12.83943527 -0.16819231 -6.84318823 -0.31263296 0 0 Z " fill="#FAFEE6" transform="translate(130,161)"/>
<path d="M0 0 C0 0.99 0 1.98 0 3 C-2.97 3.66 -5.94 4.32 -9 5 C-8.67 4.34 -8.34 3.68 -8 3 C-10.64 2.67 -13.28 2.34 -16 2 C-16 1.67 -16 1.34 -16 1 C-10.59255982 0.22750855 -5.46137814 -0.09752461 0 0 Z " fill="#FCFDF4" transform="translate(213,94)"/>
<path d="M0 0 C2.04119788 1.61594832 4.04072937 3.2856382 6 5 C6 5.66 6 6.32 6 7 C6.639375 7.268125 7.27875 7.53625 7.9375 7.8125 C10 9 10 9 11 12 C7.17902761 11.46930939 4.93828597 10.50298434 2 8 C2.99 8 3.98 8 5 8 C4.175 7.05125 3.35 6.1025 2.5 5.125 C0 2.25 0 2.25 0 0 Z " fill="#FBFEE9" transform="translate(248,171)"/>
<path d="M0 0 C1.53251391 3.06502781 0.63371097 5.48061923 -0.1328125 8.73046875 C-1.57712994 12.51041665 -3.57805528 13.9049318 -7 16 C-7.99 15.67 -8.98 15.34 -10 15 C-8.6078125 14.0409375 -8.6078125 14.0409375 -7.1875 13.0625 C-3.68826454 10.1987389 -2.71110315 7.16670486 -1.54296875 2.890625 C-1 1 -1 1 0 0 Z " fill="#FAFEE1" transform="translate(124,136)"/>
<path d="M0 0 C0.33 0.66 0.66 1.32 1 2 C0.109375 4.12890625 0.109375 4.12890625 -1.25 6.5625 C-1.68828125 7.36816406 -2.1265625 8.17382812 -2.578125 9.00390625 C-4 11 -4 11 -7 12 C-7.33 10.02 -7.66 8.04 -8 6 C-7.34 6 -6.68 6 -6 6 C-6 6.66 -6 7.32 -6 8 C-5.34 8 -4.68 8 -4 8 C-3.71125 7.05125 -3.4225 6.1025 -3.125 5.125 C-2 2 -2 2 0 0 Z " fill="#F9FDE2" transform="translate(232,244)"/>
<path d="M0 0 C1.32 0 2.64 0 4 0 C4.33 0.66 4.66 1.32 5 2 C5.99 2.33 6.98 2.66 8 3 C9.39712274 4.95597184 10.73779907 6.95436401 12 9 C11.67 9.66 11.34 10.32 11 11 C7.33333333 7.33333333 3.66666667 3.66666667 0 0 Z " fill="#F9FEDC" transform="translate(196,159)"/>
<path d="M0 0 C0.66 0.33 1.32 0.66 2 1 C0.54712339 2.33927721 -0.91247259 3.67126847 -2.375 5 C-3.18710938 5.7425 -3.99921875 6.485 -4.8359375 7.25 C-7 9 -7 9 -9 9 C-8.1875 7.0625 -8.1875 7.0625 -7 5 C-6.01 4.67 -5.02 4.34 -4 4 C-3.67 3.01 -3.34 2.02 -3 1 C-2.01 0.67 -1.02 0.34 0 0 Z " fill="#F9FEE0" transform="translate(198,247)"/>
<path d="M0 0 C-0.33 2.64 -0.66 5.28 -1 8 C-1.33 8 -1.66 8 -2 8 C-2 6.35 -2 4.7 -2 3 C-5.24849977 4.72226496 -5.24849977 4.72226496 -6 8 C-6.66 8 -7.32 8 -8 8 C-6.65580512 3.85539913 -4.87800266 0 0 0 Z " fill="#F9FEDD" transform="translate(164,96)"/>
<path d="M0 0 C0.33 0 0.66 0 1 0 C1 3.96 1 7.92 1 12 C0.34 12 -0.32 12 -1 12 C-1.33 12.66 -1.66 13.32 -2 14 C-1.85866501 12.22880197 -1.71176792 10.45804713 -1.5625 8.6875 C-1.48128906 7.70136719 -1.40007812 6.71523437 -1.31640625 5.69921875 C-1 3 -1 3 0 0 Z " fill="#FBFEE2" transform="translate(131,164)"/>
<path d="M0 0 C-0.625 1.9375 -0.625 1.9375 -2 4 C-5.125 4.75 -5.125 4.75 -8 5 C-8 4.34 -8 3.68 -8 3 C-5.04518508 0.25624329 -4.22528092 0 0 0 Z " fill="#F4FDC4" transform="translate(188,253)"/>
<path d="M0 0 C4.49092377 2.37754788 7.52235713 5.3606063 11 9 C10.67 9.66 10.34 10.32 10 11 C6.40147125 8.2239921 3.08225674 5.34645017 0 2 C0 1.34 0 0.68 0 0 Z " fill="#F9FEDF" transform="translate(224,140)"/>
<path d="M0 0 C1.53166168 4.08443115 0.63081652 7.79455657 0 12 C-0.99 11.67 -1.98 11.34 -3 11 C-2.53199289 6.94393835 -2.12046792 3.53411321 0 0 Z " fill="#FAFEE0" transform="translate(160,107)"/>
<path d="M0 0 C1.875 0.3125 1.875 0.3125 4 1 C4.66 1.99 5.32 2.98 6 4 C5.67 4.99 5.34 5.98 5 7 C4.01 6.01 3.02 5.02 2 4 C1.67 4.99 1.34 5.98 1 7 C0.67 4.69 0.34 2.38 0 0 Z " fill="#FBFDEB" transform="translate(206,183)"/>
<path d="M0 0 C0.66 0 1.32 0 2 0 C0.7508258 3.45925163 -0.67527795 6.14693203 -3 9 C-3.66 8.67 -4.32 8.34 -5 8 C-3.63055898 5.05043472 -2.12169591 2.47531189 0 0 Z " fill="#FBFEE0" transform="translate(203,242)"/>
<path d="M0 0 C3.05936637 3.75467691 5 7.08113061 5 12 C4.34 12 3.68 12 3 12 C-0.42857143 4.71428571 -0.42857143 4.71428571 0 0 Z " fill="#FBFEE8" transform="translate(195,164)"/>
<path d="M0 0 C2.51083114 1.25541557 2.87125446 2.50063488 4 5 C1.50907189 6.24546405 0.58919267 5.7767578 -2 5 C-2 4.34 -2 3.68 -2 3 C-1.34 3 -0.68 3 0 3 C0 2.01 0 1.02 0 0 Z " fill="#FBFDEF" transform="translate(149,175)"/>
<path d="M0 0 C0.66 0.33 1.32 0.66 2 1 C-2.296875 5.00390625 -2.296875 5.00390625 -4 6 C-6.203125 5.65234375 -6.203125 5.65234375 -8 5 C-6.71475739 4.13619741 -5.42157581 3.28419631 -4.125 2.4375 C-3.04605469 1.72400391 -3.04605469 1.72400391 -1.9453125 0.99609375 C-1.30335938 0.66738281 -0.66140625 0.33867187 0 0 Z " fill="#FAFEE2" transform="translate(136,128)"/>
<path d="M0 0 C0.66 0.33 1.32 0.66 2 1 C-0.75 3.0625 -0.75 3.0625 -4 5 C-6.203125 4.62109375 -6.203125 4.62109375 -8 4 C-6.71349294 3.30289269 -5.42059335 2.61757124 -4.125 1.9375 C-3.40570313 1.55464844 -2.68640625 1.17179687 -1.9453125 0.77734375 C-1.30335938 0.52082031 -0.66140625 0.26429687 0 0 Z " fill="#FAFEE7" transform="translate(184,99)"/>
<path d="M0 0 C0 0.66 0 1.32 0 2 C-2.9375 1.625 -2.9375 1.625 -6 1 C-6.33 0.34 -6.66 -0.32 -7 -1 C-3.51418144 -2.2020064 -3.32007656 -2.21338437 0 0 Z " fill="#F7FDD6" transform="translate(253,177)"/>
</svg>
