<?xml version="1.0" encoding="UTF-8"?>
<svg version="1.1" xmlns="http://www.w3.org/2000/svg" width="468" height="475">
<path d="M0 0 C19.73566334 -0.52863384 37.68939448 7.74097252 52 21 C52.76570312 21.68578125 53.53140625 22.3715625 54.3203125 23.078125 C63.15851275 31.39280816 69.61454363 41.48294862 75.625 51.9375 C78.56033891 57.04277337 81.56823456 60.77970414 86.21484375 64.41015625 C91.58419712 69.19205301 93.39862982 76.0794652 95.265625 82.76953125 C96.64697537 86.96501562 98.78623126 89.2492545 102.48828125 91.5390625 C107.86673457 93.7765948 113.36761185 94.11924657 119.125 94.72851562 C125.93722061 95.55795747 131.74742733 97.15399891 137 101.75 C138.52283749 105.17638435 138.53934195 108.31576272 138 112 C135.97416463 116.40917109 132.31707065 117.24390347 128 119 C126.948125 119.721875 125.89625 120.44375 124.8125 121.1875 C122 123 122 123 118 123 C118.57584432 120.61435923 119.22227595 118.33317216 120 116 C118.68 116.33 117.36 116.66 116 117 C115 114 115 114 116 111 C112.37228337 108.69226937 109.47355586 108.88267611 105.25 109.0625 C97.95362349 109.15342058 92.97539485 108.69202391 87.375 103.625 C86.59125 102.75875 85.8075 101.8925 85 101 C78.6970939 95.24377453 74.57746955 94.92018766 66.2265625 95.16015625 C63.01374006 95.00068201 60.88106593 94.37578991 58 93 C60.79883899 102.66303069 62.99131095 108.50727382 71.625 114.0625 C78.94326744 118.78787136 79.98893165 124.85588633 82 133 C83.093125 133 84.18625 133 85.3125 133 C87.54166667 133 89.77083333 133 92 133 C92 133.99 92 134.98 92 136 C95.465 134.02 95.465 134.02 99 132 C100 133 100 133 100.25 136.6875 C100.17615733 140.81530521 99.36573357 143.53025743 97 147 C92.90761168 150.61652921 90.39637619 151.2024365 85.00390625 150.875 C82.62334888 151.02349481 81.47983861 151.70115371 79.5 153 C75.60251966 155.55631505 72.58109215 155.32148015 68 155 C67.67 154.01 67.34 153.02 67 152 C67.969375 151.4225 68.93875 150.845 69.9375 150.25 C73.02170003 148.36580144 73.02170003 148.36580144 73.88671875 146.06640625 C74.22616938 143.92716214 74.22616938 143.92716214 72.7421875 142.32421875 C72.12601563 141.78410156 71.50984375 141.24398437 70.875 140.6875 C68.39068581 138.3988011 66.420799 136.29560264 64.625 133.4375 C59.64651311 126.17380601 50.94584318 122.38704009 42.60546875 120.44140625 C32.78794613 118.77816779 23.53858283 120.62764628 14 123 C13.2059375 123.19722656 12.411875 123.39445312 11.59375 123.59765625 C11.0678125 123.73042969 10.541875 123.86320312 10 124 C10.7229851 119.36678562 13.27752505 117.50526388 16.7578125 114.61328125 C22.6348047 110.38471369 28.90483259 109.47629596 36 109 C24.26097634 100.42468484 15.17196746 99.56068528 1 100 C3.47513801 95.74783982 6.37196738 94.83115041 10.9375 93.3125 C12.16339844 92.89613281 13.38929688 92.47976562 14.65234375 92.05078125 C17.09756245 91.28326219 19.50385206 90.5692969 22 90 C16.43286386 83.62732969 10.39967638 79.61884672 2 78 C-7.86207235 77.3613602 -15.96462025 77.67474922 -24.3125 83.1875 C-28.55006302 87.62215897 -31.36651416 92.8235131 -32 99 C-32.103125 99.99 -32.20625 100.98 -32.3125 102 C-32.06967363 113.1457305 -26.66371016 123.08901767 -19.12109375 130.9609375 C-8.00745499 141.24385982 6.11815881 146.67997135 20.4375 150.8125 C52.0629805 160.26907256 84.23973249 172.75118968 101 203 C102.94051893 206.92437451 104.55335879 210.86998119 106 215 C106.31839844 215.8559375 106.63679687 216.711875 106.96484375 217.59375 C111.12520707 230.32407832 109.95789559 243.70855051 105 256 C104.71125 256.73476563 104.4225 257.46953125 104.125 258.2265625 C97.51295209 273.04463416 84.66071087 281.34148002 70 287 C50.63102355 293.44824498 30.71849097 290.00228435 12.46875 281.77734375 C8.64491185 279.81805731 5.02197595 277.64063691 1.375 275.375 C-10.53467896 268.00858094 -23.19382495 264.43922639 -37.3125 266.5625 C-44.32112641 268.30312926 -50.00063818 271.97302659 -53.9375 278.0625 C-57.91417593 285.03237286 -58.82217931 291.01757556 -58 299 C-55.0916674 309.15304135 -45.90272147 317.04625472 -37 322 C-29.81297052 325.18037747 -22.44919782 327.63440578 -14.88232422 329.73681641 C7.4711035 335.9540118 33.13859654 346.31457445 45.94921875 366.84765625 C47.4689347 369.96053167 47.85334111 372.55351602 48 376 C47.01 376.33 46.02 376.66 45 377 C44.38125 376.14728516 44.38125 376.14728516 43.75 375.27734375 C29.49119352 356.21255562 7.49363714 349.43436344 -14.875 344.0625 C-31.0805583 340.16825019 -49.2890934 335.39598522 -62 324 C-61.44397368 327.9766439 -60.27037657 330.43912104 -57.9375 333.6875 C-55 337.8 -55 337.8 -55 340 C-53.68 340.66 -52.36 341.32 -51 342 C-51 342.99 -51 343.98 -51 345 C-64.82061755 338.94457479 -74.32802531 331.06674004 -80.25 317.0390625 C-84.97279268 303.75620809 -84.36531781 290.00355124 -79 277 C-76.88685505 273.15832963 -74.5762949 269.54602387 -72 266 C-78.67781055 268.76884828 -84.04941146 273.22133183 -86.9375 279.9375 C-87.4634375 281.4534375 -87.4634375 281.4534375 -88 283 C-88.66 282.67 -89.32 282.34 -90 282 C-89.36187572 273.2257911 -86.34513496 266.02503452 -81 259 C-80.58878906 258.45859375 -80.17757812 257.9171875 -79.75390625 257.359375 C-70.49294595 246.6792026 -53.45599914 240.82811593 -39.64257812 239.82958984 C-32.36177953 239.53375275 -25.17706816 239.6076035 -18 241 C-23.20463544 236.74166191 -28.0740232 234.77494361 -34.5234375 232.89453125 C-37 232 -37 232 -38 230 C-23.50663232 227.62403808 -12.64179376 232.51276076 -0.6875 240.5 C10.13002354 247.58084632 22.97338847 252.36720089 35.9375 252.3125 C37.07735352 252.33666992 37.07735352 252.33666992 38.24023438 252.36132812 C46.10108814 252.36804107 52.82542688 250.02581533 59 245 C62.57342337 240.35454962 62.69135052 235.24315795 62.5234375 229.56640625 C60.69431893 217.10382973 52.43523321 207.72027949 43 200 C36.46465639 195.15636659 29.34534436 191.45756991 22 188 C22.969375 188.78375 23.93875 189.5675 24.9375 190.375 C34.24787616 198.46280152 40.01582525 206.87775796 45 218 C44.01 218 43.02 218 42 218 C40.66796875 216.56640625 40.66796875 216.56640625 39.1875 214.5625 C29.34185413 202.87596657 13.65427548 197.04546659 -0.5 192.625 C-12.72731685 188.64667342 -25.69423487 181.9586477 -33 171 C-29.71801861 183.1778783 -23.75871598 190.3792517 -13 197 C-12.01 197.33 -11.02 197.66 -10 198 C-10 198.99 -10 199.98 -10 201 C-25.84100359 199.8948137 -40.2704489 190.1415372 -51 179 C-63.37454973 164.46047379 -71.59506888 145.72712114 -75 127 C-79.63681835 135.12874327 -78.17529931 144.88208065 -76.09375 153.59375 C-74.69808572 157.94024733 -72.76166169 161.70147981 -70.40234375 165.59765625 C-68.99806425 168.00331612 -67.97111903 170.39331207 -67 173 C-71.28091456 170.78336987 -74.01281496 167.98525788 -76.875 164.1875 C-77.30627197 163.61854004 -77.73754395 163.04958008 -78.18188477 162.46337891 C-88.77232431 148.05817765 -94.91221442 130.86337259 -92.52734375 112.8359375 C-89.84519772 96.01927632 -81.96595862 83.50226652 -72 70 C-84.1228249 74.54605934 -92.45270548 82.97687608 -97.95703125 94.60546875 C-99.02254782 97.05176708 -100.02506114 99.51633222 -101 102 C-101.66 101.67 -102.32 101.34 -103 101 C-101.10298321 81.50043207 -91.88943629 62.69193911 -77.28515625 49.55859375 C-64.55884267 39.46295439 -50.52879626 34.85996425 -35 31 C-48.75079136 27.43193039 -63.65941899 29.50317494 -77 34 C-75.49893621 29.74698592 -72.41521973 27.91013362 -68.75 25.625 C-68.12810791 25.2336084 -67.50621582 24.8422168 -66.86547852 24.43896484 C-56.59491483 18.14347772 -45.86698205 14.15470948 -34 12 C-33.29617187 11.86851563 -32.59234375 11.73703125 -31.8671875 11.6015625 C-13.47336857 8.75398384 5.25157324 13.52312411 23 18 C17.56386047 12.59859618 11.56527161 8.75785396 4.92944336 5.02172852 C3.25653728 4.06472379 1.62380593 3.03813635 0 2 C0 1.34 0 0.68 0 0 Z M71 71 C72.26974972 75.41522109 72.26974972 75.41522109 75 79 C75.66 76.69 76.32 74.38 77 72 C74.03 71.505 74.03 71.505 71 71 Z M76 81 C78.31 81.33 80.62 81.66 83 82 C82.34 80.68 81.68 79.36 81 78 C79.03177114 78 77.49471455 79.84280164 76 81 Z M-64 321 C-63 323 -63 323 -63 323 Z " fill="#F4FEBB" transform="translate(199,55)"/>
<path d="M0 0 C6.20381208 0.66469415 9.9959114 5.9870465 13.66796875 10.51171875 C15.87158608 12.97382491 17.04317724 13.0026677 20.4140625 13.2109375 C21.42654053 13.25021362 21.42654053 13.25021362 22.45947266 13.2902832 C32.00902983 13.66386791 39.17571138 14.91444219 47 21 C48.2065625 22.5159375 48.2065625 22.5159375 49.4375 24.0625 C52.45306615 27.51936851 54.61385076 28.71440453 59 30 C62.81665297 29.79030859 62.81665297 29.79030859 66 29 C66 29.99 66 30.98 66 32 C64.515 32.495 64.515 32.495 63 33 C63 33.66 63 34.32 63 35 C65.06132142 35.10864945 67.12431321 35.18588321 69.1875 35.25 C70.33605469 35.29640625 71.48460937 35.3428125 72.66796875 35.390625 C76.63518666 34.92553498 78.05267082 33.5859123 81 31 C81.99 31 82.98 31 84 31 C83.67 32.98 83.34 34.96 83 37 C89.15924361 36.50726051 93.21829851 34.99398924 97.484375 30.40234375 C98.69361097 28.96552686 99.85173246 27.48599329 101 26 C101.99 26.99 101.99 26.99 103 28 C100.18745118 35.95055701 97.74390474 42.24274169 89.9375 46.3125 C82.24888425 49.92082066 72.84834271 50.35794841 64.6875 48 C63.800625 47.67 62.91375 47.34 62 47 C62.0825 47.9075 62.165 48.815 62.25 49.75 C62 53 62 53 60 55.375 C59.34 55.91125 58.68 56.4475 58 57 C57.64192708 55.07942708 57.28385417 53.15885417 56.92578125 51.23828125 C54.72568923 45.91907144 49.69248996 42.96871814 45 40 C39.95184704 36.80627058 36.00910224 33.29962415 32.08203125 28.8046875 C29.4152136 26.49311197 27.09914574 25.96688673 23.6875 25.125 C16.53452515 23.0367154 12.26808839 20.8270474 8.42578125 14.34375 C7.40449423 12.42980153 6.40258384 10.50536704 5.421875 8.5703125 C3.65845401 5.38258993 1.75296492 3.34811713 -1 1 C-0.67 0.67 -0.34 0.34 0 0 Z " fill="#F4FEBE" transform="translate(266,152)"/>
<path d="M0 0 C0.66 0.33 1.32 0.66 2 1 C2.99 0.67 3.98 0.34 5 0 C5 1.65 5 3.3 5 5 C6.32 5.33 7.64 5.66 9 6 C9 5.34 9 4.68 9 4 C10.8125 2.9375 10.8125 2.9375 13 2 C13.99 2.33 14.98 2.66 16 3 C15.03900391 3.63615234 15.03900391 3.63615234 14.05859375 4.28515625 C2.02330341 12.44619515 -3.69605253 20.40396565 -9 34 C-9.66 33.67 -10.32 33.34 -11 33 C-10.43127519 26.97699872 -9.14113412 21.65297055 -7.1875 15.9375 C-6.8152832 14.7918457 -6.8152832 14.7918457 -6.43554688 13.62304688 C-4.77964194 8.69746706 -2.71361688 4.43243712 0 0 Z " fill="#F4FEC0" transform="translate(107,123)"/>
<path d="M0 0 C11.32337673 7.67941773 17.43922226 16.7836664 23 29 C22.01 29 21.02 29 20 29 C18.59765625 27.53125 18.59765625 27.53125 17.0625 25.5 C13.17548493 20.78364335 8.57375624 17.90412494 3.37890625 14.76171875 C2.59386719 14.18035156 1.80882812 13.59898437 1 13 C1 12.01 1 11.02 1 10 C0.34 10 -0.32 10 -1 10 C0.75 6.125 0.75 6.125 3 5 C2.2575 4.319375 2.2575 4.319375 1.5 3.625 C0 2 0 2 0 0 Z " fill="#F5FEC4" transform="translate(221,244)"/>
<path d="M0 0 C6.36283135 4.96978544 12.77088178 10.97517441 15 19 C15 20.32 15 21.64 15 23 C14.01 23.33 13.02 23.66 12 24 C11.5875 23.43152344 11.175 22.86304688 10.75 22.27734375 C4.32716722 13.68967224 -2.40978557 7.81730678 -12 3 C-12 2.67 -12 2.34 -12 2 C-4.57142857 3 -4.57142857 3 -1 4 C-0.67 2.68 -0.34 1.36 0 0 Z " fill="#F6FDCD" transform="translate(232,408)"/>
<path d="M0 0 C1.09054456 3.36646365 0.86127317 5.8948097 0.375 9.375 C-0.60439099 20.09606675 2.06082974 29.45414377 7.59765625 38.59765625 C9.00193575 41.00331612 10.02888097 43.39331207 11 46 C6.58963308 43.74756261 3.90255127 40.78828625 1 36.875 C0.56647217 36.2989502 0.13294434 35.72290039 -0.3137207 35.12939453 C-7.34277 25.64024401 -7.34277 25.64024401 -9 21 C-8.505 19.515 -8.505 19.515 -8 18 C-4 22.5 -4 22.5 -4 27 C-3.34 27 -2.68 27 -2 27 C-2.01047363 26.39526855 -2.02094727 25.79053711 -2.03173828 25.16748047 C-2.07354668 22.4033633 -2.09940451 19.63931292 -2.125 16.875 C-2.14175781 15.92367187 -2.15851563 14.97234375 -2.17578125 13.9921875 C-2.21104528 8.91416745 -2.03333617 4.75512475 0 0 Z " fill="#F7FDD6" transform="translate(121,182)"/>
<path d="M0 0 C0.68191406 0.16628906 1.36382812 0.33257812 2.06640625 0.50390625 C6.55564084 1.26307109 10.98863864 0.96331233 15.52734375 0.83984375 C19.99300902 1.04579682 23.47230397 1.66719523 26.8984375 4.65625 C27.62933594 5.56890625 27.62933594 5.56890625 28.375 6.5 C29.12910156 7.41265625 29.12910156 7.41265625 29.8984375 8.34375 C31 10 31 10 31 12 C31.94875 12.309375 32.8975 12.61875 33.875 12.9375 C37 14 37 14 39 15 C40.41237071 15.11580042 41.8293557 15.17847152 43.24609375 15.2109375 C44.08333984 15.23929688 44.92058594 15.26765625 45.78320312 15.296875 C47.54861851 15.34883719 49.31427628 15.39314467 51.08007812 15.4296875 C51.91861328 15.460625 52.75714844 15.4915625 53.62109375 15.5234375 C54.3886499 15.54325684 55.15620605 15.56307617 55.94702148 15.58349609 C58.54979591 16.11154142 59.46518718 16.84704536 61 19 C61 20.32 61 21.64 61 23 C62.32 23 63.64 23 65 23 C64.67 25.31 64.34 27.62 64 30 C65.485 30.495 65.485 30.495 67 31 C65.02 31.33 63.04 31.66 61 32 C61.57584432 29.61435923 62.22227595 27.33317216 63 25 C61.68 25.33 60.36 25.66 59 26 C58 23 58 23 59 20 C55.37228337 17.69226937 52.47355586 17.88267611 48.25 18.0625 C40.95362349 18.15342058 35.97539485 17.69202391 30.375 12.625 C29.59125 11.75875 28.8075 10.8925 28 10 C21.6970939 4.24377453 17.57746955 3.92018766 9.2265625 4.16015625 C6.01374006 4.00068201 3.88106593 3.37578991 1 2 C1.33 4.31 1.66 6.62 2 9 C1.34 9 0.68 9 0 9 C0 6.03 0 3.06 0 0 Z " fill="#FAFDE6" transform="translate(256,146)"/>
<path d="M0 0 C5.78790615 -0.18229626 10.82608791 0.36232073 16.4375 1.75 C17.54629517 2.01635254 17.54629517 2.01635254 18.67749023 2.28808594 C24.10234903 3.64534422 29.00415231 5.45665936 34 8 C32.1875 8.625 32.1875 8.625 30 9 C29.01 8.34 28.02 7.68 27 7 C24.71351152 6.75892674 24.71351152 6.75892674 22.3125 6.875 C21.10013672 6.90207031 21.10013672 6.90207031 19.86328125 6.9296875 C19.24839844 6.95289063 18.63351563 6.97609375 18 7 C17.67 8.32 17.34 9.64 17 11 C17.99 11 18.98 11 20 11 C21.6875 13 21.6875 13 23 15 C22.67 15.66 22.34 16.32 22 17 C21.12601563 16.25556641 21.12601563 16.25556641 20.234375 15.49609375 C14.54640791 10.78295121 8.7697178 6.96344919 2.2734375 3.4453125 C1.52320313 2.96835937 0.77296875 2.49140625 0 2 C0 1.34 0 0.68 0 0 Z " fill="#F6FDCC" transform="translate(199,55)"/>
<path d="M0 0 C6.20381208 0.66469415 9.9959114 5.9870465 13.66796875 10.51171875 C15.87158608 12.97382491 17.04317724 13.0026677 20.4140625 13.2109375 C21.81769297 13.26601794 23.22133974 13.32068418 24.625 13.375 C30.63924903 13.66430149 35.50290739 14.36597646 41 17 C38.45049636 18.27475182 37.69750348 17.71485059 35 17 C33.46034142 16.90191429 31.91762534 16.84604539 30.375 16.82421875 C29.50359375 16.80037109 28.6321875 16.77652344 27.734375 16.75195312 C25.91169678 16.70899 24.08870487 16.67773612 22.265625 16.65820312 C15.61117813 16.44656021 15.61117813 16.44656021 12.375 14.08203125 C11 12 11 12 11 10 C10.34 10 9.68 10 9 10 C12.70222609 16.81257931 12.70222609 16.81257931 19 21 C21.98040288 21.789078 24.96890022 22.43868523 28 23 C28 23.66 28 24.32 28 25 C20.68676136 24.67496717 16.12904489 23.31868397 10.9375 17.8125 C9.28513768 15.41390953 7.93086544 13.06249801 6.5625 10.5 C4.47484496 6.61644295 2.29074423 3.91465917 -1 1 C-0.67 0.67 -0.34 0.34 0 0 Z " fill="#F9FDDD" transform="translate(266,152)"/>
<path d="M0 0 C0 0.99 0 1.98 0 3 C-0.639375 3.28875 -1.27875 3.5775 -1.9375 3.875 C-4.15206079 4.82823451 -4.15206079 4.82823451 -5 7 C-3.62714844 6.96519531 -3.62714844 6.96519531 -2.2265625 6.9296875 C-1.03804687 6.91164063 0.15046875 6.89359375 1.375 6.875 C2.55835938 6.85179688 3.74171875 6.82859375 4.9609375 6.8046875 C8 7 8 7 10 9 C6.62783877 10.68608062 2.77936205 10.54415571 -0.9375 10.875 C-8.20694123 11.56954569 -15.05004394 12.65731818 -22 15 C-20.50521796 10.51565389 -16.95314127 8.71398652 -13.125 6.375 C-12.49980469 5.98054688 -11.87460938 5.58609375 -11.23046875 5.1796875 C-2.95346812 0 -2.95346812 0 0 0 Z " fill="#F4FDC3" transform="translate(144,74)"/>
<path d="M0 0 C0.66 0.33 1.32 0.66 2 1 C1.2575 1.804375 0.515 2.60875 -0.25 3.4375 C-5.70020663 10.09886366 -7.71736541 16.5301997 -7.37890625 25.14453125 C-6.2275445 33.82128832 -0.27703173 40.26056191 6.11328125 45.84765625 C15.14066981 52.75095339 26.17074727 56.00826092 37 59 C33.93299749 59.93343555 31.49280191 60.03969872 28.3125 59.6875 C27.52488281 59.60886719 26.73726562 59.53023438 25.92578125 59.44921875 C25.29027344 59.30097656 24.65476563 59.15273438 24 59 C23.67 58.34 23.34 57.68 23 57 C21.33466542 56.35610965 19.64116067 55.78429798 17.9375 55.25 C6.65353888 51.31305377 -3.63224639 41.73550722 -9 31 C-9.09919809 28.2603822 -9.13889275 25.55168757 -9.125 22.8125 C-9.12886719 22.06935547 -9.13273438 21.32621094 -9.13671875 20.56054688 C-9.11529261 8.33693639 -9.11529261 8.33693639 -6.15234375 4.78515625 C-5.05599609 3.93244141 -5.05599609 3.93244141 -3.9375 3.0625 C-3.20402344 2.47597656 -2.47054687 1.88945312 -1.71484375 1.28515625 C-1.14894531 0.86105469 -0.58304688 0.43695313 0 0 Z " fill="#F9FEDB" transform="translate(148,326)"/>
<path d="M0 0 C-1.66563129 0.91854666 -3.33256859 1.83472515 -5 2.75 C-6.0003125 3.30042969 -7.000625 3.85085938 -8.03125 4.41796875 C-10.4930667 5.72985791 -12.96156218 6.91167837 -15.5 8.0625 C-18.95840858 9.75655786 -20.258206 11.51641199 -22 15 C-24.0625 17.3125 -24.0625 17.3125 -26 19 C-26.66 19 -27.32 19 -28 19 C-28.33 20.98 -28.66 22.96 -29 25 C-27.68 25.33 -26.36 25.66 -25 26 C-26.1446875 27.0209375 -26.1446875 27.0209375 -27.3125 28.0625 C-30.32843331 31.35898525 -31.45879017 33.86306835 -33 38 C-33.66 37.67 -34.32 37.34 -35 37 C-34.36187572 28.2257911 -31.34513496 21.02503452 -26 14 C-25.38318359 13.18789063 -25.38318359 13.18789063 -24.75390625 12.359375 C-20.79505281 7.79384013 -16.06798817 5.19692891 -10.75 2.5 C-10.04004883 2.13729004 -9.33009766 1.77458008 -8.59863281 1.40087891 C-3.38279508 -1.12759836 -3.38279508 -1.12759836 0 0 Z " fill="#F8FDD7" transform="translate(144,300)"/>
<path d="M0 0 C1.20628008 2.33214148 2.1654738 4.49642139 3 7 C4.093125 7 5.18625 7 6.3125 7 C8.54166667 7 10.77083333 7 13 7 C13 7.99 13 8.98 13 10 C15.31 8.68 17.62 7.36 20 6 C21 7 21 7 21.25 10.6875 C21.17615733 14.81530521 20.36573357 17.53025743 18 21 C13.64797649 24.93754508 10.38203957 25.40049028 4.7578125 25.140625 C4.17773438 25.09421875 3.59765625 25.0478125 3 25 C3 24.34 3 23.68 3 23 C3.85464844 22.87882812 4.70929688 22.75765625 5.58984375 22.6328125 C6.69457031 22.46523437 7.79929687 22.29765625 8.9375 22.125 C10.03964844 21.96257812 11.14179688 21.80015625 12.27734375 21.6328125 C13.62505859 21.31957031 13.62505859 21.31957031 15 21 C15.33 20.34 15.66 19.68 16 19 C16.66 19 17.32 19 18 19 C17.67 17.02 17.34 15.04 17 13 C16.01 13.33 15.02 13.66 14 14 C14 13.34 14 12.68 14 12 C13.34 12 12.68 12 12 12 C11.34 11.34 10.68 10.68 10 10 C8.576875 10.061875 8.576875 10.061875 7.125 10.125 C4 10 4 10 1.625 8.375 C-0.4131192 5.3962104 -0.32152515 3.53677664 0 0 Z " fill="#F7FED4" transform="translate(278,181)"/>
<path d="M0 0 C7.99184086 5.32789391 12.6013233 14.26054563 16 23 C13 23 13 23 11.421875 21.42578125 C10.59429687 20.37970703 10.59429687 20.37970703 9.75 19.3125 C6.50469654 15.41675192 3.234878 12.76563461 -1 10 C0.32 9.67 1.64 9.34 3 9 C3 9.66 3 10.32 3 11 C3.99 11 4.98 11 6 11 C6 10.01 6 9.02 6 8 C5.34 8 4.68 8 4 8 C3.34 6.35 2.68 4.7 2 3 C1.34 3 0.68 3 0 3 C0 2.01 0 1.02 0 0 Z " fill="#F8FDD9" transform="translate(228,250)"/>
<path d="M0 0 C1 2 1 2 0.51171875 3.875 C0.10373047 4.926875 0.10373047 4.926875 -0.3125 6 C-0.70888672 7.051875 -0.70888672 7.051875 -1.11328125 8.125 C-2 10 -2 10 -4 12 C-6.21585913 18.12780797 -6.18089789 24.69190164 -6.1875 31.125 C-6.18830566 31.87652344 -6.18911133 32.62804687 -6.18994141 33.40234375 C-6.14128902 38.34110193 -5.6930241 43.11002194 -5 48 C-9.52568823 43.47431177 -9.27322415 36.44546 -9.375 30.375 C-9.36061685 19.19014117 -6.56809857 9.12235912 0 0 Z " fill="#F9FDDC" transform="translate(125,324)"/>
<path d="M0 0 C-1.32 0.33 -2.64 0.66 -4 1 C-4 1.66 -4 2.32 -4 3 C-4.65226562 3.19335938 -5.30453125 3.38671875 -5.9765625 3.5859375 C-10.6771398 4.98640448 -15.35840891 6.41208726 -20 8 C-20 8.66 -20 9.32 -20 10 C-20.99 10.33 -21.98 10.66 -23 11 C-24.48033078 12.60618838 -24.48033078 12.60618838 -25.875 14.5 C-28.46526927 17.67662375 -29.89960652 18.43050091 -34 19 C-35.10836423 20.88316159 -35.10836423 20.88316159 -36 23 C-38.125 24.75 -38.125 24.75 -40 26 C-33.61321208 12.55566561 -19.18706919 5.38247722 -6 0 C-3 -1 -3 -1 0 0 Z " fill="#F9FEDB" transform="translate(152,91)"/>
<path d="M0 0 C0 0.33 0 0.66 0 1 C-1.87491693 1.02730462 -3.74995225 1.04653244 -5.625 1.0625 C-6.66914063 1.07410156 -7.71328125 1.08570312 -8.7890625 1.09765625 C-12 1 -12 1 -14.89453125 0.50390625 C-18.63060013 -0.10232379 -22.28996437 -0.14613465 -26.0625 -0.125 C-26.75666016 -0.12886719 -27.45082031 -0.13273437 -28.16601562 -0.13671875 C-31.92321264 -0.12958257 -35.33620072 0.22190216 -39 1 C-40.76977761 1.06459042 -42.54170152 1.08611065 -44.3125 1.0625 C-45.19550781 1.05347656 -46.07851562 1.04445313 -46.98828125 1.03515625 C-47.65214844 1.02355469 -48.31601563 1.01195313 -49 1 C-35.95362119 -7.69758587 -14.44342615 -2.56229735 0 0 Z " fill="#FAFEE2" transform="translate(205,69)"/>
<path d="M0 0 C6.75 -0.125 6.75 -0.125 9 1 C9 2.32 9 3.64 9 5 C8.34 5 7.68 5 7 5 C7 5.66 7 6.32 7 7 C7.7425 6.896875 8.485 6.79375 9.25 6.6875 C12 7 12 7 14.3125 9.375 C16 12 16 12 16 14 C8.81218274 14.48730964 8.81218274 14.48730964 5.1875 12.3125 C2.14464741 9.09577012 0.11322864 6.69842959 -0.1875 2.1875 C-0.125625 1.465625 -0.06375 0.74375 0 0 Z M1 1 C2.26974972 5.41522109 2.26974972 5.41522109 5 9 C5.66 6.69 6.32 4.38 7 2 C4.03 1.505 4.03 1.505 1 1 Z M6 11 C8.31 11.33 10.62 11.66 13 12 C12.34 10.68 11.68 9.36 11 8 C9.03177114 8 7.49471455 9.84280164 6 11 Z " fill="#FAFEDD" transform="translate(269,125)"/>
<path d="M0 0 C1.29202804 4.62588402 0.30327754 7.40019691 -1 12 C0.65 10.02 2.3 8.04 4 6 C4.66 6.33 5.32 6.66 6 7 C5.443125 7.61875 4.88625 8.2375 4.3125 8.875 C0.22821281 14.39430701 -2.51642191 20.62016637 -5 27 C-5.66 26.67 -6.32 26.34 -7 26 C-6.43737174 19.78972353 -4.99833221 14.37169827 -2.9375 8.5 C-2.65583984 7.67757812 -2.37417969 6.85515625 -2.08398438 6.0078125 C-1.39622757 4.00282657 -0.69908924 2.00106277 0 0 Z " fill="#F9FEDB" transform="translate(103,130)"/>
<path d="M0 0 C1.68814237 0.11600255 3.37550887 0.24331025 5.0625 0.375 C6.00222656 0.44460938 6.94195312 0.51421875 7.91015625 0.5859375 C11 1 11 1 13.96875 2.03125 C19.90523767 3.82533771 26.30612276 3.20547239 32.4375 3.125 C33.74138672 3.11597656 35.04527344 3.10695313 36.38867188 3.09765625 C39.59263832 3.07418397 42.79622264 3.04134727 46 3 C38.04666325 8.3022245 24.35863271 6.93643306 15.21484375 5.17578125 C4.11280116 2.74186744 4.11280116 2.74186744 0 0 Z " fill="#F9FDDE" transform="translate(219,339)"/>
<path d="M0 0 C1.546875 0.8971875 1.546875 0.8971875 3.125 1.8125 C6.36007317 3.66393699 9.64917836 5.36545286 13 7 C13 7.99 13 8.98 13 10 C5.7380517 9.49335244 -3.78353508 7.21646492 -9 2 C-6.36 2 -3.72 2 -1 2 C-0.67 1.34 -0.34 0.68 0 0 Z " fill="#F7FED1" transform="translate(176,246)"/>
<path d="M0 0 C1.67299959 0.65061095 3.33859237 1.32033324 5 2 C5.7425 2.268125 6.485 2.53625 7.25 2.8125 C9 4 9 4 9.75 6.625 C9.8325 7.40875 9.915 8.1925 10 9 C8.78441406 8.68289063 7.56882813 8.36578125 6.31640625 8.0390625 C0.22502889 6.68542309 -5.84375542 6.54724451 -12.0625 6.375 C-13.21427734 6.33632813 -14.36605469 6.29765625 -15.55273438 6.2578125 C-18.36833796 6.16434848 -21.1839486 6.07858748 -24 6 C-24 5.67 -24 5.34 -24 5 C-19.3424237 3.81920601 -14.83191765 3.85163959 -10.0625 3.875 C-9.27681641 3.87113281 -8.49113281 3.86726563 -7.68164062 3.86328125 C-3.34242825 3.87054353 0.72757542 4.13591413 5 5 C3.35 3.35 1.7 1.7 0 0 Z " fill="#F9FEDB" transform="translate(176,291)"/>
<path d="M0 0 C7.75 0.875 7.75 0.875 10 2 C12.37123246 2.23029956 14.74741943 2.41119942 17.125 2.5625 C18.40632813 2.64628906 19.68765625 2.73007813 21.0078125 2.81640625 C22.48894531 2.90728516 22.48894531 2.90728516 24 3 C22 5 22 5 19.20703125 5.265625 C13.10170189 5.23752222 7.7484225 5.13894791 2 3 C2.0825 3.9075 2.165 4.815 2.25 5.75 C2 9 2 9 0 11.375 C-0.66 11.91125 -1.32 12.4475 -2 13 C-2 11.35 -2 9.7 -2 8 C-1.67 8 -1.34 8 -1 8 C-0.67 5.36 -0.34 2.72 0 0 Z " fill="#F7FDD9" transform="translate(326,196)"/>
<path d="M0 0 C0.99 0.495 0.99 0.495 2 1 C2.2475 2.155 2.495 3.31 2.75 4.5 C3.76335854 9.1016445 6.01061278 12.34471708 8.7578125 16.1171875 C10 18 10 18 10 20 C11.32 20.66 12.64 21.32 14 22 C14 22.99 14 23.98 14 25 C10.04 23.02 6.08 21.04 2 19 C3.32 18.67 4.64 18.34 6 18 C4.63016497 14.83884224 4.0109362 14.0072908 1 12 C0.48828125 9.1796875 0.48828125 9.1796875 0.3125 5.875 C0.24675781 4.77929688 0.18101562 3.68359375 0.11328125 2.5546875 C0.05720703 1.29011719 0.05720703 1.29011719 0 0 Z " fill="#F8FDDA" transform="translate(134,375)"/>
<path d="M0 0 C1.24394531 -0.02578125 2.48789063 -0.0515625 3.76953125 -0.078125 C7.32429543 0.26313236 8.65228785 0.82334857 11.1875 3.25 C9.99253906 3.21519531 8.79757813 3.18039063 7.56640625 3.14453125 C-4.07373599 2.90355731 -13.00130248 2.85838331 -21.8125 11.25 C-22.82930311 12.23290968 -23.83988219 13.22334787 -24.8125 14.25 C-24.4825 12.6 -24.1525 10.95 -23.8125 9.25 C-23.1525 9.25 -22.4925 9.25 -21.8125 9.25 C-21.8125 8.59 -21.8125 7.93 -21.8125 7.25 C-21.1525 7.25 -20.4925 7.25 -19.8125 7.25 C-19.4825 6.26 -19.1525 5.27 -18.8125 4.25 C-16.34375 3.3359375 -16.34375 3.3359375 -13.3125 2.625 C-2.48923123 0.0307629 -2.48923123 0.0307629 0 0 Z " fill="#FAFDE3" transform="translate(193.8125,129.75)"/>
<path d="M0 0 C0.680625 0.474375 1.36125 0.94875 2.0625 1.4375 C6.10608413 3.58834262 9.89475926 4.37786372 14.4375 3.5625 C15.2109375 3.2840625 15.2109375 3.2840625 16 3 C16 3.99 16 4.98 16 6 C15.01 6.33 14.02 6.66 13 7 C13 7.66 13 8.32 13 9 C16.3 9.33 19.6 9.66 23 10 C23 10.33 23 10.66 23 11 C17.32985684 11.23143441 12.36004766 11.14401907 7 9 C5.3125 7 5.3125 7 4 5 C1.91665365 3.7483533 1.91665365 3.7483533 0 3 C0 2.01 0 1.02 0 0 Z " fill="#F8FDD8" transform="translate(316,178)"/>
<path d="M0 0 C1.76977173 2.65465759 3.15234113 5.3037748 4.51171875 8.18359375 C9.48966013 14.25903401 16.62110039 14.89983737 23.9375 15.75 C25.3925293 15.93755859 25.3925293 15.93755859 26.87695312 16.12890625 C29.24994603 16.43283638 31.62376106 16.72280938 34 17 C34 17.33 34 17.66 34 18 C24.23742924 18.40489925 11.57523069 18.9193212 3.875 12.125 C0.30877126 8.08327409 -0.24533324 5.39733119 0 0 Z " fill="#FAFEDE" transform="translate(292,134)"/>
<path d="M0 0 C-3.465 1.485 -3.465 1.485 -7 3 C-5.1128125 3.1546875 -5.1128125 3.1546875 -3.1875 3.3125 C0.70316313 3.63140681 0.96699861 3.96699861 4 7 C-2.93 7 -9.86 7 -17 7 C-14.07903203 3.10537603 -13.30144245 2.33845653 -9.0625 0.6875 C-8.20785156 0.34074219 -7.35320312 -0.00601563 -6.47265625 -0.36328125 C-3.84031093 -1.04112057 -2.52443674 -0.90786008 0 0 Z " fill="#F7FDD8" transform="translate(217,148)"/>
<path d="M0 0 C1.34868164 -0.0309375 1.34868164 -0.0309375 2.72460938 -0.0625 C8.91413207 -0.09830346 13.95420324 0.91977732 19.6875 3.25 C19.6875 3.91 19.6875 4.57 19.6875 5.25 C20.3475 5.25 21.0075 5.25 21.6875 5.25 C21.6875 5.91 21.6875 6.57 21.6875 7.25 C20.924375 6.981875 20.16125 6.71375 19.375 6.4375 C18.158125 6.045625 16.94125 5.65375 15.6875 5.25 C14.88699219 4.98574219 14.08648437 4.72148437 13.26171875 4.44921875 C3.29890533 1.40702826 -6.08936622 1.8869155 -16.3125 3.25 C-16.3125 2.59 -16.3125 1.93 -16.3125 1.25 C-10.86243099 0.12925612 -5.53978179 0.03136465 0 0 Z " fill="#FBFEE2" transform="translate(234.3125,172.75)"/>
<path d="M0 0 C1.07072305 1.60608458 2.13906591 3.21384234 3.19140625 4.83203125 C6.55965519 9.69727973 10.00396987 12.51764736 15.00390625 15.62890625 C17.59110786 17.40602516 18.91429837 19.05309557 20 22 C19.6875 24.3125 19.6875 24.3125 19 26 C17.5393715 23.35261084 17 22.10551666 17 19 C15.01113278 17.99668752 13.02013897 17.00936148 11 16.0703125 C3.32666356 12.44346208 3.32666356 12.44346208 1 9 C0.39281938 6.00561351 0.13033113 3.04974837 0 0 Z " fill="#F8FED9" transform="translate(258,155)"/>
<path d="M0 0 C0.87140625 0.51949219 1.7428125 1.03898438 2.640625 1.57421875 C12.08322527 7.13041546 21.55706262 11.59068809 32 15 C24.37496485 17.45581087 16.2979438 12.38165042 9.5 9.125 C8.79327148 8.79765869 8.08654297 8.47031738 7.35839844 8.13305664 C4.12368471 6.52706753 2.25351019 5.47600584 0.53125 2.2421875 C0.3559375 1.50226563 0.180625 0.76234375 0 0 Z " fill="#F9FEDA" transform="translate(184,190)"/>
<path d="M0 0 C3.75593278 0.64993372 7.11234725 1.75862076 10.6875 3.0625 C20.69257011 6.21478236 31.74345586 5.99929466 42 4 C42 4.66 42 5.32 42 6 C28.28168705 9.49348342 13.25045481 7.1981639 0 3 C0 2.01 0 1.02 0 0 Z " fill="#FAFEE2" transform="translate(208,302)"/>
<path d="M0 0 C-0.33 1.98 -0.66 3.96 -1 6 C4.70709064 5.53411505 8.15939723 4.06242216 13 1 C11.69756881 3.90542342 10.54775844 6.05679441 8 8 C4.86328125 8.51171875 4.86328125 8.51171875 1.3125 8.6875 C0.13300781 8.75324219 -1.04648437 8.81898438 -2.26171875 8.88671875 C-3.61716797 8.94279297 -3.61716797 8.94279297 -5 9 C-4.34 7.35 -3.68 5.7 -3 4 C-3.99 3.67 -4.98 3.34 -6 3 C-3.375 0 -3.375 0 0 0 Z " fill="#F9FDDC" transform="translate(350,183)"/>
<path d="M0 0 C0.66 0.33 1.32 0.66 2 1 C1.67 1.66 1.34 2.32 1 3 C7.6 3 14.2 3 21 3 C21 3.33 21 3.66 21 4 C19.75605469 4.10957031 18.51210937 4.21914062 17.23046875 4.33203125 C8.23567133 5.17232875 -0.38703019 6.09675175 -9 9 C-7.63783758 5.78034336 -6.27468847 4.18312565 -3.375 2.25 C-2.74335938 1.82203125 -2.11171875 1.3940625 -1.4609375 0.953125 C-0.97882813 0.63859375 -0.49671875 0.3240625 0 0 Z " fill="#FAFEE7" transform="translate(131,80)"/>
<path d="M0 0 C0.33 0 0.66 0 1 0 C1.03738281 1.0415625 1.07476562 2.083125 1.11328125 3.15625 C1.47951765 11.57968718 2.26067791 19.66282158 4.0715332 27.90820312 C4.76144662 31.13861146 5.06809508 32.79571475 4 36 C-0.25429258 24.26606745 -2.27700605 12.39703292 0 0 Z " fill="#F9FEDE" transform="translate(107,164)"/>
<path d="M0 0 C1.20628008 2.33214148 2.1654738 4.49642139 3 7 C4.093125 7 5.18625 7 6.3125 7 C8.54166667 7 10.77083333 7 13 7 C13 7.99 13 8.98 13 10 C15.31 8.68 17.62 7.36 20 6 C21 7 21 7 21.09765625 8.84765625 C21.06510417 10.8984375 21.03255208 12.94921875 21 15 C20.67 15 20.34 15 20 15 C20 13.02 20 11.04 20 9 C19.46375 9.350625 18.9275 9.70125 18.375 10.0625 C15.22899928 11.30434239 13.28792118 10.65758424 10 10 C8.453125 10.0928125 8.453125 10.0928125 6.875 10.1875 C4 10 4 10 1.625 8.375 C-0.4131192 5.3962104 -0.32152515 3.53677664 0 0 Z " fill="#F8FED7" transform="translate(278,181)"/>
<path d="M0 0 C1.27817759 3.83453276 0.41463448 5.27727767 -1 9 C-1.268125 9.804375 -1.53625 10.60875 -1.8125 11.4375 C-3.17126549 14.36957289 -4.90741833 16.76190293 -6.82421875 19.3515625 C-8.1060496 21.14868084 -9.1111269 22.97983386 -10 25 C-11 23 -11 23 -10.21484375 20.3125 C-7.42216218 13.07031659 -4.26370095 6.49078873 0 0 Z " fill="#F8FDD8" transform="translate(119,136)"/>
<path d="M0 0 C4.74312839 0.63425554 8.54059517 2.54121833 12.75 4.6875 C13.45576172 5.04328125 14.16152344 5.3990625 14.88867188 5.765625 C20.18598304 8.47994973 25.19471534 11.47612458 30 15 C29.01 15.495 29.01 15.495 28 16 C24.24910964 14.44475278 21.01456267 12.35421799 17.6875 10.0625 C13.92217992 7.49292346 10.14966291 5.63235478 5.953125 3.87890625 C3.70700742 2.86815334 1.85768897 1.61538171 0 0 Z " fill="#F9FEDA" transform="translate(246,216)"/>
<path d="M0 0 C5.75 0.75 5.75 0.75 8 3 C11.08347826 3.16681109 11.08347826 3.16681109 14 3 C14.33 3.99 14.66 4.98 15 6 C15.99 6.33 16.98 6.66 18 7 C18 7.66 18 8.32 18 9 C18.99 9.33 19.98 9.66 21 10 C20.01 10.495 20.01 10.495 19 11 C16.28181898 9.82872722 13.68999636 8.59956717 11.0625 7.25 C10.33353516 6.8890625 9.60457031 6.528125 8.85351562 6.15625 C5.39022737 4.40397217 2.66012289 2.87586393 0 0 Z " fill="#F8FDD5" transform="translate(198,328)"/>
<path d="M0 0 C5.61840991 -0.35115062 9.88452054 0.05801879 15.0703125 2.265625 C18.01335293 3.38564849 20.87745028 3.6747344 24 4 C24.33 4.99 24.66 5.98 25 7 C16.61527763 5.20327378 8.31243331 3.10105676 0 1 C0 0.67 0 0.34 0 0 Z " fill="#F8FDDC" transform="translate(183,398)"/>
<path d="M0 0 C0.66 0.66 1.32 1.32 2 2 C-0.67214345 9.55365691 -3.13464242 15.42309495 -10 20 C-10.99 19.67 -11.98 19.34 -13 19 C-11.39125 17.9790625 -11.39125 17.9790625 -9.75 16.9375 C-5.81429746 14.15935703 -4.10328772 11.29070694 -2 7 C-2.66 6.34 -3.32 5.68 -4 5 C-2.68 3.35 -1.36 1.7 0 0 Z " fill="#FBFEE2" transform="translate(367,178)"/>
<path d="M0 0 C6.27588901 1.65154974 11.46947898 4.2452407 17 7.5625 C17.6710376 7.96267334 18.3420752 8.36284668 19.03344727 8.77514648 C23.86827371 11.73654743 23.86827371 11.73654743 25 14 C21.36863085 13.35817662 18.91838385 11.79075302 15.875 9.75 C10.7571005 6.40924461 5.52546492 3.60092383 0 1 C0 0.67 0 0.34 0 0 Z " fill="#F9FEDC" transform="translate(205,393)"/>
<path d="M0 0 C0.33 0.66 0.66 1.32 1 2 C0.67 2.66 0.34 3.32 0 4 C4.455 3.505 4.455 3.505 9 3 C3.89306527 6.91531663 1.36484364 7.10265877 -5 7 C-5.33 6.01 -5.66 5.02 -6 4 C-4.02 2.68 -2.04 1.36 0 0 Z " fill="#F7FDD4" transform="translate(272,203)"/>
<path d="M0 0 C5.00340377 1.41533593 8.84851863 3.59111079 13.125 6.4375 C13.73214844 6.83259766 14.33929688 7.22769531 14.96484375 7.63476562 C18.0557132 9.6583087 21.07780255 11.73929501 24 14 C19.14036821 13.39254603 15.2594482 11.27241033 11 9 C11 8.34 11 7.68 11 7 C9.948125 6.5978125 9.948125 6.5978125 8.875 6.1875 C5.8350176 4.9318551 2.9272226 3.49764877 0 2 C0 1.34 0 0.68 0 0 Z " fill="#F9FEDB" transform="translate(184,288)"/>
<path d="M0 0 C1.98 0 3.96 0 6 0 C6.226875 0.61875 6.45375 1.2375 6.6875 1.875 C8.39873685 4.64557394 9.97107345 4.9657324 13 6 C13.99 6.66 14.98 7.32 16 8 C16 8.66 16 9.32 16 10 C9.8034553 8.53239731 4.93130534 4.88851943 0 1 C0 0.67 0 0.34 0 0 Z " fill="#F8FED7" transform="translate(175,234)"/>
<path d="M0 0 C1.20163555 1.80245332 2.37281154 3.62659882 3.48046875 5.48828125 C7.07652499 11.43782052 10.44634781 15.8064259 16 20 C15.01 20.33 14.02 20.66 13 21 C7.74947051 15.89948564 2.83866177 10.87254955 0 4 C0 2.68 0 1.36 0 0 Z " fill="#FAFEDC" transform="translate(168,169)"/>
<path d="M0 0 C0.66 0.33 1.32 0.66 2 1 C3.30505086 6.08969835 3.81481765 11.79036802 3 17 C1.54695959 19.28117183 0.20119063 20.34910703 -2 22 C-1.67257812 21.18273437 -1.34515625 20.36546875 -1.0078125 19.5234375 C0.16951093 15.40736876 0.22478162 11.86955666 0.125 7.625 C0.11146484 6.52091797 0.11146484 6.52091797 0.09765625 5.39453125 C0.07430144 3.5962112 0.03843836 1.79806089 0 0 Z " fill="#FAFEE1" transform="translate(261,278)"/>
<path d="M0 0 C4.93580132 0.63687759 9.84084614 2.24724044 14 5 C15.0625 8.25 15.0625 8.25 15 11 C14.50371094 10.61328125 14.00742188 10.2265625 13.49609375 9.828125 C9.15116853 6.49729049 4.81370839 3.60742538 0 1 C0 0.67 0 0.34 0 0 Z " fill="#F7FDD6" transform="translate(231,247)"/>
<path d="M0 0 C0.93972656 0.12568359 0.93972656 0.12568359 1.8984375 0.25390625 C3.12433594 0.40666016 3.12433594 0.40666016 4.375 0.5625 C5.59316406 0.71912109 5.59316406 0.71912109 6.8359375 0.87890625 C9.04899186 1.18237328 9.04899186 1.18237328 11 0 C13.625 1.4375 13.625 1.4375 16 3 C15.67 3.99 15.34 4.98 15 6 C12.08296266 5.30071023 9.22969901 4.48383262 6.375 3.5625 C5.59898437 3.31628906 4.82296875 3.07007812 4.0234375 2.81640625 C2 2 2 2 0 0 Z " fill="#F9FEDC" transform="translate(213,72)"/>
<path d="M0 0 C2.63978826 3.18595135 5.10498388 6.30970546 7 10 C6.67 10.66 6.34 11.32 6 12 C2.06451569 8.93906776 -0.68116787 6.50884026 -3 2 C-2.34 2 -1.68 2 -1 2 C-0.67 1.34 -0.34 0.68 0 0 Z " fill="#FBFDE8" transform="translate(125,216)"/>
<path d="M0 0 C0.66 0 1.32 0 2 0 C1.7834375 0.96099609 1.7834375 0.96099609 1.5625 1.94140625 C-0.08613391 9.62358233 -0.27270249 16.20469727 1 24 C-0.484375 22.890625 -0.484375 22.890625 -2 21 C-2.74519828 14.43515805 -2.32510416 7.478287 -1 1 C-0.67 0.67 -0.34 0.34 0 0 Z " fill="#F9FEDB" transform="translate(167,144)"/>
<path d="M0 0 C1.32 0 2.64 0 4 0 C3.43768609 3.93619738 2.38314183 6.79192446 0 10 C-0.99 10 -1.98 10 -3 10 C-2 8 -1 6 0 4 C-1.32 3.67 -2.64 3.34 -4 3 C-2.68 2.67 -1.36 2.34 0 2 C0 1.34 0 0.68 0 0 Z " fill="#F9FED8" transform="translate(127,121)"/>
<path d="M0 0 C0.763125 0.309375 1.52625 0.61875 2.3125 0.9375 C4.18789677 1.67893593 6.08684652 2.36228217 8 3 C8 3.99 8 4.98 8 6 C3.428721 5.45144652 -0.67435795 4.58255197 -5 3 C-5 2.67 -5 2.34 -5 2 C-3.35 2 -1.7 2 0 2 C0 1.34 0 0.68 0 0 Z " fill="#FAFDE5" transform="translate(181,250)"/>
<path d="M0 0 C0.33 0 0.66 0 1 0 C1.36074271 7.21485411 1.36074271 7.21485411 -0.0625 10.3125 C-2.76531001 12.66656033 -5.6727324 13.71579145 -9 15 C-10.34013497 15.65288627 -11.67741528 16.31225595 -13 17 C-12.505 15.515 -12.505 15.515 -12 14 C-11.34 14 -10.68 14 -10 14 C-10 13.34 -10 12.68 -10 12 C-7.36 11.34 -4.72 10.68 -2 10 C-1.34 6.7 -0.68 3.4 0 0 Z " fill="#FAFEE5" transform="translate(336,159)"/>
<path d="M0 0 C2.62187494 1.04874998 3.79371361 1.64931313 5.25 4.125 C5.4975 4.74375 5.745 5.3625 6 6 C6.66 6 7.32 6 8 6 C7.67 4.02 7.34 2.04 7 0 C9.76223278 2.76223278 9.57856291 5.20706617 10 9 C9.01 9.33 8.02 9.66 7 10 C5.83043409 8.52312468 4.66441854 7.04343707 3.5 5.5625 C2.8503125 4.73878906 2.200625 3.91507812 1.53125 3.06640625 C0 1 0 1 0 0 Z " fill="#F9FDDE" transform="translate(237,422)"/>
<path d="M0 0 C0.66 0.66 1.32 1.32 2 2 C1.030625 1.835 0.06125 1.67 -0.9375 1.5 C-6.31483158 0.73337432 -11.80789673 0.26929891 -17 2 C-17.99 1.01 -18.98 0.02 -20 -1 C-13.0977703 -2.32735186 -6.80994434 -1.7915392 0 0 Z " fill="#FAFDE7" transform="translate(181,286)"/>
<path d="M0 0 C2.02045442 0.60183749 4.02111039 1.27306096 6 2 C6.33 2.66 6.66 3.32 7 4 C5.35 3.67 3.7 3.34 2 3 C2.0825 3.9075 2.165 4.815 2.25 5.75 C2 9 2 9 0 11.375 C-0.66 11.91125 -1.32 12.4475 -2 13 C-2 11.35 -2 9.7 -2 8 C-1.67 8 -1.34 8 -1 8 C-0.67 5.36 -0.34 2.72 0 0 Z " fill="#FBFEE5" transform="translate(326,196)"/>
<path d="M0 0 C1.65 0 3.3 0 5 0 C5.2475 0.9075 5.495 1.815 5.75 2.75 C6.75762248 6.06955722 6.75762248 6.06955722 9.1875 8.0625 C9.785625 8.701875 10.38375 9.34125 11 10 C10.75 12.75 10.75 12.75 10 15 C9.90589844 14.4121875 9.81179688 13.824375 9.71484375 13.21875 C8.84165872 10.50853636 7.65070963 9.41021256 5.5625 7.5 C3.01198099 5.15714329 1.39049384 3.18625725 0 0 Z " fill="#F8FEDA" transform="translate(264,188)"/>
<path d="M0 0 C0.66 0.66 1.32 1.32 2 2 C0.02 2.99 0.02 2.99 -2 4 C-2 4.66 -2 5.32 -2 6 C1.3 6.33 4.6 6.66 8 7 C8 7.33 8 7.66 8 8 C6.58344207 8.0272415 5.16672955 8.04650467 3.75 8.0625 C2.56664062 8.07990234 2.56664062 8.07990234 1.359375 8.09765625 C-0.90691002 8.00385306 -2.8288895 7.63241063 -5 7 C-4.49396008 4.83125748 -4.00016187 3.00032373 -3 1 C-2.01 0.67 -1.02 0.34 0 0 Z " fill="#FCFDEC" transform="translate(331,181)"/>
<path d="M0 0 C0.33 0.66 0.66 1.32 1 2 C1.99 2.33 2.98 2.66 4 3 C2.68 6.3 1.36 9.6 0 13 C-0.66 12.67 -1.32 12.34 -2 12 C-1 3.42857143 -1 3.42857143 0 0 Z " fill="#FBFDED" transform="translate(98,144)"/>
<path d="M0 0 C2.33333333 0.33333333 4.66666667 0.66666667 7 1 C8.19625 1.12375 9.3925 1.2475 10.625 1.375 C14.06301639 2.0116697 16.15453535 3.01679736 19 5 C14.83326479 6.79341438 11.25336659 5.01173384 7.25 3.5625 C6.20392578 3.19801758 6.20392578 3.19801758 5.13671875 2.82617188 C3.42114902 2.22689752 1.71010285 1.61470115 0 1 C0 0.67 0 0.34 0 0 Z " fill="#F8FEDA" transform="translate(160,391)"/>
<path d="M0 0 C5.62586863 1.76813014 8.77840563 5.16760844 12 10 C8.67465243 11.10844919 6.37817425 10.84454356 3 10 C4.32 9.34 5.64 8.68 7 8 C6.4946875 7.50628906 5.989375 7.01257813 5.46875 6.50390625 C4.49421875 5.54291016 4.49421875 5.54291016 3.5 4.5625 C2.8503125 3.92441406 2.200625 3.28632813 1.53125 2.62890625 C0 1 0 1 0 0 Z " fill="#FBFEDB" transform="translate(214,137)"/>
<path d="M0 0 C4.16138263 -0.08159574 7.9472484 0.01751476 12 1 C12.33 2.65 12.66 4.3 13 6 C12.34 5.731875 11.68 5.46375 11 5.1875 C7.35060933 3.74294953 3.67754567 2.37128822 0 1 C0 0.67 0 0.34 0 0 Z " fill="#F7FDD6" transform="translate(185,322)"/>
<path d="M0 0 C0 0.66 0 1.32 0 2 C-1.64333504 3.03789581 -3.31243867 4.03567924 -5 5 C-5.66 5.66 -6.32 6.32 -7 7 C-6.01 7.66 -5.02 8.32 -4 9 C-6.31 9.66 -8.62 10.32 -11 11 C-10.45418801 7.20450741 -8.94590705 5.69020705 -6.0625 3.25 C-5.35222656 2.63640625 -4.64195312 2.0228125 -3.91015625 1.390625 C-2 0 -2 0 0 0 Z " fill="#FAFDE6" transform="translate(220,168)"/>
<path d="M0 0 C-2.53578604 2.02862883 -5.0714959 4.05617535 -7.625 6.0625 C-9.5457726 7.62944607 -11.29572385 9.20602511 -13 11 C-12.67 9.35 -12.34 7.7 -12 6 C-11.34 6 -10.68 6 -10 6 C-10 5.34 -10 4.68 -10 4 C-9.34 4 -8.68 4 -8 4 C-7.67 3.01 -7.34 2.02 -7 1 C-4.53721199 -0.231394 -2.7204945 -0.07159196 0 0 Z " fill="#F8FED3" transform="translate(182,133)"/>
<path d="M0 0 C3.3 0 6.6 0 10 0 C10 1.66666667 10 3.33333333 10 5 C8.51800098 4.55090939 7.03944764 4.09043436 5.5625 3.625 C4.73878906 3.36976563 3.91507813 3.11453125 3.06640625 2.8515625 C1 2 1 2 0 0 Z " fill="#F6FDCE" transform="translate(166,286)"/>
<path d="M0 0 C5.44567686 1.02862785 10.11817117 2.24614784 15 5 C13.1875 5.625 13.1875 5.625 11 6 C10.01 5.34 9.02 4.68 8 4 C5.94290404 3.75944532 5.94290404 3.75944532 3.8125 3.875 C2.554375 3.91625 1.29625 3.9575 0 4 C-0.33 3.34 -0.66 2.68 -1 2 C-0.67 1.34 -0.34 0.68 0 0 Z " fill="#F8FEDA" transform="translate(218,58)"/>
<path d="M0 0 C2.27024968 -0.08097324 4.54132075 -0.13917704 6.8125 -0.1875 C8.07707031 -0.22230469 9.34164062 -0.25710938 10.64453125 -0.29296875 C14 0 14 0 17 3 C11.39 2.34 5.78 1.68 0 1 C0 0.67 0 0.34 0 0 Z " fill="#F8FDD7" transform="translate(168,319)"/>
<path d="M0 0 C-1.01320313 0.70576172 -1.01320313 0.70576172 -2.046875 1.42578125 C-3.38492188 2.35970703 -3.38492188 2.35970703 -4.75 3.3125 C-5.63171875 3.92738281 -6.5134375 4.54226562 -7.421875 5.17578125 C-9.64432169 6.74833065 -11.83192994 8.35368512 -14 10 C-14 8.68 -14 7.36 -14 6 C-9.92857143 3 -9.92857143 3 -7 3 C-7 2.34 -7 1.68 -7 1 C-3.375 -1.125 -3.375 -1.125 0 0 Z " fill="#FAFEE0" transform="translate(123,126)"/>
<path d="M0 0 C0 0.99 0 1.98 0 3 C0.99 3 1.98 3 3 3 C3.66 4.32 4.32 5.64 5 7 C0.76570244 5.68938409 -3.07407404 4.05643741 -7 2 C-7 1.67 -7 1.34 -7 1 C-2.25 0 -2.25 0 0 0 Z " fill="#F8FED8" transform="translate(226,240)"/>
<path d="M0 0 C0.66 0.33 1.32 0.66 2 1 C2 1.99 2 2.98 2 4 C4.31 2.68 6.62 1.36 9 0 C10 1 10 1 10.09765625 2.84765625 C10.04882812 5.92382812 10.04882812 5.92382812 10 9 C9.67 9 9.34 9 9 9 C9 7.02 9 5.04 9 3 C8.13375 3.495 8.13375 3.495 7.25 4 C5 5 5 5 1 5 C1 4.01 1 3.02 1 2 C0.34 1.67 -0.32 1.34 -1 1 C-0.67 0.67 -0.34 0.34 0 0 Z " fill="#FCFEF1" transform="translate(289,187)"/>
<path d="M0 0 C7.75 -0.125 7.75 -0.125 10 1 C10.72159424 2.64363134 11.39351421 4.31050386 12 6 C7.96479403 4.41037341 3.98188718 2.71767682 0 1 C0 0.67 0 0.34 0 0 Z " fill="#F8FED9" transform="translate(221,155)"/>
<path d="M0 0 C3.87132028 0.57352893 6.08172796 2.48704352 9 5 C8.67 5.66 8.34 6.32 8 7 C5.33333333 5.66666667 2.66666667 4.33333333 0 3 C0 2.01 0 1.02 0 0 Z " fill="#FCFEF0" transform="translate(266,152)"/>
<path d="M0 0 C4.27845131 0.38030678 7.79488752 0.80706038 10.93359375 3.9140625 C12.39345364 5.89555099 13.74492767 7.88360352 15 10 C12.57363241 8.84824323 10.72680236 7.77712824 8.625 6.0625 C5.8864157 3.91075519 3.15001662 2.46512401 0 1 C0 0.67 0 0.34 0 0 Z " fill="#F8FED6" transform="translate(272,147)"/>
<path d="M0 0 C4.41309542 3.15221101 7.00793014 6.55463907 10 11 C9.67 11.66 9.34 12.32 9 13 C7.82739389 11.71372289 6.6620717 10.42080217 5.5 9.125 C4.8503125 8.40570313 4.200625 7.68640625 3.53125 6.9453125 C2 5 2 5 2 3 C1.34 3 0.68 3 0 3 C0 2.01 0 1.02 0 0 Z " fill="#FAFEDC" transform="translate(228,250)"/>
<path d="M0 0 C0.66 0.33 1.32 0.66 2 1 C0.90344712 2.31886772 -0.20253423 3.62990057 -1.3125 4.9375 C-1.92738281 5.66839844 -2.54226563 6.39929688 -3.17578125 7.15234375 C-5 9 -5 9 -8 10 C-6.34908222 5.70761377 -3.26245434 3.1206085 0 0 Z " fill="#F9FEE1" transform="translate(296,321)"/>
<path d="M0 0 C0.66 0 1.32 0 2 0 C3.62109375 1.64453125 3.62109375 1.64453125 5.4375 3.8125 C7.54463676 6.31102718 9.65241398 8.7242056 12 11 C6.79011272 9.36260685 3.38840584 6.44623886 0.6875 1.6875 C0.460625 1.130625 0.23375 0.57375 0 0 Z " fill="#F9FEDB" transform="translate(298,179)"/>
<path d="M0 0 C0.66 0.33 1.32 0.66 2 1 C3.87056791 1.2275015 5.74685958 1.40962811 7.625 1.5625 C8.62789062 1.64628906 9.63078125 1.73007813 10.6640625 1.81640625 C11.43492187 1.87699219 12.20578125 1.93757812 13 2 C13 2.33 13 2.66 13 3 C5.08 3.495 5.08 3.495 -3 4 C-2.01 2.68 -1.02 1.36 0 0 Z " fill="#FDFEF3" transform="translate(203,151)"/>
<path d="M0 0 C2.64 0 5.28 0 8 0 C7.01 0.66 6.02 1.32 5 2 C6.32 3.32 7.64 4.64 9 6 C5.59687262 4.94124926 2.98646769 3.99097846 0 2 C0 1.34 0 0.68 0 0 Z " fill="#FBFDE7" transform="translate(199,55)"/>
<path d="M0 0 C1 3 1 3 0.07421875 5.4453125 C-0.38339844 6.32960938 -0.84101563 7.21390625 -1.3125 8.125 C-1.98732422 9.45917969 -1.98732422 9.45917969 -2.67578125 10.8203125 C-4 13 -4 13 -6 14 C-5.67 12.35 -5.34 10.7 -5 9 C-4.34 9 -3.68 9 -3 9 C-2.87625 8.2575 -2.7525 7.515 -2.625 6.75 C-2.04513299 4.19858515 -1.26291261 2.2732427 0 0 Z " fill="#F9FEDB" transform="translate(304,306)"/>
<path d="M0 0 C0.99 0.495 0.99 0.495 2 1 C2.8515625 3.72265625 2.8515625 3.72265625 3.625 7.0625 C3.88539063 8.16722656 4.14578125 9.27195313 4.4140625 10.41015625 C4.60742188 11.26480469 4.80078125 12.11945313 5 13 C1.7524839 9.90009827 0.03365487 7.99281857 -0.125 3.3125 C-0.08375 2.219375 -0.0425 1.12625 0 0 Z " fill="#F9FEDC" transform="translate(163,222)"/>
<path d="M0 0 C2.97 0.495 2.97 0.495 6 1 C6.33 1.99 6.66 2.98 7 4 C8.29355827 5.37195574 9.62298702 6.71182656 11 8 C6.40378078 6.5129879 3.53027653 4.20187872 0 1 C0 0.67 0 0.34 0 0 Z " fill="#F9FDE0" transform="translate(136,377)"/>
<path d="M0 0 C0.99 0 1.98 0 3 0 C3.33 3.3 3.66 6.6 4 10 C3.01 8.68 2.02 7.36 1 6 C0.67 6 0.34 6 0 6 C0 4.02 0 2.04 0 0 Z " fill="#F9FED9" transform="translate(122,176)"/>
<path d="M0 0 C3.81684226 1.55500981 6.19195732 4.03595495 9 7 C4.71193127 6.52354792 2.73352513 5.34097516 0 2 C0 1.34 0 0.68 0 0 Z " fill="#F9FEDC" transform="translate(276,232)"/>
<path d="M0 0 C3 0 3 0 4.625 1.25 C6.1368362 3.17415516 6.58791279 4.60989418 7 7 C4.13302508 5.71480435 2.02392288 4.42870746 0 2 C0 1.34 0 0.68 0 0 Z " fill="#F9FEE1" transform="translate(168,227)"/>
<path d="M0 0 C0.66 0 1.32 0 2 0 C2 0.66 2 1.32 2 2 C2.99 2.33 3.98 2.66 5 3 C5.33 4.98 5.66 6.96 6 9 C2.91910327 6.22719294 1.31224548 3.93673644 0 0 Z " fill="#F8FDD8" transform="translate(138,218)"/>
<path d="M0 0 C0.66 0.33 1.32 0.66 2 1 C1.67 1.66 1.34 2.32 1 3 C3.64 2.67 6.28 2.34 9 2 C7 4 7 4 5.0546875 4.1953125 C3.03645833 4.13020833 1.01822917 4.06510417 -1 4 C-1.33 3.01 -1.66 2.02 -2 1 C-1.34 0.67 -0.68 0.34 0 0 Z " fill="#FBFDEB" transform="translate(268,206)"/>
<path d="M0 0 C2.97 0.495 2.97 0.495 6 1 C6 1.66 6 2.32 6 3 C6.66 3 7.32 3 8 3 C8 3.66 8 4.32 8 5 C2.25 3.125 2.25 3.125 0 2 C0 1.34 0 0.68 0 0 Z " fill="#F7FDD2" transform="translate(248,175)"/>
<path d="M0 0 C0 0.66 0 1.32 0 2 C-3.6678852 3.96189209 -6.87248551 5.39301257 -11 6 C-8.24029211 2.78034079 -4.3526723 0 0 0 Z " fill="#FAFEE0" transform="translate(144,74)"/>
<path d="M0 0 C0.66 0 1.32 0 2 0 C2.474375 0.639375 2.94875 1.27875 3.4375 1.9375 C4.9091365 4.28372963 4.9091365 4.28372963 8 5 C8 5.99 8 6.98 8 8 C4.63820226 6.55922954 2.40843732 4.75249979 0 2 C0 1.34 0 0.68 0 0 Z " fill="#FAFEE1" transform="translate(148,232)"/>
<path d="M0 0 C0.33 0 0.66 0 1 0 C1 2.97 1 5.94 1 9 C-0.37562854 7.71034824 -1.70766393 6.37310707 -3 5 C-3 4.34 -3 3.68 -3 3 C-2.34 3 -1.68 3 -1 3 C-0.67 2.01 -0.34 1.02 0 0 Z " fill="#F6FDCF" transform="translate(325,196)"/>
<path d="M0 0 C0.99 0.99 1.98 1.98 3 3 C2.34 4.98 1.68 6.96 1 9 C0.34 8.67 -0.32 8.34 -1 8 C-0.67 5.36 -0.34 2.72 0 0 Z " fill="#FCFDF0" transform="translate(110,329)"/>
<path d="M0 0 C-5.75 4 -5.75 4 -8 4 C-8 3.34 -8 2.68 -8 2 C-7.34 2 -6.68 2 -6 2 C-6 1.34 -6 0.68 -6 0 C-3 -1 -3 -1 0 0 Z " fill="#F7FDD9" transform="translate(288,332)"/>
<path d="" fill="#FFFFFF" transform="translate(0,0)"/>
</svg>
