<?xml version="1.0" encoding="UTF-8"?>
<svg version="1.1" xmlns="http://www.w3.org/2000/svg" width="469" height="463">
<path d="M0 0 C-3.234298 10.16231134 -13.9637166 17.28662995 -23 22 C-30.36854701 25.91718735 -37.27836771 30.04082102 -44 35 C-44.969375 35.70125 -45.93875 36.4025 -46.9375 37.125 C-49.22345102 39.20313729 -50.46724385 41.33623575 -52 44 C-51.46109131 43.72736328 -50.92218262 43.45472656 -50.36694336 43.17382812 C-47.89744246 41.93470898 -45.41781838 40.71731175 -42.9375 39.5 C-42.08994141 39.07074219 -41.24238281 38.64148438 -40.36914062 38.19921875 C-35.28797206 35.72729891 -31.65835474 34.44721636 -26 35 C-26.495 35.99 -26.495 35.99 -27 37 C-25.9378125 36.71125 -24.875625 36.4225 -23.78125 36.125 C-22.35430151 35.74948724 -20.92721038 35.3745162 -19.5 35 C-18.80390625 34.80921875 -18.1078125 34.6184375 -17.390625 34.421875 C-12.4587081 33.14322988 -8.09419909 32.81642526 -3 33 C-4.14544077 36.43632231 -5.2711508 37.33471585 -8 39.625 C-8.721875 40.23601562 -9.44375 40.84703125 -10.1875 41.4765625 C-10.785625 41.97929687 -11.38375 42.48203125 -12 43 C-12.33 43.33 -12.66 43.66 -13 44 C-14.73776264 44.29385524 -16.47639203 44.58338084 -18.21875 44.84863281 C-30.35598377 46.75606946 -39.15902234 51.39904888 -48 60 C-48.52851563 60.51304687 -49.05703125 61.02609375 -49.6015625 61.5546875 C-50.74860431 62.6889132 -51.87702962 63.8419368 -53 65 C-54 64 -54 64 -54.09765625 61.71484375 C-54.08605469 60.79832031 -54.07445312 59.88179687 -54.0625 58.9375 C-54.05347656 58.01839844 -54.04445313 57.09929687 -54.03515625 56.15234375 C-54.02355469 55.44207031 -54.01195312 54.73179687 -54 54 C-55.0029542 55.14324839 -56.00229027 56.28967191 -57 57.4375 C-57.556875 58.07558594 -58.11375 58.71367187 -58.6875 59.37109375 C-60.10457065 60.78113179 -60.10457065 60.78113179 -60 62 C-58.68 61.01 -57.36 60.02 -56 59 C-55 60 -55 60 -54.90234375 61.84765625 C-54.93489583 63.8984375 -54.96744792 65.94921875 -55 68 C-53.85371665 67.00051588 -52.70801147 66.00036869 -51.5625 65 C-50.82644531 64.36191406 -50.09039062 63.72382813 -49.33203125 63.06640625 C-47.82305465 61.72930638 -46.33894011 60.36337855 -44.88671875 58.96484375 C-33.68032498 48.33208623 -21.14467256 45.42828495 -6.3359375 43.109375 C12.48310302 40.14480342 30.19893127 36.90349582 45 24 C45.66 24 46.32 24 47 24 C45.86916417 31.54479533 38.23853432 38.25617716 32.625 42.9375 C25.74046039 47.90378327 17.78150993 49.77348596 9.75048828 52.15795898 C8.88407715 52.41520752 8.01766602 52.67245605 7.125 52.9375 C6.25601074 53.19539307 5.38702148 53.45328613 4.49169922 53.71899414 C-14.52439069 58.83405104 -14.52439069 58.83405104 -28 72 C-27.28457031 72.06316406 -26.56914062 72.12632812 -25.83203125 72.19140625 C-11.75978044 73.92085493 -2.2429342 80.69057339 7 91 C7.33 91.33 7.66 91.66 8 92 C-1.38807887 80.75713351 -9.81768299 74.8362005 -24 71 C-23.62321604 68.41792168 -23.26722299 67.24849241 -21.328125 65.4453125 C-20.29945313 64.79175781 -20.29945313 64.79175781 -19.25 64.125 C-18.57453125 63.67382812 -17.8990625 63.22265625 -17.203125 62.7578125 C-15 62 -15 62 -12.55859375 62.5859375 C-9.56890097 64.23825626 -7.31058149 66.17198457 -4.8125 68.5 C-3.95269531 69.2940625 -3.09289062 70.088125 -2.20703125 70.90625 C-0.78748783 72.2529319 0.61640763 73.61640763 2 75 C4.57061311 75.64767793 4.57061311 75.64767793 7 76 C5.18777466 73.9375006 5.18777466 73.9375006 3 72 C2.01 72 1.02 72 0 72 C-2.48046875 69.8125 -2.48046875 69.8125 -5.1875 67 C-6.53908203 65.6078125 -6.53908203 65.6078125 -7.91796875 64.1875 C-8.60503906 63.465625 -9.29210937 62.74375 -10 62 C-7.62383589 58.43575383 -6.78498128 58.3760596 -2.765625 57.359375 C-1.71632813 57.09382813 -0.66703125 56.82828125 0.4140625 56.5546875 C2.06535156 56.15636719 2.06535156 56.15636719 3.75 55.75 C4.83539063 55.46898437 5.92078125 55.18796875 7.0390625 54.8984375 C8.09351563 54.63804687 9.14796875 54.37765625 10.234375 54.109375 C11.19569336 53.87186523 12.15701172 53.63435547 13.14746094 53.38964844 C17.49257497 52.79611865 20.80671438 53.2719863 24.5546875 55.55859375 C25.32039062 56.17863281 26.08609375 56.79867187 26.875 57.4375 C27.65617188 58.05496094 28.43734375 58.67242187 29.2421875 59.30859375 C29.82226562 59.86675781 30.40234375 60.42492187 31 61 C31 61.66 31 62.32 31 63 C28.03 63.495 28.03 63.495 25 64 C28.01969054 67.42231594 30.8594385 69.55858077 34.875 71.75 C40.22536417 74.82565845 43.81410452 78.72533862 47 84 C47 84.66 47 85.32 47 86 C43.44219804 85.39009109 40.3171411 84.4216319 37 83 C39.39362785 87.24675909 41.78968352 90.97807474 45.375 94.3125 C51.47120976 100.15470102 56.80753294 107.33898237 57 116 C56.36384766 115.41992188 56.36384766 115.41992188 55.71484375 114.828125 C51.69695194 111.2605903 47.74596229 108.51826571 43 106 C43.33 106.66 43.66 107.32 44 108 C44.06950541 109.54023996 44.08452357 111.08334988 44.0625 112.625 C44.05347656 113.44226563 44.04445313 114.25953125 44.03515625 115.1015625 C44.01775391 116.04128906 44.01775391 116.04128906 44 117 C44.94875 117.309375 45.8975 117.61875 46.875 117.9375 C50 119 50 119 52 120 C52 121.32 52 122.64 52 124 C50.53469521 125.23736849 49.06292113 126.46953858 47.53515625 127.62890625 C45.22340631 129.69359895 44.18055429 132.17978697 43 135 C44.41750563 134.88490339 45.83401169 134.75746342 47.25 134.625 C48.43335938 134.52058594 48.43335938 134.52058594 49.640625 134.4140625 C52.09537697 133.98326166 53.79465101 133.12090052 56 132 C56.99 132 57.98 132 59 132 C58.48040157 136.40084123 56.95955815 138.7036005 54.125 142.0625 C53.07699219 143.31740234 53.07699219 143.31740234 52.0078125 144.59765625 C51.34523438 145.39042969 50.68265625 146.18320312 50 147 C48.99033363 148.3260285 47.98654733 149.65668241 47 151 C47.62648438 150.6390625 48.25296875 150.278125 48.8984375 149.90625 C49.71570313 149.4421875 50.53296875 148.978125 51.375 148.5 C52.18710937 148.0359375 52.99921875 147.571875 53.8359375 147.09375 C56 146 56 146 58 146 C56.94724227 153.86797882 50.6197107 159.77236214 45 165 C44.06027344 165.94746094 44.06027344 165.94746094 43.1015625 166.9140625 C37.02324424 172.78492962 30.43156216 177.02701135 23.1574707 181.28173828 C22.0295813 181.94278564 22.0295813 181.94278564 20.87890625 182.6171875 C19.86679077 183.19895752 19.86679077 183.19895752 18.83422852 183.79248047 C16.95432214 184.93751576 16.95432214 184.93751576 15.48095703 186.54858398 C12.956077 189.02309961 9.56782212 189.95649584 6.3125 191.1875 C5.2596582 191.59645508 5.2596582 191.59645508 4.18554688 192.01367188 C2.45975765 192.68285545 0.73023041 193.34238475 -1 194 C0.07636719 193.61328125 1.15273438 193.2265625 2.26171875 192.828125 C28.41126179 183.47804687 28.41126179 183.47804687 39 183 C38.9296875 184.75390625 38.9296875 184.75390625 38 187 C35.70299295 188.54052606 33.59678697 189.74535366 31.125 190.9375 C30.42189697 191.28377441 29.71879395 191.63004883 28.99438477 191.98681641 C21.32478285 195.58804884 13.32634838 197.59427977 5.10107422 199.49511719 C2.03647656 200.23153224 -0.97712183 201.10879289 -4 202 C-3.15695312 202.12117187 -2.31390625 202.24234375 -1.4453125 202.3671875 C0.19824219 202.61855469 0.19824219 202.61855469 1.875 202.875 C3.51082031 203.11863281 3.51082031 203.11863281 5.1796875 203.3671875 C8 204 8 204 10 206 C-0.17364458 215.28897983 -18.05262436 214.28708114 -30.75 214.125 C-32.14061846 214.11493717 -33.53124408 214.10581723 -34.921875 214.09765625 C-38.28143819 214.07432595 -41.64062175 214.0415923 -45 214 C-44.11957031 214.44730469 -43.23914063 214.89460937 -42.33203125 215.35546875 C-41.17058594 215.96003906 -40.00914062 216.56460938 -38.8125 217.1875 C-37.66394531 217.77917969 -36.51539063 218.37085938 -35.33203125 218.98046875 C-31.98547059 221.00880622 -29.56158248 223.05249172 -27 226 C-27 226.66 -27 227.32 -27 228 C-27.79921875 227.9278125 -28.5984375 227.855625 -29.421875 227.78125 C-48.130262 226.20025955 -65.27780313 227.49580135 -82.99609375 233.9140625 C-85.33408973 234.75926781 -87.57803748 235.46443089 -90 236 C-89.17786739 225.72334243 -82.00899927 218.37702273 -74.4921875 211.80859375 C-72.66796031 210.32208792 -70.83419209 208.84723166 -68.9921875 207.3828125 C-65.75960913 204.80856602 -62.59122094 202.16970884 -59.4375 199.5 C-58.89343506 199.04077148 -58.34937012 198.58154297 -57.78881836 198.10839844 C-53.42999569 194.41016185 -49.20215621 190.58075048 -45.0234375 186.6796875 C-43 185 -43 185 -40 184 C-39.04975021 187.69541586 -39.04975021 190.30458414 -40 194 C-38.35 194 -36.7 194 -35 194 C-35.33 195.65 -35.66 197.3 -36 199 C-35.01 199 -34.02 199 -33 199 C-32.814375 197.63875 -32.814375 197.63875 -32.625 196.25 C-32.07890323 193.41029677 -31.42736197 191.47409409 -30 189 C-31.65 188.67 -33.3 188.34 -35 188 C-34.61012115 178.32391569 -31.16248363 172.51617337 -25.41015625 165.12890625 C-22.99929508 162.12863441 -22.99929508 162.12863441 -21.30859375 159.15234375 C-20 157 -20 157 -18 156 C-18.185625 155.443125 -18.37125 154.88625 -18.5625 154.3125 C-19 152 -19 152 -18.5546875 149.8359375 C-17.74097765 145.67570265 -17.64776006 141.49390976 -17.48242188 137.26367188 C-17.21623884 132.21623884 -17.21623884 132.21623884 -15 130 C-13.68485396 131.45594755 -12.37296283 132.91483579 -11.0625 134.375 C-9.96615234 135.59316406 -9.96615234 135.59316406 -8.84765625 136.8359375 C-7 139 -7 139 -6 141 C-5.071875 140.814375 -4.14375 140.62875 -3.1875 140.4375 C0 140 0 140 3 141 C3.33 139.68 3.66 138.36 4 137 C3.01 137.66 2.02 138.32 1 139 C0.01 138.34 -0.98 137.68 -2 137 C-3.98 137.99 -3.98 137.99 -6 139 C-6.53109375 138.39671875 -7.0621875 137.7934375 -7.609375 137.171875 C-8.31578125 136.37265625 -9.0221875 135.5734375 -9.75 134.75 C-10.44609375 133.96109375 -11.1421875 133.1721875 -11.859375 132.359375 C-13.93683287 129.99707346 -13.93683287 129.99707346 -16.16015625 128.01953125 C-18.2771511 125.69578107 -18.89898072 123.95939757 -19.6875 120.9375 C-20.03361328 119.65166016 -20.03361328 119.65166016 -20.38671875 118.33984375 C-20.58910156 117.56769531 -20.79148437 116.79554688 -21 116 C-21.33 115.01 -21.66 114.02 -22 113 C-21.67 112.34 -21.34 111.68 -21 111 C-22.65 111 -24.3 111 -26 111 C-25.505 112.155 -25.01 113.31 -24.5 114.5 C-22.98326969 119.0429684 -22.66434384 123.43126729 -22.625 128.1875 C-22.61146484 128.86425781 -22.59792969 129.54101562 -22.58398438 130.23828125 C-22.62489885 134.87525522 -23.66185184 138.0226739 -26 142 C-26.66 142 -27.32 142 -28 142 C-29.26171875 140.42578125 -29.26171875 140.42578125 -30.6875 138.3125 C-32.82629104 135.2992279 -34.62876803 133.42295243 -37.8125 131.5625 C-40.17289468 130.05475891 -40.87657285 129.42836481 -41.6640625 126.6953125 C-41.90966305 124.44280459 -42.03453346 122.26440802 -42 120 C-43.15037471 121.6009131 -44.29514816 123.20585225 -45.4375 124.8125 C-46.07558594 125.70582031 -46.71367187 126.59914063 -47.37109375 127.51953125 C-50.5900781 132.42134195 -50.57390379 137.89122053 -51.07421875 143.57617188 C-51.6921796 149.5410652 -52.94836191 154.10223476 -57.5 158.3125 C-63.12211102 162.10742494 -69.45932265 161.4355612 -76 161 C-79.75601127 160.2354628 -83.36877248 159.22253752 -87 158 C-87.24363281 158.721875 -87.48726562 159.44375 -87.73828125 160.1875 C-91.4248018 168.40513094 -99.44891077 175.64158926 -107.703125 179.1484375 C-116.94150347 182.63135559 -125.51485819 184.79405672 -135 181 C-132.64046906 178.64046906 -131.22104383 178.50858587 -128 178 C-129.78229225 176.03009804 -131.26708834 174.85373734 -133.625 173.5625 C-136 172 -136 172 -136.8125 169.8125 C-136.874375 169.214375 -136.93625 168.61625 -137 168 C-131.25 168.875 -131.25 168.875 -129 170 C-121.03574395 170.69701524 -113.71735574 170.70342366 -107 166 C-97.82450665 158.12339681 -92.73305983 146.10733659 -91.76953125 134.13671875 C-91.6363567 132.19940593 -91.52517003 130.26038983 -91.44140625 128.3203125 C-91.29574219 127.55460937 -91.15007812 126.78890625 -91 126 C-90.01 125.34 -89.02 124.68 -88 124 C-91.465 124.99 -91.465 124.99 -95 126 C-94.01 127.98 -94.01 127.98 -93 130 C-95.64 130.99 -98.28 131.98 -101 133 C-101 133.66 -101 134.32 -101 135 C-103.40545638 136.20272819 -104.94996953 136.10071472 -107.625 136.0625 C-108.44226563 136.05347656 -109.25953125 136.04445312 -110.1015625 136.03515625 C-111.04128906 136.01775391 -111.04128906 136.01775391 -112 136 C-112.33 137.65 -112.66 139.3 -113 141 C-113.99 141 -114.98 141 -116 141 C-116 141.99 -116 142.98 -116 144 C-117.98 143.67 -119.96 143.34 -122 143 C-121.01 146.465 -121.01 146.465 -120 150 C-126.76335802 149.49274815 -131.78172225 146.33502921 -136.375 141.5 C-139.44394523 136.7785458 -140.27206936 132.79219348 -140.5625 127.1875 C-140.7790563 123.26905683 -141.03674789 119.48269691 -141.75 115.625 C-142.07943803 110.84814855 -141.10562576 108.28645244 -139 104 C-137.515 103.505 -137.515 103.505 -136 103 C-135.95101562 103.91523438 -135.90203125 104.83046875 -135.8515625 105.7734375 C-135.77679688 106.96195312 -135.70203125 108.15046875 -135.625 109.375 C-135.55539063 110.55835938 -135.48578125 111.74171875 -135.4140625 112.9609375 C-135.29782654 116.10562319 -135.29782654 116.10562319 -133 118 C-130.89179203 117.6814823 -130.89179203 117.6814823 -129 117 C-128.97421875 116.28714844 -128.9484375 115.57429688 -128.921875 114.83984375 C-128.54233742 108.43083418 -127.65098718 104.2998201 -124 99 C-123.34 99 -122.68 99 -122 99 C-122.01160156 99.77085937 -122.02320313 100.54171875 -122.03515625 101.3359375 C-122.04417969 102.33882813 -122.05320313 103.34171875 -122.0625 104.375 C-122.07410156 105.37273437 -122.08570313 106.37046875 -122.09765625 107.3984375 C-122.18006602 109.98432453 -122.18006602 109.98432453 -121 112 C-116.43325506 111.13202256 -113.7096377 108.68449319 -111 105 C-110.06168543 102.74482336 -109.37704873 100.5073169 -108.71875 98.15625 C-108 96 -108 96 -105.875 93 C-103.97666078 89.96265724 -103.78747834 89.02543964 -103.625 85.625 C-103.37261181 81.90073526 -102.65321392 80.22295737 -100.1875 77.4375 C-97.00882138 73.66989755 -96.01599555 69.85085257 -95 65.125 C-93.05050521 56.21846443 -90.00599173 48.18034759 -82 43 C-80.86381878 46.40854365 -81.46613973 47.58831285 -82.51953125 50.8828125 C-83.42382695 54.86759517 -83.14710873 58.93816441 -83 63 C-81.68 63 -80.36 63 -79 63 C-79.10699219 62.32195312 -79.21398437 61.64390625 -79.32421875 60.9453125 C-80.46456228 52.09232298 -79.4763183 45.13410119 -74.25 37.75 C-64.04624961 25.32043151 -48.98255524 20.88080043 -34.46044922 15.23486328 C-25.46411732 11.72932284 -8.78298615 0 0 0 Z M-63 65 C-62 67 -62 67 -62 67 Z M11 76 C11 76.66 11 77.32 11 78 C10.01 78.495 10.01 78.495 9 79 C9.66 80.32 10.32 81.64 11 83 C11.66 83 12.32 83 13 83 C13.77242269 81.16299211 13.77242269 81.16299211 14 79 C12.64555699 77.22809091 12.64555699 77.22809091 11 76 Z M-58 82 C-61.20187872 85.53027653 -63.5129879 88.40378078 -65 93 C-62.525 93.495 -62.525 93.495 -60 94 C-60.26369259 101.08374176 -61.26303428 106.10323892 -66.4375 111.1875 C-71.69687084 115.44106416 -76.34522112 116.31629177 -83 116 C-81.60240095 119.54518884 -81.60240095 119.54518884 -80 123 C-79.34 123 -78.68 123 -78 123 C-78.33 121.35 -78.66 119.7 -79 118 C-75.7 118 -72.4 118 -69 118 C-69 116.68 -69 115.36 -69 114 C-67.63875 113.566875 -67.63875 113.566875 -66.25 113.125 C-65.1775 112.75375 -64.105 112.3825 -63 112 C-62.28328125 111.76023437 -61.5665625 111.52046875 -60.828125 111.2734375 C-58.72561342 110.12542201 -58.72561342 110.12542201 -58.53125 107.53125 C-58.5209375 106.5309375 -58.510625 105.530625 -58.5 104.5 C-58.20950239 98.33251232 -56.63586014 93.54143621 -54 88 C-55.65 88.66 -57.3 89.32 -59 90 C-58.34 87.36 -57.68 84.72 -57 82 C-57.33 82 -57.66 82 -58 82 Z M-84 89 C-85.32176485 89.90325616 -86.63215066 90.82317903 -87.9375 91.75 C-88.66839844 92.26046875 -89.39929688 92.7709375 -90.15234375 93.296875 C-92.20805399 95.19177915 -92.62669176 96.27425729 -93 99 C-87.8218625 97.97383835 -87.8218625 97.97383835 -84 94.5625 C-82.66342113 91.94394094 -82.66342113 91.94394094 -84 89 Z M18 90 C19 93 19 93 19 93 Z M-29 92 C-26.44722581 94.79233071 -24.77639718 95.48967606 -21 96 C-21 95.34 -21 94.68 -21 94 C-11.70390267 95.46780484 -3.27028963 97.3128881 5.42578125 101.01171875 C8.00721416 102.17920472 8.00721416 102.17920472 11 102 C1.04831338 95.04237383 -9.21066794 91.79690678 -21.3125 91.9375 C-22.42334961 91.94426758 -22.42334961 91.94426758 -23.55664062 91.95117188 C-25.37112899 91.96287825 -27.18557534 91.98081102 -29 92 Z M10 95 C11 97 11 97 11 97 Z M11 97 C11.33 97.99 11.66 98.98 12 100 C12 99.01 12 98.02 12 97 C11.67 97 11.34 97 11 97 Z M13 100 C12.34 101.32 11.68 102.64 11 104 C13.475 105.485 13.475 105.485 16 107 C15.34 104.69 14.68 102.38 14 100 C13.67 100 13.34 100 13 100 Z M21 102 C21.33 102.99 21.66 103.98 22 105 C22.66 105.33 23.32 105.66 24 106 C23.67 104.68 23.34 103.36 23 102 C22.34 102 21.68 102 21 102 Z M-10 106 C-9 108 -9 108 -9 108 Z M23 107 C24 109 24 109 24 109 Z M-8 110 C-8 110.99 -8 111.98 -8 113 C-8.99 113.495 -8.99 113.495 -10 114 C-7.525 114.99 -7.525 114.99 -5 116 C-5.34444881 113.52733235 -5.34444881 113.52733235 -6 111 C-6.66 110.67 -7.32 110.34 -8 110 Z M22 110 C21.34 112.97 20.68 115.94 20 119 C20.99 119 21.98 119 23 119 C23.33 119.99 23.66 120.98 24 122 C24 120.35 24 118.7 24 117 C23.34 117 22.68 117 22 117 C22.33 114.69 22.66 112.38 23 110 C22.67 110 22.34 110 22 110 Z M-68 117 C-68 117.66 -68 118.32 -68 119 C-67.34 119 -66.68 119 -66 119 C-66 118.34 -66 117.68 -66 117 C-66.66 117 -67.32 117 -68 117 Z M22 123 C23 125 23 125 23 125 Z M21 125 C22 127 22 127 22 127 Z M-69 127 C-68 129 -68 129 -68 129 Z M20 127 C19.34 128.98 18.68 130.96 18 133 C18.99 133.99 19.98 134.98 21 136 C21.68493373 133.14221967 21.68493373 133.14221967 22 130 C21.34 129.01 20.68 128.02 20 127 Z M19 136 C18.01 138.97 17.02 141.94 16 145 C17.32 144.67 18.64 144.34 20 144 C20.33 144.66 20.66 145.32 21 146 C21.66 144.35 22.32 142.7 23 141 C22.01 140.67 21.02 140.34 20 140 C19.67 138.68 19.34 137.36 19 136 Z M-76 137 C-78.53164317 139.90494176 -79.6673488 142.55802423 -80.6875 146.25 C-80.93886719 147.14203125 -81.19023437 148.0340625 -81.44921875 148.953125 C-81.63097656 149.62859375 -81.81273437 150.3040625 -82 151 C-79.49641128 150.51792644 -79.49641128 150.51792644 -77 149 C-75.39260777 144.94324817 -74.7363237 141.35065901 -75 137 C-75.33 137 -75.66 137 -76 137 Z M19 147 C17.39092892 149.37612865 17.39092892 149.37612865 16 152 C16.33 152.66 16.66 153.32 17 154 C18.60907108 151.62387135 18.60907108 151.62387135 20 149 C19.67 148.34 19.34 147.68 19 147 Z M-84 153 C-83 155 -83 155 -83 155 Z M14 155 C13.67 155.99 13.34 156.98 13 158 C13.66 158.33 14.32 158.66 15 159 C13.54724894 162.42271192 11.68027886 164.39604561 8.9375 166.875 C6.13330536 169.58284799 5.09473987 170.66841046 4 174.5 C4 175.325 4 176.15 4 177 C7.87460798 175.74337038 9.9860255 174.60395437 12 171 C12 169.68 12 168.36 12 167 C13.75 164.859375 13.75 164.859375 16 162.75 C17.11375 161.69039062 17.11375 161.69039062 18.25 160.609375 C19.11625 159.81273437 19.11625 159.81273437 20 159 C19.38125 158.71125 18.7625 158.4225 18.125 158.125 C16 157 16 157 14 155 Z M-17 158 C-16.34 161.3 -15.68 164.6 -15 168 C-14.071875 167.938125 -13.14375 167.87625 -12.1875 167.8125 C-9 168 -9 168 -7.125 169.5 C-6.75375 169.995 -6.3825 170.49 -6 171 C-4.35 169.35 -2.7 167.7 -1 166 C-1.33 165.34 -1.66 164.68 -2 164 C-4.475 165.485 -4.475 165.485 -7 167 C-7.66 165.68 -8.32 164.36 -9 163 C-10.65 163.66 -12.3 164.32 -14 165 C-14.66 162.69 -15.32 160.38 -16 158 C-16.33 158 -16.66 158 -17 158 Z M-1 179 C-1.66 179.66 -2.32 180.32 -3 181 C-2.34 181 -1.68 181 -1 181 C-1 182.32 -1 183.64 -1 185 C-1.76763672 185.37318359 -1.76763672 185.37318359 -2.55078125 185.75390625 C-5.14129713 187.07188801 -7.68266588 188.47045491 -10.23022461 189.86914062 C-16.37225812 193.22170875 -22.22825936 196.09916052 -29 198 C-29 198.33 -29 198.66 -29 199 C-26.56152549 198.88602456 -24.12486826 198.75929026 -21.6875 198.625 C-20.99720703 198.5940625 -20.30691406 198.563125 -19.59570312 198.53125 C-15.93009211 198.31875081 -14.12099208 198.08066139 -11 196 C-11.66 195.67 -12.32 195.34 -13 195 C-11.57107422 194.11248047 -11.57107422 194.11248047 -10.11328125 193.20703125 C-8.84613668 192.40919948 -7.57922175 191.61100292 -6.3125 190.8125 C-5.68666016 190.42513672 -5.06082031 190.03777344 -4.41601562 189.63867188 C-0.42937542 187.113104 2.78631707 184.4594713 6 181 C3.69 180.34 1.38 179.68 -1 179 Z " fill="#F4FEBD" transform="translate(281,115)"/>
<path d="M0 0 C0.495 1.485 0.495 1.485 1 3 C-11.25506759 10.91901016 -23.87183478 14.91522678 -38.1484375 17.32421875 C-39.08945312 17.54722656 -40.03046875 17.77023437 -41 18 C-41.33 18.66 -41.66 19.32 -42 20 C-44.3125 20.25 -44.3125 20.25 -47 20 C-48.66796875 17.984375 -48.66796875 17.984375 -50 16 C-50.94359375 16.144375 -51.8871875 16.28875 -52.859375 16.4375 C-60.97707324 17.61114312 -68.7752689 18.27568931 -77 18 C-76.34 16.02 -75.68 14.04 -75 12 C-76.32 12 -77.64 12 -79 12 C-79.33 9.36 -79.66 6.72 -80 4 C-80.47050781 4.48210937 -80.94101563 4.96421875 -81.42578125 5.4609375 C-82.04839844 6.09257812 -82.67101562 6.72421875 -83.3125 7.375 C-83.92738281 8.00148438 -84.54226562 8.62796875 -85.17578125 9.2734375 C-87 11 -87 11 -90 13 C-90.33 13.99 -90.66 14.98 -91 16 C-92.77734375 17.421875 -92.77734375 17.421875 -94.9375 18.75 C-95.64777344 19.19859375 -96.35804688 19.6471875 -97.08984375 20.109375 C-98.03537109 20.55023438 -98.03537109 20.55023438 -99 21 C-99.66 20.67 -100.32 20.34 -101 20 C-97.34148491 16.65756985 -93.67395372 13.32543637 -90 10 C-89.21753906 9.28972656 -88.43507812 8.57945312 -87.62890625 7.84765625 C-86.94699219 7.23792969 -86.26507813 6.62820313 -85.5625 6 C-84.96566406 5.46375 -84.36882812 4.9275 -83.75390625 4.375 C-81.92596242 2.94195718 -80.10785287 1.96358988 -78 1 C-77.04975021 4.69541586 -77.04975021 7.30458414 -78 11 C-76.35 11 -74.7 11 -73 11 C-73.33 12.65 -73.66 14.3 -74 16 C-73.01 16 -72.02 16 -71 16 C-70.87625 15.05125 -70.7525 14.1025 -70.625 13.125 C-70 10 -70 10 -68 8 C-68 9.65 -68 11.3 -68 13 C-67.32453125 12.77183594 -66.6490625 12.54367187 -65.953125 12.30859375 C-65.06109375 12.02113281 -64.1690625 11.73367188 -63.25 11.4375 C-62.36828125 11.14746094 -61.4865625 10.85742188 -60.578125 10.55859375 C-58 10 -58 10 -54 11 C-57.3 12.32 -60.6 13.64 -64 15 C-62.04081032 14.94008594 -60.08248471 14.85132862 -58.125 14.75 C-57.03445313 14.70359375 -55.94390625 14.6571875 -54.8203125 14.609375 C-53.88960938 14.40828125 -52.95890625 14.2071875 -52 14 C-50.87283789 12.14721636 -50.87283789 12.14721636 -50 10 C-47.6875 8.26171875 -47.6875 8.26171875 -45 6.6875 C-44.113125 6.15511719 -43.22625 5.62273437 -42.3125 5.07421875 C-41.549375 4.71972656 -40.78625 4.36523438 -40 4 C-39.34 4.33 -38.68 4.66 -38 5 C-38.33 5.66 -38.66 6.32 -39 7 C-37.68 7.33 -36.36 7.66 -35 8 C-35 7.34 -35 6.68 -35 6 C-32.03 5.34 -29.06 4.68 -26 4 C-26 3.34 -26 2.68 -26 2 C-25.01 2.33 -24.02 2.66 -23 3 C-24.64909481 6.29818961 -28.27085964 6.870756 -31.5625 8.125 C-32.27341797 8.40214844 -32.98433594 8.67929687 -33.71679688 8.96484375 C-35.47546496 9.64942596 -37.23743424 10.32551635 -39 11 C-37.92363281 10.61328125 -36.84726562 10.2265625 -35.73828125 9.828125 C-10.17882327 0.69008971 -10.17882327 0.69008971 0 0 Z " fill="#FAFEE3" transform="translate(319,298)"/>
<path d="M0 0 C0.495 1.485 0.495 1.485 1 3 C-5.99180287 7.70168381 -10.46479137 9.16735703 -19 9 C-19.33 9.99 -19.66 10.98 -20 12 C-22.31 12 -24.62 12 -27 12 C-27 12.66 -27 13.32 -27 14 C-32.38490641 14.91657981 -37.54230189 15.11138159 -43 15 C-42 13 -42 13 -40.18994141 12.26977539 C-39.03244385 11.93707642 -39.03244385 11.93707642 -37.8515625 11.59765625 C-37.01109375 11.34693359 -36.170625 11.09621094 -35.3046875 10.83789062 C-33.52648041 10.32335111 -31.74783735 9.81031574 -29.96875 9.29882812 C-29.12570312 9.04681641 -28.28265625 8.79480469 -27.4140625 8.53515625 C-26.6401416 8.312229 -25.8662207 8.08930176 -25.06884766 7.85961914 C-22.78804563 6.91193163 -21.67380837 5.78124877 -20 4 C-13.56414018 1.53116197 -6.83340809 0.56011542 0 0 Z " fill="#F4FDC5" transform="translate(319,298)"/>
<path d="M0 0 C5.4014952 2.52861204 10.360175 5.96488775 12.9375 11.5 C13.96842507 14.89598846 14.25763113 17.47904122 14 21 C10 19 10 19 8.1875 17.9375 C5.19087279 16.6532312 2.22236424 16.37181126 -1 16 C-1 18.64 -1 21.28 -1 24 C-2.52342979 21.06195683 -3.92770717 18.13439441 -5 15 C-4.67 14.34 -4.34 13.68 -4 13 C-5.65 13 -7.3 13 -9 13 C-8.67 14.98 -8.34 16.96 -8 19 C-8.66 18.67 -9.32 18.34 -10 18 C-10.6875 14.5 -10.6875 14.5 -11 11 C-10 10 -10 10 -6.83984375 9.90234375 C-4.90818359 9.91974609 -4.90818359 9.91974609 -2.9375 9.9375 C-1.64714844 9.94652344 -0.35679687 9.95554688 0.97265625 9.96484375 C1.97167969 9.97644531 2.97070312 9.98804688 4 10 C4 9.01 4 8.02 4 7 C3.34 7 2.68 7 2 7 C1.34 4.69 0.68 2.38 0 0 Z M7 8 C8 10 8 10 8 10 Z M9 12 C9 12.99 9 13.98 9 15 C8.01 15.495 8.01 15.495 7 16 C9.475 16.99 9.475 16.99 12 18 C11.65555119 15.52733235 11.65555119 15.52733235 11 13 C10.34 12.67 9.68 12.34 9 12 Z " fill="#FAFEE0" transform="translate(264,213)"/>
<path d="M0 0 C-1.41622136 4.5286148 -3.92151748 7.37682939 -7.25 10.625 C-7.94802734 11.34042969 -7.94802734 11.34042969 -8.66015625 12.0703125 C-11.82202298 15.2060481 -14.93639098 17.20864573 -19 19 C-19 17.68 -19 16.36 -19 15 C-22.3 14.67 -25.6 14.34 -29 14 C-26.6058338 12.4038892 -24.59036581 11.31062232 -21.98046875 10.1953125 C-21.20509766 9.85886719 -20.42972656 9.52242187 -19.63085938 9.17578125 C-18.01467651 8.48073219 -16.39750148 7.78798522 -14.77929688 7.09765625 C-11.17840756 5.53101624 -7.79047974 3.97544458 -4.55078125 1.7421875 C-2 0 -2 0 0 0 Z " fill="#F4FEBD" transform="translate(281,115)"/>
<path d="M0 0 C-2 2 -2 2 -4.6015625 2.1953125 C-5.59929687 2.17210937 -6.59703125 2.14890625 -7.625 2.125 C-9.12933594 2.09792969 -9.12933594 2.09792969 -10.6640625 2.0703125 C-11.43492187 2.04710937 -12.20578125 2.02390625 -13 2 C-12.505 2.78375 -12.01 3.5675 -11.5 4.375 C-10 7 -10 7 -10 9 C-9.34 9 -8.68 9 -8 9 C-8.66 7.35 -9.32 5.7 -10 4 C-9 3 -9 3 -6.93359375 2.90234375 C-5.69802734 2.91974609 -5.69802734 2.91974609 -4.4375 2.9375 C-3.61121094 2.94652344 -2.78492188 2.95554688 -1.93359375 2.96484375 C-1.29550781 2.97644531 -0.65742188 2.98804688 0 3 C0.33 2.01 0.66 1.02 1 0 C3.0625 -0.6875 3.0625 -0.6875 5 -1 C5 2.31739056 4.57088077 5.46431442 4.12109375 8.74609375 C3.99659753 11.06332988 4.32150093 12.79362155 5 15 C3.35 15.66 1.7 16.32 0 17 C0 13.37 0 9.74 0 6 C-2.31 5.67 -4.62 5.34 -7 5 C-6.67 6.98 -6.34 8.96 -6 11 C-10.62 11.33 -15.24 11.66 -20 12 C-18.68 11.01 -17.36 10.02 -16 9 C-15.34721202 6.9999939 -15.34721202 6.9999939 -15.3125 4.875 C-15 1 -15 1 -14 0 C-12.02715358 -0.26149658 -10.04574333 -0.45992624 -8.0625 -0.625 C-6.98097656 -0.72039062 -5.89945313 -0.81578125 -4.78515625 -0.9140625 C-2 -1 -2 -1 0 0 Z M2 3 C2 3.66 2 4.32 2 5 C2.66 5 3.32 5 4 5 C4 4.34 4 3.68 4 3 C3.34 3 2.68 3 2 3 Z M1 13 C2 15 2 15 2 15 Z " fill="#FAFEDF" transform="translate(211,229)"/>
<path d="M0 0 C0.99 0.33 1.98 0.66 3 1 C-6.32848978 11.89381459 -14.48237312 18.57647396 -29 21 C-34.26717288 21.25081776 -38.03401538 20.98639385 -43 19 C-40.64046906 16.64046906 -39.22104383 16.50858587 -36 16 C-36.33 15.01 -36.66 14.02 -37 13 C-35.02 13 -33.04 13 -31 13 C-30.34 14.32 -29.68 15.64 -29 17 C-25.26512223 16.5020163 -23.18762365 16.12508244 -20 14 C-17.67284 13.62599214 -15.33882138 13.29235267 -13 13 C-12.01 12.67 -11.02 12.34 -10 12 C-10 11.34 -10 10.68 -10 10 C-9.21625 9.7525 -8.4325 9.505 -7.625 9.25 C-4.56577414 7.79322578 -4.25063851 7.03726494 -3 4 C-2.02418241 2.64886795 -1.02970259 1.31053056 0 0 Z " fill="#F7FDD6" transform="translate(189,277)"/>
<path d="M0 0 C4.33320395 -0.08772579 8.66617668 -0.14063579 13 -0.1875 C14.22074219 -0.21263672 15.44148438 -0.23777344 16.69921875 -0.26367188 C23.58466644 -0.31949983 28.74838136 0.07323986 35 3 C35.99 3.33 36.98 3.66 38 4 C38 4.66 38 5.32 38 6 C37.01902344 5.71125 36.03804688 5.4225 35.02734375 5.125 C25.44039602 2.4412287 16.95930898 1.48486333 7 2 C10.465 3.485 10.465 3.485 14 5 C14 4.34 14 3.68 14 3 C20.04889405 2.74710838 24.92681587 3.5158255 30.6875 5.3125 C31.78674805 5.63250977 31.78674805 5.63250977 32.90820312 5.95898438 C36.98050029 7.18911923 40.43686725 8.60349454 44 11 C40.07239489 12.3092017 38.77463463 11.32881352 35 9.75 C29.08242795 7.36570329 23.18955838 5.52568273 17 4 C17.66 5.98 18.32 7.96 19 10 C18.01 10 17.02 10 16 10 C16 9.34 16 8.68 16 8 C10.76390013 6.07091057 5.46864457 5.01591421 0 4 C0 2.68 0 1.36 0 0 Z " fill="#FBFEE4" transform="translate(246,206)"/>
<path d="M0 0 C1.39195915 4.17587745 -0.17676781 6.13474776 -2 10 C-0.68 9.34 0.64 8.68 2 8 C1.67 9.32 1.34 10.64 1 12 C2.32 12.33 3.64 12.66 5 13 C3.68 13.33 2.36 13.66 1 14 C1 14.99 1 15.98 1 17 C8.26 16.67 15.52 16.34 23 16 C18.99353882 20.00646118 16.46139996 20.17122981 11 20.25 C4.60022482 20.22126925 -0.95783515 19.03423586 -7 17 C-7.33 17.99 -7.66 18.98 -8 20 C-8.33 19.01 -8.66 18.02 -9 17 C-7.68 16.34 -6.36 15.68 -5 15 C-5.33 14.01 -5.66 13.02 -6 12 C-5.1875 9.625 -5.1875 9.625 -4 7 C-3.62875 6.071875 -3.2575 5.14375 -2.875 4.1875 C-2.441875 3.1046875 -2.441875 3.1046875 -2 2 C-1.34 2 -0.68 2 0 2 C0 1.34 0 0.68 0 0 Z M-4 12 C-3 14 -3 14 -3 14 Z " fill="#F9FDDC" transform="translate(201,256)"/>
<path d="M0 0 C0.76570313 0.62003906 1.53140625 1.24007812 2.3203125 1.87890625 C3.49207031 2.80509766 3.49207031 2.80509766 4.6875 3.75 C5.55761719 4.58724609 5.55761719 4.58724609 6.4453125 5.44140625 C6.4453125 6.10140625 6.4453125 6.76140625 6.4453125 7.44140625 C4.4653125 7.77140625 2.4853125 8.10140625 0.4453125 8.44140625 C4.12089102 12.45112827 7.63498146 14.8947604 12.4453125 17.44140625 C10.4453125 18.44140625 10.4453125 18.44140625 8.45703125 17.875 C3.00401608 15.5379935 -0.26517182 13.42873648 -3.5546875 8.44140625 C-3.5546875 7.45140625 -3.5546875 6.46140625 -3.5546875 5.44140625 C-1.5746875 5.44140625 0.4053125 5.44140625 2.4453125 5.44140625 C2.4453125 4.78140625 2.4453125 4.12140625 2.4453125 3.44140625 C-8.49041293 -0.18516595 -20.7984952 1.61168872 -31.5546875 5.44140625 C-32.2146875 6.10140625 -32.8746875 6.76140625 -33.5546875 7.44140625 C-33.5546875 6.45140625 -33.5546875 5.46140625 -33.5546875 4.44140625 C-27.89312281 2.41941886 -22.17807064 0.72156987 -16.3671875 -0.80859375 C-15.69042969 -0.99583008 -15.01367188 -1.18306641 -14.31640625 -1.37597656 C-8.84635046 -2.77834871 -4.89237214 -2.98479585 0 0 Z " fill="#FBFEE6" transform="translate(305.5546875,170.55859375)"/>
<path d="M0 0 C0.66 0.33 1.32 0.66 2 1 C2 3.64 2 6.28 2 9 C4.64 7.02 7.28 5.04 10 3 C8 7 8 7 6.4375 8.4375 C4.54736879 10.49199044 4.3675753 12.27994277 4 15 C4.66 15 5.32 15 6 15 C6.33 15.99 6.66 16.98 7 18 C5.890625 19.82421875 5.890625 19.82421875 4.25 21.6875 C3.71890625 22.31011719 3.1878125 22.93273437 2.640625 23.57421875 C1 25 1 25 -2 25 C-2.66 25.33 -3.32 25.66 -4 26 C-3.75 23.625 -3.75 23.625 -3 21 C-0.9375 19.6875 -0.9375 19.6875 1 19 C0.41892152 13.40102392 0.41892152 13.40102392 -1 8 C-1.99 7.67 -2.98 7.34 -4 7 C-4.144375 7.5775 -4.28875 8.155 -4.4375 8.75 C-4.95833333 10.83333333 -5.47916667 12.91666667 -6 15 C-6.66 15 -7.32 15 -8 15 C-7.67 12.69 -7.34 10.38 -7 8 C-6.34 8 -5.68 8 -5 8 C-4.731875 7.236875 -4.46375 6.47375 -4.1875 5.6875 C-3.05575888 3.12619116 -2.08776599 1.80307062 0 0 Z " fill="#F5FDC8" transform="translate(224,174)"/>
<path d="M0 0 C0.33 1.32 0.66 2.64 1 4 C1.99 4 2.98 4 4 4 C3.5272932 8.82160935 2.73400513 12.00414635 0 16 C-0.556875 16.928125 -1.11375 17.85625 -1.6875 18.8125 C-2.3371875 19.8953125 -2.3371875 19.8953125 -3 21 C-1.35 21.33 0.3 21.66 2 22 C-0.16264012 25.98381075 -2.71211176 28.88983545 -6 32 C-6.66 31.67 -7.32 31.34 -8 31 C-6.02 29.02 -4.04 27.04 -2 25 C-3.65 24.01 -5.3 23.02 -7 22 C-7.33 22.66 -7.66 23.32 -8 24 C-7.01 24.33 -6.02 24.66 -5 25 C-5.66 26.32 -6.32 27.64 -7 29 C-8.5625 27.8125 -8.5625 27.8125 -10 26 C-9.84693397 23.01521245 -9.39802756 21.46171196 -7.4375 19.1875 C-5.53878293 16.29814794 -5.88269329 14.2772347 -6.02734375 10.90625 C-5.99323826 8.52861014 -5.31114839 6.96672259 -4 5 C-3 7 -3 7 -3 10 C-2.01 10.33 -1.02 10.66 0 11 C0.33 10.01 0.66 9.02 1 8 C0.01 7.34 -0.98 6.68 -2 6 C-1.34 4.02 -0.68 2.04 0 0 Z M-2 13 C-3.60907108 15.37612865 -3.60907108 15.37612865 -5 18 C-4.67 18.66 -4.34 19.32 -4 20 C-2.39092892 17.62387135 -2.39092892 17.62387135 -1 15 C-1.33 14.34 -1.66 13.68 -2 13 Z " fill="#FBFEE3" transform="translate(302,249)"/>
<path d="M0 0 C3.48749314 2.78999451 6.50157221 5.25235831 9 9 C8.67 9.66 8.34 10.32 8 11 C3.125 6.25 3.125 6.25 2 4 C-0.23659548 17.36842913 -0.23659548 17.36842913 3 30 C3 30.99 3 31.98 3 33 C3.9075 32.814375 4.815 32.62875 5.75 32.4375 C9 32 9 32 11.0625 32.6875 C12.0215625 32.8421875 12.0215625 32.8421875 13 33 C15.63624434 31.10770734 15.63624434 31.10770734 18 29 C18.66 29 19.32 29 20 29 C18.49616703 33.21073233 15.79335044 34.83237117 12 37 C11.01 37 10.02 37 9 37 C8.34 36.01 7.68 35.02 7 34 C4.525 34.495 4.525 34.495 2 35 C-4.93623933 25.27064416 -2.84711404 15.28008589 -1.37646484 4.07202148 C-1 2 -1 2 0 0 Z " fill="#FAFEE1" transform="translate(265,245)"/>
<path d="M0 0 C3.87567505 0.5319554 6.07465278 0.85018736 8.578125 3.9609375 C11.00151913 8.1531308 12.28688336 11.08820914 12 16 C11.57589844 15.61328125 11.15179688 15.2265625 10.71484375 14.828125 C6.69695194 11.2605903 2.74596229 8.51826571 -2 6 C-1.67 6.66 -1.34 7.32 -1 8 C-0.93049459 9.54023996 -0.91547643 11.08334988 -0.9375 12.625 C-0.94652344 13.44226563 -0.95554687 14.25953125 -0.96484375 15.1015625 C-0.97644531 15.72804687 -0.98804688 16.35453125 -1 17 C-0.01 17.33 0.98 17.66 2 18 C1.01 18.33 0.02 18.66 -1 19 C-3 17 -3 17 -3.1953125 13.9609375 C-3.17210937 12.77757812 -3.14890625 11.59421875 -3.125 10.375 C-3.10695313 9.18648437 -3.08890625 7.99796875 -3.0703125 6.7734375 C-3.04710937 5.85820312 -3.02390625 4.94296875 -3 4 C-1.68 3.67 -0.36 3.34 1 3 C0.34 3 -0.32 3 -1 3 C-0.67 2.01 -0.34 1.02 0 0 Z " fill="#F8FED2" transform="translate(326,215)"/>
<path d="M0 0 C1.15569567 2.31139135 1.13192579 3.86938589 1.25 6.4375 C1.41787804 8.84159179 1.41787804 8.84159179 2 11 C4.4251788 12.99083177 4.4251788 12.99083177 7 14 C7 14.66 7 15.32 7 16 C8.32 16.33 9.64 16.66 11 17 C11.33 18.98 11.66 20.96 12 23 C11.34 22.29875 10.68 21.5975 10 20.875 C7.77443214 18.58547904 5.42922423 16.975112 2.75 15.25 C0.25889405 13.46127354 -0.82299666 12.57431934 -1.734375 9.6171875 C-1.97255229 7.38252409 -2.07980297 5.24445865 -2 3 C-3.15037471 4.6009131 -4.29514816 6.20585225 -5.4375 7.8125 C-6.07558594 8.70582031 -6.71367187 9.59914062 -7.37109375 10.51953125 C-10.5900781 15.42134195 -10.57390379 20.89122053 -11.07421875 26.57617188 C-11.56245303 31.28887395 -12.4609351 34.88518377 -15 39 C-15.99 39.495 -15.99 39.495 -17 40 C-16.69191406 39.28199219 -16.38382813 38.56398438 -16.06640625 37.82421875 C-15.04682133 35.12399933 -14.43619057 32.64958836 -13.9375 29.8125 C-13.76863281 28.8534375 -13.59976563 27.894375 -13.42578125 26.90625 C-13.02946898 24.20114603 -12.80592097 21.53893693 -12.625 18.8125 C-12.20023752 13.80350849 -10.48989082 10.33722918 -8 6 C-7.34 6 -6.68 6 -6 6 C-6 5.01 -6 4.02 -6 3 C-2.66666667 0 -2.66666667 0 0 0 Z " fill="#FAFEDD" transform="translate(241,232)"/>
<path d="M0 0 C-1.14544077 3.43632231 -2.2711508 4.33471585 -5 6.625 C-5.721875 7.23601562 -6.44375 7.84703125 -7.1875 8.4765625 C-7.785625 8.97929687 -8.38375 9.48203125 -9 10 C-9.33 10.33 -9.66 10.66 -10 11 C-12.67058851 11.14115161 -15.32432238 11.04247107 -18 11 C-18 10.67 -18 10.34 -18 10 C-16.88625 9.896875 -15.7725 9.79375 -14.625 9.6875 C-13.42875 9.460625 -12.2325 9.23375 -11 9 C-10.34 8.01 -9.68 7.02 -9 6 C-8.34 6 -7.68 6 -7 6 C-7 5.01 -7 4.02 -7 3 C-14.6607976 4.11275286 -14.6607976 4.11275286 -21.9375 6.625 C-25 8 -25 8 -29 8 C-29 7.01 -29 6.02 -29 5 C-31.97 5.66 -34.94 6.32 -38 7 C-32.78075939 2.89916809 -29.77580101 1.73939227 -23 2 C-23.33 2.66 -23.66 3.32 -24 4 C-22.9378125 3.71125 -21.875625 3.4225 -20.78125 3.125 C-19.35430151 2.74948724 -17.92721038 2.3745162 -16.5 2 C-15.80390625 1.80921875 -15.1078125 1.6184375 -14.390625 1.421875 C-9.4587081 0.14322988 -5.09419909 -0.18357474 0 0 Z " fill="#FAFDE1" transform="translate(278,148)"/>
<path d="M0 0 C1.95901454 0.11382653 3.9172338 0.24141125 5.875 0.375 C6.96554687 0.44460938 8.05609375 0.51421875 9.1796875 0.5859375 C12 1 12 1 14 3 C3.82635542 12.28897983 -14.05262436 11.28708114 -26.75 11.125 C-28.14061846 11.11493717 -29.53124408 11.10581723 -30.921875 11.09765625 C-34.28143819 11.07432595 -37.64062175 11.0415923 -41 11 C-39.68 11.99 -38.36 12.98 -37 14 C-38.62580966 13.88601335 -40.25067157 13.75844341 -41.875 13.625 C-42.77992188 13.55539062 -43.68484375 13.48578125 -44.6171875 13.4140625 C-47 13 -47 13 -49 11 C-48.67 10.34 -48.34 9.68 -48 9 C-47.00258789 9.01047363 -46.00517578 9.02094727 -44.97753906 9.03173828 C-41.22025244 9.06837717 -37.46298105 9.0910574 -33.70556641 9.10986328 C-32.08997936 9.11982216 -30.47440985 9.13339418 -28.85888672 9.15087891 C-16.74410077 9.27856109 -5.3284608 8.90754019 6.16015625 4.5859375 C8 4 8 4 11 4 C11 3.34 11 2.68 11 2 C9.01432292 2.06510417 7.02864583 2.13020833 5.04296875 2.1953125 C3 2 3 2 0 0 Z " fill="#FBFEE7" transform="translate(277,318)"/>
<path d="M0 0 C0.33 0 0.66 0 1 0 C1.20140476 3.62528568 0.85776765 5.86501708 -1 9 C-1.66 9 -2.32 9 -3 9 C-2.97679687 10.12019531 -2.95359375 11.24039063 -2.9296875 12.39453125 C-2.91092763 13.86718084 -2.89272766 15.33983763 -2.875 16.8125 C-2.85824219 17.55048828 -2.84148437 18.28847656 -2.82421875 19.04882812 C-2.78925372 22.91246426 -2.80602445 24.70903668 -5 28 C-6.65 27.67 -8.3 27.34 -10 27 C-11.97094808 22.07262981 -12.1799928 18.21979128 -12 13 C-13.32 13.99 -14.64 14.98 -16 16 C-14.46990911 12.55729549 -12.5068778 9.81074178 -10 7 C-9.01 6.67 -8.02 6.34 -7 6 C-7.2165625 6.90878906 -7.2165625 6.90878906 -7.4375 7.8359375 C-8.80009636 13.98654607 -9.24088843 19.71013545 -9 26 C-7.68 26 -6.36 26 -5 26 C-5.10699219 25.32195312 -5.21398437 24.64390625 -5.32421875 23.9453125 C-6.45736938 15.14816463 -5.37244747 7.32606473 0 0 Z " fill="#FAFEE2" transform="translate(207,152)"/>
<path d="M0 0 C-1.57157388 11.74544692 -14.72629321 20.62595842 -23 28 C-23.66 27.67 -24.32 27.34 -25 27 C-21.375 21.125 -21.375 21.125 -18 20 C-17.67 19.34 -17.34 18.68 -17 18 C-16.01 17.5359375 -16.01 17.5359375 -15 17.0625 C-12.65391779 16.1108154 -12.65391779 16.1108154 -12 13 C-10.824375 12.319375 -10.824375 12.319375 -9.625 11.625 C-6.64318197 9.77911265 -5.58216235 8.08105299 -4 5 C-5.65 5 -7.3 5 -9 5 C-2.40909091 0 -2.40909091 0 0 0 Z " fill="#F9FDDB" transform="translate(339,261)"/>
<path d="M0 0 C-6.8592065 2.67446125 -13.81536317 4.86903766 -20.875 6.9375 C-28.76176511 9.25631615 -36.38956931 11.87893184 -44 15 C-45.6663512 15.6674548 -47.33291634 16.33437676 -49 17 C-46.47962378 12.29529773 -41.86332887 10.58458549 -37 9 C-35.68 9 -34.36 9 -33 9 C-33 8.34 -33 7.68 -33 7 C-31.49373047 6.63648438 -31.49373047 6.63648438 -29.95703125 6.265625 C-28.57529661 5.92799967 -27.19380338 5.58938543 -25.8125 5.25 C-24.7311377 4.98473511 -24.7311377 4.98473511 -23.62792969 4.71411133 C-17.8845482 3.27953046 -12.27575749 1.54971924 -6.671875 -0.36328125 C-3.94850462 -1.01227156 -2.59134869 -0.95633106 0 0 Z " fill="#F9FEDE" transform="translate(309,161)"/>
<path d="M0 0 C0 3 0 3 -2 6 C-2.61875 6.28875 -3.2375 6.5775 -3.875 6.875 C-7.39898741 8.7406404 -9.52597004 11.53840762 -10.75 15.3125 C-10.8325 15.869375 -10.915 16.42625 -11 17 C-8.36 17.33 -5.72 17.66 -3 18 C-5.6860286 19.79068573 -7.6626589 20.66055791 -10.6875 21.625 C-11.89986328 22.01558594 -11.89986328 22.01558594 -13.13671875 22.4140625 C-13.75160156 22.60742188 -14.36648437 22.80078125 -15 23 C-14.23987134 13.49839169 -8.41706287 7.59762957 -2 1 C-1.34 0.67 -0.68 0.34 0 0 Z " fill="#F8FEDB" transform="translate(206,328)"/>
<path d="M0 0 C3.97638733 2.8718353 6.51530859 5.76682204 9 10 C9 10.66 9 11.32 9 12 C5.44219804 11.39009109 2.3171411 10.4216319 -1 9 C0.32 11.64 1.64 14.28 3 17 C0 17 0 17 -2.1875 15.375 C-4.46170299 12.39500988 -4.3327958 10.66075376 -4 7 C-1.69 7 0.62 7 3 7 C2.505 6.21625 2.01 5.4325 1.5 4.625 C0 2 0 2 0 0 Z " fill="#F9FDDC" transform="translate(319,189)"/>
<path d="M0 0 C2 1.375 2 1.375 4 3 C4 3.66 4 4.32 4 5 C2.80117187 4.89171875 2.80117187 4.89171875 1.578125 4.78125 C-10.54689198 3.75660068 -21.53234648 3.82968849 -33.50244141 6.02050781 C-34.28538574 6.1594043 -35.06833008 6.29830078 -35.875 6.44140625 C-36.57367188 6.57232666 -37.27234375 6.70324707 -37.9921875 6.83813477 C-40.21647385 7.01745162 -41.87818886 6.65146976 -44 6 C-40.43641383 3.62427589 -37.3972217 3.31301713 -33.25 2.875 C-32.47736816 2.79008301 -31.70473633 2.70516602 -30.90869141 2.61767578 C-20.63265651 1.61172949 -10.31158751 1.82073999 0 2 C0 1.34 0 0.68 0 0 Z " fill="#FCFEEB" transform="translate(250,338)"/>
<path d="M0 0 C0.33 0 0.66 0 1 0 C1 1.98 1 3.96 1 6 C1.66 6.33 2.32 6.66 3 7 C3.33 6.34 3.66 5.68 4 5 C3.34 5 2.68 5 2 5 C2.33 4.01 2.66 3.02 3 2 C3 2.66 3 3.32 3 4 C3.66 4 4.32 4 5 4 C4.67 9.94 4.34 15.88 4 22 C3.34 22 2.68 22 2 22 C-0.20604487 16.7054923 -1.13904358 12.57738948 -1.125 6.8125 C-1.12757813 5.74644531 -1.13015625 4.68039063 -1.1328125 3.58203125 C-1 1 -1 1 0 0 Z M2 11 C3 13 3 13 3 13 Z M1 13 C2 15 2 15 2 15 Z " fill="#F9FDE1" transform="translate(301,227)"/>
<path d="M0 0 C-1.40071493 5.29158974 -4.85487245 7.77478044 -9 11 C-8.67 9.68 -8.34 8.36 -8 7 C-9.18078125 7.51691406 -10.3615625 8.03382812 -11.578125 8.56640625 C-13.13516153 9.23236766 -14.69246744 9.89769952 -16.25 10.5625 C-17.41595703 11.07586914 -17.41595703 11.07586914 -18.60546875 11.59960938 C-19.35957031 11.91865234 -20.11367188 12.23769531 -20.890625 12.56640625 C-21.92751465 13.01415405 -21.92751465 13.01415405 -22.98535156 13.47094727 C-25.35070424 14.09209599 -26.71013447 13.77451334 -29 13 C-28.09290283 12.62246582 -28.09290283 12.62246582 -27.16748047 12.23730469 C-24.40055238 11.08137187 -21.63779224 9.91578138 -18.875 8.75 C-17.92367188 8.35425781 -16.97234375 7.95851563 -15.9921875 7.55078125 C-11.60367089 5.69175685 -4.4706754 0 0 0 Z " fill="#FBFEE4" transform="translate(281,115)"/>
<path d="M0 0 C0.99 0.33 1.98 0.66 3 1 C4.52160014 4.6037898 5 7.05220686 5 11 C5.928125 10.773125 6.85625 10.54625 7.8125 10.3125 C11 10 11 10 12.875 11.4375 C13.431875 12.2109375 13.431875 12.2109375 14 13 C15.65 11.68 17.3 10.36 19 9 C17.61122646 12.35620271 16.08322035 14.07298728 13 16 C12.34 16 11.68 16 11 16 C11 14.68 11 13.36 11 12 C8.69 12 6.38 12 4 12 C2.02 8.535 2.02 8.535 0 5 C-1.65 6.65 -3.3 8.3 -5 10 C-3.66511872 6.40608886 -2.03977277 3.24509304 0 0 Z " fill="#FAFEDD" transform="translate(261,272)"/>
<path d="M0 0 C-0.46588495 5.70709064 -1.93757784 9.15939723 -5 14 C-7.64 14 -10.28 14 -13 14 C-13 12.02 -13 10.04 -13 8 C-11.68 7.34 -10.36 6.68 -9 6 C-9 5.34 -9 4.68 -9 4 C-7.35 3.67 -5.7 3.34 -4 3 C-4 2.34 -4 1.68 -4 1 C-2 0 -2 0 0 0 Z M-3 3 C-4.32176485 3.90325616 -5.63215066 4.82317903 -6.9375 5.75 C-7.66839844 6.26046875 -8.39929688 6.7709375 -9.15234375 7.296875 C-11.20805399 9.19177915 -11.62669176 10.27425729 -12 13 C-6.8218625 11.97383835 -6.8218625 11.97383835 -3 8.5625 C-1.66342113 5.94394094 -1.66342113 5.94394094 -3 3 Z " fill="#F9FED9" transform="translate(200,201)"/>
<path d="M0 0 C0.33 1.32 0.66 2.64 1 4 C0.01 4.66 -0.98 5.32 -2 6 C-4.26807979 9.40211968 -4.70164258 12.97217489 -5 17 C-4.34 17.66 -3.68 18.32 -3 19 C-2.875 21.625 -2.875 21.625 -3 24 C-3.33 23.34 -3.66 22.68 -4 22 C-6.52733235 21.34444881 -6.52733235 21.34444881 -9 21 C-8.25878872 12.06008434 -6.18374749 6.54749734 0 0 Z " fill="#F8FDD6" transform="translate(255,282)"/>
<path d="M0 0 C2.475 0.495 2.475 0.495 5 1 C5.33 1.99 5.66 2.98 6 4 C6.66 4 7.32 4 8 4 C8 7.96 8 11.92 8 16 C6.68 15.01 5.36 14.02 4 13 C4 11.68 4 10.36 4 9 C3.01 8.34 2.02 7.68 1 7 C0.3125 3.375 0.3125 3.375 0 0 Z M5 9 C6 12 6 12 6 12 Z " fill="#F5FDCD" transform="translate(294,196)"/>
<path d="M0 0 C0.99 0.99 1.98 1.98 3 3 C1.47987167 6.45483712 -0.62614635 9.31495464 -2.87890625 12.31640625 C-4.18551179 14.11886765 -4.18551179 14.11886765 -5 17 C-6.62332967 18.38576923 -8.28724465 19.72641268 -10 21 C-10.66 20.67 -11.32 20.34 -12 20 C-10.68 18.68 -9.36 17.36 -8 16 C-8.99 15.01 -9.98 14.02 -11 13 C-7.7 10.69 -4.4 8.38 -1 6 C-1.33 4.68 -1.66 3.36 -2 2 C-1.34 1.34 -0.68 0.68 0 0 Z " fill="#FAFEE1" transform="translate(293,281)"/>
<path d="M0 0 C0.66 0.33 1.32 0.66 2 1 C2 3.64 2 6.28 2 9 C4.64 7.02 7.28 5.04 10 3 C8.24686304 6.50627392 6.58369151 9.09334705 4 12 C3.34 12 2.68 12 2 12 C1.01 9.69 0.02 7.38 -1 5 C-4.33949284 9.63039069 -4.33949284 9.63039069 -6 15 C-6.66 15 -7.32 15 -8 15 C-7.67 12.69 -7.34 10.38 -7 8 C-6.34 8 -5.68 8 -5 8 C-4.731875 7.236875 -4.46375 6.47375 -4.1875 5.6875 C-3.05575888 3.12619116 -2.08776599 1.80307062 0 0 Z " fill="#FBFEE3" transform="translate(224,174)"/>
<path d="M0 0 C1.6674228 3.3348456 0.07185314 6.61420509 -1 10 C-2.67408931 14.03303334 -4.00936141 17.00468071 -8 19 C-11.75 19.1875 -11.75 19.1875 -15 19 C-15 17.35 -15 15.7 -15 14 C-14.34 14.66 -13.68 15.32 -13 16 C-9.18221184 15.56808861 -7.03132724 13.63536498 -4.39453125 10.8984375 C-1.98448443 7.61753343 -0.98992345 3.90759258 0 0 Z " fill="#F9FED8" transform="translate(173,211)"/>
<path d="M0 0 C0.66 0 1.32 0 2 0 C2.33 1.32 2.66 2.64 3 4 C2.24203125 4.45439453 2.24203125 4.45439453 1.46875 4.91796875 C-0.49389482 6.18356313 -2.28965977 7.40716406 -4 9 C-4.04063832 10.66617115 -4.042721 12.33388095 -4 14 C-8.97297297 18 -8.97297297 18 -12 18 C-12 16.68 -12 15.36 -12 14 C-10.35 14 -8.7 14 -7 14 C-7.33 12.35 -7.66 10.7 -8 9 C-7.50628906 8.68546875 -7.01257813 8.3709375 -6.50390625 8.046875 C-5.86324219 7.61890625 -5.22257812 7.1909375 -4.5625 6.75 C-3.92441406 6.33234375 -3.28632813 5.9146875 -2.62890625 5.484375 C-0.70097943 3.72751123 -0.38520564 2.53910197 0 0 Z " fill="#FBFEE8" transform="translate(284,286)"/>
<path d="M0 0 C0.33 0.66 0.66 1.32 1 2 C0.29251048 3.65080888 -0.42296003 5.29877549 -1.18359375 6.92578125 C-2.0780843 9.19838642 -2.47084034 11.34466145 -2.875 13.75 C-3.56234883 17.22822209 -3.69308582 17.75885314 -6.625 20.0625 C-7.800625 20.5265625 -7.800625 20.5265625 -9 21 C-8 19 -7 17 -6 15 C-5.8980875 13.58454858 -5.81750044 12.16750929 -5.75 10.75 C-5.27045884 5.71888177 -3.52443015 3.52443015 0 0 Z " fill="#FBFEE3" transform="translate(183,190)"/>
<path d="M0 0 C-0.47202486 4.24822374 -2.96655518 6.19989709 -6 9 C-6.33 8.34 -6.66 7.68 -7 7 C-8.0725 7.61875 -9.145 8.2375 -10.25 8.875 C-11.21099609 9.41833984 -11.21099609 9.41833984 -12.19140625 9.97265625 C-13.53356317 10.73504776 -14.86389474 11.51833684 -16.1875 12.3125 C-18.49108152 13.1862723 -19.67968752 12.66775038 -22 12 C-21.05898438 11.55269531 -20.11796875 11.10539063 -19.1484375 10.64453125 C-17.89041125 10.03429463 -16.63261071 9.42359253 -15.375 8.8125 C-14.44880859 8.37454102 -14.44880859 8.37454102 -13.50390625 7.92773438 C-10.22615581 6.32336179 -7.43564207 4.64999476 -4.6640625 2.26171875 C-2 0 -2 0 0 0 Z " fill="#F9FEDC" transform="translate(328,139)"/>
<path d="M0 0 C0.66 0 1.32 0 2 0 C1.67 2.97 1.34 5.94 1 9 C0.34 8.34 -0.32 7.68 -1 7 C-1.33 10.63 -1.66 14.26 -2 18 C-2.99 18 -3.98 18 -5 18 C-4.74319906 10.89945397 -4.06612857 5.90244471 0 0 Z " fill="#F9FDDF" transform="translate(157,214)"/>
<path d="M0 0 C0.99 0 1.98 0 3 0 C3.14285714 7.42857143 3.14285714 7.42857143 2 11 C3.32 10.34 4.64 9.68 6 9 C5.34 10.32 4.68 11.64 4 13 C3.01 13 2.02 13 1 13 C1 9.7 1 6.4 1 3 C-3.66551875 8.36697707 -3.66551875 8.36697707 -8 14 C-7.55946315 9.15409462 -5.25494123 5.51858133 -2 2 C-1.34 2 -0.68 2 0 2 C0 1.34 0 0.68 0 0 Z " fill="#FAFEDE" transform="translate(226,166)"/>
<path d="M0 0 C0.33 0.99 0.66 1.98 1 3 C2.32 3 3.64 3 5 3 C4.35252304 5.78290579 3.49963903 8.38846559 2.5 11.0625 C0.71012315 16.30116395 0.29816867 21.49930215 0 27 C-0.99 26.67 -1.98 26.34 -3 26 C-2.34 26 -1.68 26 -1 26 C-1.04640625 25.23816406 -1.0928125 24.47632813 -1.140625 23.69140625 C-1.39371396 16.45125422 -0.57673539 11.3231572 3 5 C1.68 5.33 0.36 5.66 -1 6 C-0.67 4.02 -0.34 2.04 0 0 Z " fill="#FDFEEE" transform="translate(223,199)"/>
<path d="M0 0 C0 0.99 0 1.98 0 3 C-0.99 3 -1.98 3 -3 3 C-3 3.99 -3 4.98 -3 6 C-5.97 5.505 -5.97 5.505 -9 5 C-8.34 7.31 -7.68 9.62 -7 12 C-9.97 11.505 -9.97 11.505 -13 11 C-12.01 10.67 -11.02 10.34 -10 10 C-10.33 7.69 -10.66 5.38 -11 3 C-9.02 3 -7.04 3 -5 3 C-5 2.34 -5 1.68 -5 1 C-3.35 0.67 -1.7 0.34 0 0 Z " fill="#FBFDE7" transform="translate(168,253)"/>
<path d="M0 0 C1.2283053 3.68491591 0.78549841 6.03726143 0.25 9.875 C0.09015625 11.08929688 -0.0696875 12.30359375 -0.234375 13.5546875 C-0.99475462 16.97639581 -1.89948586 19.20992314 -4 22 C-4.66 22 -5.32 22 -6 22 C-5.38153536 19.08180761 -4.75551865 16.16558978 -4.125 13.25 C-3.95097656 12.425 -3.77695313 11.6 -3.59765625 10.75 C-3.42363281 9.95078125 -3.24960938 9.1515625 -3.0703125 8.328125 C-2.91320801 7.5949707 -2.75610352 6.86181641 -2.59423828 6.10644531 C-1.97058111 3.89571644 -1.08856601 2.01763516 0 0 Z " fill="#F9FED9" transform="translate(190,168)"/>
<path d="M0 0 C-0.78375 0.763125 -1.5675 1.52625 -2.375 2.3125 C-5.07257717 4.90891805 -5.07257717 4.90891805 -7 8 C-6.18015625 8.10957031 -5.3603125 8.21914062 -4.515625 8.33203125 C-3.43796875 8.49058594 -2.3603125 8.64914063 -1.25 8.8125 C0.35101563 9.03873047 0.35101563 9.03873047 1.984375 9.26953125 C5.05451094 10.01320407 6.66080478 10.92765472 9 13 C8.35933594 12.86722656 7.71867187 12.73445312 7.05859375 12.59765625 C2.05016007 11.57506994 -2.93111794 10.66115853 -8 10 C-7.93993922 8.54052295 -7.8511311 7.08220728 -7.75 5.625 C-7.70359375 4.81289062 -7.6571875 4.00078125 -7.609375 3.1640625 C-7 1 -7 1 -5.140625 -0.3515625 C-3 -1 -3 -1 0 0 Z " fill="#FBFEE2" transform="translate(260,179)"/>
<path d="M0 0 C2.76927835 1.94597938 5.02231089 4.13850897 7.3125 6.625 C4.73145019 6.16409825 3.37806549 5.67827196 1.3125 4 C-0.56064093 2.39757173 -0.56064093 2.39757173 -2.6875 2.8125 C-6.94901487 4.31879877 -6.94901487 4.31879877 -9.6875 7.625 C-8.0375 7.955 -6.3875 8.285 -4.6875 8.625 C-4.6875 8.955 -4.6875 9.285 -4.6875 9.625 C-6.9975 9.295 -9.3075 8.965 -11.6875 8.625 C-11.31071604 6.04292168 -10.95472299 4.87349241 -9.015625 3.0703125 C-3.42979945 -0.47857667 -3.42979945 -0.47857667 0 0 Z " fill="#FBFEE8" transform="translate(268.6875,177.375)"/>
<path d="M0 0 C-0.52258043 4.41026208 -2.06852006 6.78991164 -4.875 10.1875 C-5.92300781 11.47720703 -5.92300781 11.47720703 -6.9921875 12.79296875 C-9 15 -9 15 -12 17 C-11.52451444 12.72062994 -8.93582149 10.93582149 -6 8 C-4.680982 5.33466965 -4.680982 5.33466965 -4 3 C-4.99 2.67 -5.98 2.34 -7 2 C-4.35261084 0.5393715 -3.10551666 0 0 0 Z " fill="#FAFDE0" transform="translate(340,247)"/>
<path d="M0 0 C2.34601486 2.13274079 3.86264449 4.02537789 5 7 C5.125 9.75 5.125 9.75 5 12 C3.8944811 11.06409496 2.79064547 10.12620142 1.6875 9.1875 C1.07261719 8.66542969 0.45773437 8.14335937 -0.17578125 7.60546875 C-1.85424679 6.12827531 -3.43882034 4.59960869 -5 3 C-2.525 3.495 -2.525 3.495 0 4 C0 2.68 0 1.36 0 0 Z " fill="#F9FDDF" transform="translate(333,219)"/>
<path d="M0 0 C-0.1875 1.875 -0.1875 1.875 -1 4 C-2.65249487 4.70105843 -4.32367583 5.35800351 -6 6 C-8.7498777 7.89436019 -11.37907448 9.93187515 -14 12 C-14.66 11.67 -15.32 11.34 -16 11 C-5.83426966 0 -5.83426966 0 0 0 Z " fill="#F8FED8" transform="translate(224,140)"/>
<path d="M0 0 C0.6875 1.6875 0.6875 1.6875 1 4 C-0.89320076 8.10193497 -3.74330835 10.91934573 -7 14 C-7.99 13.67 -8.98 13.34 -10 13 C-9.44570312 12.39671875 -8.89140625 11.7934375 -8.3203125 11.171875 C-7.59585938 10.37265625 -6.87140625 9.5734375 -6.125 8.75 C-5.04605469 7.56664062 -5.04605469 7.56664062 -3.9453125 6.359375 C-2.23064517 4.27973832 -1.07019127 2.45580733 0 0 Z " fill="#F8FDD9" transform="translate(184,268)"/>
<path d="M0 0 C3.4998087 2.21654551 4.88425338 4.00190796 6 8 C6.125 11.3125 6.125 11.3125 6 14 C5.01 14 4.02 14 3 14 C3 13.34 3 12.68 3 12 C1.35 11.67 -0.3 11.34 -2 11 C-2 10.01 -2 9.02 -2 8 C0.475 8.99 0.475 8.99 3 10 C3.1490712 7.7391254 3.1490712 7.7391254 1.5 5 C0 2 0 2 0 0 Z " fill="#FAFEDC" transform="translate(292,210)"/>
<path d="M0 0 C1.32 0.33 2.64 0.66 4 1 C2.375 3.9375 2.375 3.9375 0 7 C-3.25 7.875 -3.25 7.875 -6 8 C-5.75 6.125 -5.75 6.125 -5 4 C-3 2.875 -3 2.875 -1 2 C-0.67 1.34 -0.34 0.68 0 0 Z " fill="#FAFEDB" transform="translate(324,264)"/>
<path d="M0 0 C0.12375 0.639375 0.2475 1.27875 0.375 1.9375 C0.58125 2.618125 0.7875 3.29875 1 4 C1.66 4.33 2.32 4.66 3 5 C2.34 5.66 1.68 6.32 1 7 C1.99 6.67 2.98 6.34 4 6 C4.36923077 11.53846154 4.36923077 11.53846154 2.5 13.875 C1.7575 14.431875 1.7575 14.431875 1 15 C0.67 14.01 0.34 13.02 0 12 C0.33 11.34 0.66 10.68 1 10 C0.34 10 -0.32 10 -1 10 C-1.125 3.375 -1.125 3.375 0 0 Z M2 10 C3 12 3 12 3 12 Z " fill="#FDFEEC" transform="translate(302,212)"/>
<path d="M0 0 C0.66 0 1.32 0 2 0 C2.20367187 0.74636719 2.40734375 1.49273437 2.6171875 2.26171875 C4.4551999 5.90139866 6.5724962 6.88507773 10.125 8.8125 C11.22070312 9.41707031 12.31640625 10.02164063 13.4453125 10.64453125 C14.28835938 11.09183594 15.13140625 11.53914062 16 12 C14 13 14 13 12.01171875 12.43359375 C6.55870358 10.09658725 3.28951568 7.98733023 0 3 C0 2.01 0 1.02 0 0 Z " fill="#F8FED7" transform="translate(302,176)"/>
<path d="M0 0 C0.99 0.33 1.98 0.66 3 1 C5.39254576 1.22560676 7.78928123 1.40848595 10.1875 1.5625 C12.09595703 1.68818359 12.09595703 1.68818359 14.04296875 1.81640625 C15.01878906 1.87699219 15.99460938 1.93757813 17 2 C17 2.33 17 2.66 17 3 C10.27709124 4.68072719 4.41587404 4.56634962 -2 2 C-1.34 1.34 -0.68 0.68 0 0 Z " fill="#FCFEEF" transform="translate(148,294)"/>
<path d="M0 0 C0.33 0.99 0.66 1.98 1 3 C-0.43359375 5.04296875 -0.43359375 5.04296875 -2.4375 7.1875 C-3.09621094 7.90292969 -3.75492187 8.61835938 -4.43359375 9.35546875 C-5.20896484 10.16951172 -5.20896484 10.16951172 -6 11 C-8.475 10.01 -8.475 10.01 -11 9 C-11 8.01 -11 7.02 -11 6 C-10.01 6 -9.02 6 -8 6 C-8 6.66 -8 7.32 -8 8 C-4.88667752 7.33131686 -4.88667752 7.33131686 -3.8125 4.9375 C-3.544375 4.298125 -3.27625 3.65875 -3 3 C-2.34 3 -1.68 3 -1 3 C-0.67 2.01 -0.34 1.02 0 0 Z " fill="#FBFEE3" transform="translate(289,243)"/>
<path d="M0 0 C2.97 0 5.94 0 9 0 C7 1 5 2 3 3 C3 3.66 3 4.32 3 5 C0.59454362 6.20272819 -0.94996953 6.10071472 -3.625 6.0625 C-4.85089844 6.04896484 -4.85089844 6.04896484 -6.1015625 6.03515625 C-7.04128906 6.01775391 -7.04128906 6.01775391 -8 6 C-8 5.67 -8 5.34 -8 5 C-4.535 4.505 -4.535 4.505 -1 4 C-0.67 2.68 -0.34 1.36 0 0 Z " fill="#FCFEEB" transform="translate(177,245)"/>
<path d="M0 0 C0.66 0 1.32 0 2 0 C2.28875 0.763125 2.5775 1.52625 2.875 2.3125 C3.96269013 5.15029308 3.96269013 5.15029308 6 8 C6.125 11.1875 6.125 11.1875 6 14 C3.44806855 12.43591298 2.1816096 11.61086865 1.3125 8.6875 C1.209375 7.800625 1.10625 6.91375 1 6 C0.814375 4.906875 0.62875 3.81375 0.4375 2.6875 C0.293125 1.800625 0.14875 0.91375 0 0 Z M3 7 C4 10 4 10 4 10 Z " fill="#FEFEF3" transform="translate(296,198)"/>
<path d="M0 0 C-1.8125 3 -1.8125 3 -4 6 C-4.99 6 -5.98 6 -7 6 C-7.99 6.495 -7.99 6.495 -9 7 C-8.8125 4.6875 -8.8125 4.6875 -8 2 C-3.84375 -1.28125 -3.84375 -1.28125 0 0 Z " fill="#FBFEE3" transform="translate(229,193)"/>
<path d="M0 0 C0.66 0.33 1.32 0.66 2 1 C0.92173635 2.27513763 -0.16285519 3.54492569 -1.25 4.8125 C-1.85328125 5.52019531 -2.4565625 6.22789062 -3.078125 6.95703125 C-4.93811214 8.9342127 -6.73103544 10.51392197 -9 12 C-9.66 12 -10.32 12 -11 12 C-9.66195697 7.98587091 -7.47584633 7.26994046 -4 5 C-3.34 4.01 -2.68 3.02 -2 2 C-1.34 2 -0.68 2 0 2 C0 1.34 0 0.68 0 0 Z " fill="#FAFEDE" transform="translate(320,148)"/>
<path d="M0 0 C2.0625 2.3125 2.0625 2.3125 4 5 C3.67 5.99 3.34 6.98 3 8 C0.03 6.35 -2.94 4.7 -6 3 C-2 2 -2 2 0 3 C0 2.01 0 1.02 0 0 Z " fill="#FBFDEA" transform="translate(290,210)"/>
<path d="M0 0 C0.66 0.33 1.32 0.66 2 1 C-0.31 3.64 -2.62 6.28 -5 9 C-6.32 8.67 -7.64 8.34 -9 8 C-6.03 5.36 -3.06 2.72 0 0 Z " fill="#F8FDD8" transform="translate(216,319)"/>
<path d="M0 0 C0.33 1.32 0.66 2.64 1 4 C1.99 4 2.98 4 4 4 C3.67 6.31 3.34 8.62 3 11 C2.67 9.68 2.34 8.36 2 7 C0.68 6.67 -0.64 6.34 -2 6 C-1.34 4.02 -0.68 2.04 0 0 Z " fill="#F9FED9" transform="translate(302,249)"/>
<path d="M0 0 C-1.98 0.66 -3.96 1.32 -6 2 C-4.68 3.65 -3.36 5.3 -2 7 C-2.33 7.66 -2.66 8.32 -3 9 C-5.5625 6.75 -5.5625 6.75 -8 4 C-8 1.75 -8 1.75 -7 0 C-3.86650268 -1.04449911 -3.01031744 -0.93423645 0 0 Z " fill="#F7FDD0" transform="translate(281,175)"/>
<path d="M0 0 C0.33 1.32 0.66 2.64 1 4 C-2.1113395 5.00007341 -3.88833588 4.87515553 -7 4 C-8.32 4 -9.64 4 -11 4 C-10.67 3.34 -10.34 2.68 -10 2 C-6.44307323 1.14943055 -4.50729422 0.83090193 -1 2 C-0.67 1.34 -0.34 0.68 0 0 Z " fill="#FBFDE5" transform="translate(285,254)"/>
<path d="M0 0 C0.33 0.66 0.66 1.32 1 2 C0.2754531 3.7125654 -0.45458944 5.42335234 -1.23046875 7.11328125 C-2.27998746 9.68646671 -2.66496043 12.2526755 -3 15 C-3.33 15 -3.66 15 -4 15 C-4.29268781 9.34136895 -4.03522952 5.97777642 -1 1 C-0.67 0.67 -0.34 0.34 0 0 Z " fill="#F6FDD3" transform="translate(183,190)"/>
<path d="M0 0 C1.40907283 2.81814566 0.50872691 4.17277204 -0.4375 7.125 C-0.72496094 8.03507813 -1.01242188 8.94515625 -1.30859375 9.8828125 C-1.53675781 10.58148438 -1.76492187 11.28015625 -2 12 C-2.66 11.34 -3.32 10.68 -4 10 C-3.67800066 6.02867481 -2.16420003 3.29334787 0 0 Z " fill="#F4FCCB" transform="translate(218,175)"/>
<path d="M0 0 C5.75 0.75 5.75 0.75 8 3 C7.01 3.33 6.02 3.66 5 4 C5.33 4.66 5.66 5.32 6 6 C3.5625 5.25 3.5625 5.25 1 4 C0.1875 1.875 0.1875 1.875 0 0 Z " fill="#F9FDE5" transform="translate(144,283)"/>
<path d="M0 0 C0.66 0.33 1.32 0.66 2 1 C1.375 2.9375 1.375 2.9375 0 5 C-3.125 5.75 -3.125 5.75 -6 6 C-6 5.34 -6 4.68 -6 4 C-4.03852126 2.61061923 -2.03833424 1.2739589 0 0 Z " fill="#F8FDD4" transform="translate(279,302)"/>
<path d="M0 0 C1.98 0 3.96 0 6 0 C6 1.65 6 3.3 6 5 C5.01 5.495 5.01 5.495 4 6 C3.67 4.68 3.34 3.36 3 2 C2.01 2.99 1.02 3.98 0 5 C0 3.35 0 1.7 0 0 Z " fill="#F9FED9" transform="translate(202,251)"/>
<path d="M0 0 C0.66 0.33 1.32 0.66 2 1 C2 3.46459429 1.61187038 5.61370553 1 8 C0.01 8.495 0.01 8.495 -1 9 C-1.66 7.02 -2.32 5.04 -3 3 C-2.01 2.01 -1.02 1.02 0 0 Z M-1 4 C-1 4.66 -1 5.32 -1 6 C-0.34 6 0.32 6 1 6 C1 5.34 1 4.68 1 4 C0.34 4 -0.32 4 -1 4 Z " fill="#FCFEEB" transform="translate(214,228)"/>
<path d="M0 0 C1.32 0.33 2.64 0.66 4 1 C2.90081184 1.98475214 1.7954398 2.96260473 0.6875 3.9375 C0.07261719 4.48277344 -0.54226563 5.02804688 -1.17578125 5.58984375 C-3 7 -3 7 -6 8 C-6 7.34 -6 6.68 -6 6 C-5.34 6 -4.68 6 -4 6 C-4 5.34 -4 4.68 -4 4 C-2.68 3.67 -1.36 3.34 0 3 C0 2.01 0 1.02 0 0 Z " fill="#F9FEE0" transform="translate(268,126)"/>
<path d="M0 0 C0.66 0 1.32 0 2 0 C1.8125 2.375 1.8125 2.375 1 5 C-1.5625 6.3125 -1.5625 6.3125 -4 7 C-4 5.68 -4 4.36 -4 3 C-2.35 3 -0.7 3 1 3 C0.67 2.01 0.34 1.02 0 0 Z " fill="#F7FDD6" transform="translate(276,297)"/>
<path d="M0 0 C0.66 0 1.32 0 2 0 C2 0.99 2 1.98 2 3 C2.99 3.33 3.98 3.66 5 4 C5 5.65 5 7.3 5 9 C4.34 8.67 3.68 8.34 3 8 C3 7.34 3 6.68 3 6 C2.34 6 1.68 6 1 6 C0.67 4.02 0.34 2.04 0 0 Z " fill="#F7FCD3" transform="translate(302,210)"/>
<path d="M0 0 C1.13199353 0.9080162 2.25532363 1.82683826 3.375 2.75 C4.00148438 3.26046875 4.62796875 3.7709375 5.2734375 4.296875 C7.08312318 6.08199481 8.00117455 7.67949644 9 10 C7.1875 9.8125 7.1875 9.8125 5 9 C3.00074102 6.15490068 1.54902322 3.1046662 0 0 Z " fill="#FBFEDF" transform="translate(281,200)"/>
<path d="M0 0 C0.66 0.33 1.32 0.66 2 1 C2 2.98 2 4.96 2 7 C0.35 6.67 -1.3 6.34 -3 6 C-3 5.34 -3 4.68 -3 4 C-2.01 4 -1.02 4 0 4 C0 2.68 0 1.36 0 0 Z " fill="#F5FDCB" transform="translate(331,216)"/>
<path d="M0 0 C2.475 0.495 2.475 0.495 5 1 C5.33 2.32 5.66 3.64 6 5 C5.01 5 4.02 5 3 5 C3 4.34 3 3.68 3 3 C2.01 2.67 1.02 2.34 0 2 C0 1.34 0 0.68 0 0 Z " fill="#F3FEBC" transform="translate(276,189)"/>
<path d="M0 0 C-0.56371414 3.26954202 -1.49962266 4.82575883 -4 7 C-4 6.34 -4 5.68 -4 5 C-4.99 4.67 -5.98 4.34 -7 4 C-2.25 0 -2.25 0 0 0 Z " fill="#FAFCEE" transform="translate(328,139)"/>
<path d="M0 0 C1.98 0 3.96 0 6 0 C6.33 0.99 6.66 1.98 7 3 C5.02 3.33 3.04 3.66 1 4 C0.67 2.68 0.34 1.36 0 0 Z " fill="#FBFEE7" transform="translate(152,290)"/>
<path d="M0 0 C0.33 1.32 0.66 2.64 1 4 C-1.31 5.65 -3.62 7.3 -6 9 C-4.47291037 5.56404834 -2.40072955 2.88087546 0 0 Z " fill="#F9FEDB" transform="translate(255,282)"/>
<path d="M0 0 C2 3 2 3 1.625 5.1875 C1.315625 6.0846875 1.315625 6.0846875 1 7 C2.32 6.34 3.64 5.68 5 5 C4.34 6.32 3.68 7.64 3 9 C2.01 9 1.02 9 0 9 C0 6.03 0 3.06 0 0 Z " fill="#FDFEEF" transform="translate(227,170)"/>
<path d="M0 0 C1.31602523 0.61754259 2.62773556 1.24428742 3.9375 1.875 C4.66839844 2.22304688 5.39929688 2.57109375 6.15234375 2.9296875 C8 4 8 4 9 6 C5.21213403 5.4739075 2.82847776 4.61896089 0 2 C0 1.34 0 0.68 0 0 Z " fill="#F9FDE1" transform="translate(241,332)"/>
<path d="M0 0 C0.66 0.33 1.32 0.66 2 1 C1.67 3.97 1.34 6.94 1 10 C0.67 10 0.34 10 0 10 C-0.12375 8.865625 -0.2475 7.73125 -0.375 6.5625 C-0.58125 5.386875 -0.7875 4.21125 -1 3 C-1.66 2.67 -2.32 2.34 -3 2 C-2.01 1.34 -1.02 0.68 0 0 Z " fill="#FCFEEE" transform="translate(240,299)"/>
<path d="M0 0 C0.33 0.99 0.66 1.98 1 3 C-0.98 3.99 -0.98 3.99 -3 5 C-3 4.34 -3 3.68 -3 3 C-5.97 2.505 -5.97 2.505 -9 2 C-9 1.67 -9 1.34 -9 1 C-4.545 0.505 -4.545 0.505 0 0 Z " fill="#FCFEEE" transform="translate(319,298)"/>
<path d="M0 0 C0.99 0 1.98 0 3 0 C2.6875 2.375 2.6875 2.375 2 5 C1.01 5.66 0.02 6.32 -1 7 C-0.67 4.69 -0.34 2.38 0 0 Z " fill="#F7FDD0" transform="translate(273,119)"/>
<path d="M0 0 C2 1.375 2 1.375 4 3 C4 3.66 4 4.32 4 5 C1.36 4.67 -1.28 4.34 -4 4 C-2.68 3.34 -1.36 2.68 0 2 C0 1.34 0 0.68 0 0 Z " fill="#FBFEE1" transform="translate(250,338)"/>
<path d="M0 0 C0.144375 0.598125 0.28875 1.19625 0.4375 1.8125 C0.8872439 3.56150404 1.42892341 5.28677023 2 7 C1.01 8.485 1.01 8.485 0 10 C0 8.68 0 7.36 0 6 C-0.66 6 -1.32 6 -2 6 C-1.125 1.125 -1.125 1.125 0 0 Z " fill="#FBFEEA" transform="translate(299,244)"/>
<path d="M0 0 C4 1 4 1 5.8125 2.875 C6.204375 3.57625 6.59625 4.2775 7 5 C6.67 5.99 6.34 6.98 6 8 C4.02 5.36 2.04 2.72 0 0 Z " fill="#FAFEE6" transform="translate(284,200)"/>
<path d="" fill="#FFFFFF" transform="translate(0,0)"/>
</svg>
