<?xml version="1.0" encoding="iso-8859-1"?>
<!-- Uploaded to: SVG Repo, www.svgrepo.com, Generator: SVG Repo Mixer Tools -->
<svg height="800px" width="800px" version="1.1" id="Layer_1" xmlns="http://www.w3.org/2000/svg" xmlns:xlink="http://www.w3.org/1999/xlink" 
	 viewBox="0 0 512.001 512.001" xml:space="preserve">
<path style="fill:#CFF09E;" d="M496.982,256.922c0,0,1.516-40.816-3.024-57.437c-1.508,13.605-3.024,21.164-6.04,24.188
	c0-1.517,0-15.121-4.542-33.261c-1.508-13.604-4.533-27.209-9.064-39.306c1.507,6.048,1.507,10.589,1.507,15.121
	c-18.137-46.863-131.518-78.606-145.125-71.051c16.63,6.048,31.751,13.605,43.839,21.164h1.517c3.015,1.507,6.04,4.531,9.064,6.048
	c22.678,16.63,43.839,39.297,42.332,68.025c-6.048-9.073-12.097-15.121-21.171-16.628c10.59,40.816,10.59,74.074,3.024,99.767
	c-6.04-18.137-10.58-27.209-15.112-31.743c6.04,54.421-1.516,93.719-25.702,119.421c4.542-15.121,6.048-28.719,6.048-39.306
	c-28.716,42.33-60.467,65.001-96.743,66.515c-13.605,0-27.218-1.516-40.815-6.048c-18.145-6.048-34.775-16.628-49.887-31.743
	c22.678,1.508,45.551-1.176,63.494-12.097c27.53-16.755,40.815-40.816,33.25-45.347c-15.112-7.557-31.743-6.048-48.37,4.531
	c-16.63,9.073-31.743,9.073-46.866-1.507c-9.064-6.048-19.652-15.121-28.716-27.212c0,0,1.507-24.185,10.58-24.185h-3.024h4.533
	c10.58,1.508,21.161,3.024,34.775,7.557c1.507-12.091,0-25.695-9.073-39.3c12.088-12.097,22.677-19.654,31.743-24.194
	c4.54-1.508,6.048-6.04,7.564-10.581c3.015-6.04,1.508-9.064-1.516-12.088c-9.067,0-16.63,0-25.695-1.517
	c-3.024-1.507-7.566-4.531-13.605-9.064l-13.605-13.604l-4.531-3.024l-1.517-1.517l1.517-1.508
	c1.507-10.58,15.828-35.78,27.925-44.844c-24.185,3.015-36.998,5.538-56.652,23.683c-15.121-4.531-34.768-3.024-55.936,6.048l0,0
	c-13.605-6.048-21.635-17.962-26.176-48.188C49.046,89.32,40.453,114.83,40.453,158.67l-4.531,7.557l-1.517,1.507
	c-3.024,4.542-6.04,10.59-10.58,18.147c-6.04,12.09-9.065,21.162-9.065,30.226v9.073l13.598-10.58l0,0
	c-15.465,45.898-13.834,96.057,5.73,140.353c6.406,14.503,14.141,28.254,22.995,41.045l1.508,1.517l1.516,1.507
	c19.646,27.209,45.349,49.887,75.582,68.027c0.211,0.121,0.424,0.242,0.635,0.362c31.216,17.728,66.586,26.84,102.483,27.158
	l31.03,0.275c77.762,0.688,150.091-40.673,188.124-108.502C479.604,347.746,496.982,302.549,496.982,256.922z"/>
<path style="fill:#507C5C;" d="M508.195,195.597c-0.592-2.17-1.668-4.09-3.058-5.709c0.48-2.288,0.427-4.723-0.27-7.124
	c-2.366-8.162-5.188-16.3-8.388-24.192c-18.497-45.606-49.796-84.482-90.517-112.426C364.251,17.52,315.364,2.39,264.592,2.39
	c-30.514,0-60.33,5.436-88.621,16.156c-7.622,2.888-11.461,11.409-8.572,19.032c2.89,7.623,11.406,11.456,19.034,8.572
	c24.936-9.449,51.233-14.24,78.159-14.24c65.19,0,125.148,28.185,166.229,75.334c-35.703-18.128-76.67-27.941-93.329-27.941
	c-5.88,0-10.317,0.943-13.964,2.968c-5.055,2.806-8.006,8.305-7.548,14.069s4.235,10.73,9.669,12.705
	c18.534,6.739,32.56,14.491,41.061,19.807c1.356,0.849,2.835,1.466,4.378,1.836c0.226,0.168,0.447,0.334,0.642,0.48
	c1.511,1.136,3.333,2.502,5.455,3.708c11.155,8.268,19.645,16.432,25.528,24.584c-2.778,0.691-5.339,2.186-7.33,4.363
	c-3.371,3.687-4.648,8.831-3.395,13.667c4.742,18.275,7.361,35.206,7.851,50.681c-3.799-1.573-8.178-1.523-12.044,0.334
	c-5.65,2.714-8.968,8.702-8.277,14.931c2.795,25.174,2.462,46.512-1.046,64.263c-6.088-1.684-12.591,0.689-16.151,5.939
	c-26.456,38.996-54.213,58.64-84.844,60.042c-13.694-0.025-25.088-1.709-35.833-5.29c-4.55-1.517-9.017-3.378-13.39-5.579
	c11.202-2.422,21.235-6.314,30.003-11.651c24.645-15,42.491-37.553,42.435-53.624c-0.027-7.284-3.408-13.477-9.275-16.991
	c-0.322-0.192-0.648-0.372-0.983-0.539c-8.336-4.17-17.143-6.283-26.176-6.283c-12.149,0-24.346,3.792-36.258,11.272
	c-5.787,3.102-10.909,4.611-15.642,4.611c-5.036,0-10.041-1.787-15.3-5.468c-0.09-0.062-0.179-0.122-0.269-0.185
	c-5.744-3.832-13.813-10.134-21.545-19.314c0.252-1.522,0.553-2.995,0.875-4.283c8.022,1.222,16.117,2.762,25.961,6.04
	c4.196,1.399,8.797,0.84,12.535-1.519c3.74-2.359,6.227-6.27,6.773-10.658c1.694-13.586-0.09-26.381-5.306-38.184
	c6.73-5.901,13.177-10.453,19.252-13.589c9.997-3.942,13.478-13.042,15.351-18.588c3.454-7.519,5.116-18.159-4.787-28.065
	c-2.769-2.769-6.524-4.325-10.438-4.325c-7.716,0-13.977,0-20.849-0.948c-1.647-0.999-4.4-2.815-8.764-6.062l-11.56-11.558
	c3.745-9.011,12.95-24.277,20.511-29.943c5.356-4.013,7.343-11.129,4.837-17.335s-8.881-9.954-15.514-9.123
	c-22.92,2.859-38.726,5.609-58.863,22.253c-4.444-0.769-9.077-1.157-13.855-1.157c-8.975,0-18.235,1.337-27.671,3.979
	c5.724-6.105,11.783-11.896,18.159-17.31c6.215-5.275,6.975-14.59,1.699-20.804c-5.274-6.214-14.591-6.975-20.804-1.699
	c-6.757,5.736-13.198,11.846-19.31,18.269c-0.598-2.86-1.169-6.004-1.699-9.535c-0.81-5.396-4.531-9.904-9.676-11.722
	c-5.139-1.817-10.87-0.651-14.894,3.038c-21.15,19.393-30.929,48.098-31.49,92.731l-1.507,2.514l-0.208,0.205
	c-0.706,0.7-1.336,1.469-1.885,2.294c-1.998,3.002-3.811,6.231-5.91,9.97c-1.547,2.756-3.145,5.606-5.039,8.758
	c-0.196,0.326-0.379,0.661-0.549,1.001C3.077,194.384,0,205.052,0,216.107v9.073c0,5.151,2.68,9.892,7.008,12.56
	c-8.081,41.702-3.479,84.555,13.579,123.176c6.714,15.202,14.912,29.833,24.362,43.483c0.496,0.717,1.057,1.389,1.671,2.007
	l2.241,2.243c20.262,27.76,46.913,51.661,79.238,71.055c0.1,0.061,0.204,0.121,0.306,0.179l0.635,0.36
	c32.896,18.683,70.81,28.74,109.641,29.084l31.029,0.275c0.68,0.006,1.364,0.009,2.043,0.009c0.004,0-0.001,0,0.004,0
	c82.656,0,158.946-44.471,199.084-116.051c27.084-48.304,40.844-94.179,40.903-136.363
	C511.939,251.651,513.097,213.54,508.195,195.597z M482.233,256.377c-0.007,0.182-0.01,0.365-0.01,0.546
	c0,37.144-12.494,78.257-37.132,122.202c-34.923,62.281-101.342,100.972-173.339,100.97c-0.592,0-1.188-0.003-1.78-0.007
	l-31.029-0.275c-33.823-0.3-66.785-9.025-95.325-25.233l-0.477-0.272c-29.191-17.537-53.102-39.045-71.064-63.925
	c-0.468-0.649-0.989-1.259-1.557-1.824l-2.031-2.025c-8.082-11.814-15.108-24.437-20.897-37.544
	c-17.902-40.53-19.765-86.584-5.246-129.677c2.08-6.172-0.133-12.978-5.443-16.749c-1.145-0.813-2.376-1.443-3.656-1.892
	c0.968-2.336,2.142-4.884,3.536-7.699c1.987-3.325,3.674-6.335,5.173-9.005c1.483-2.642,2.798-4.989,3.985-6.888l0.382-0.379
	c0.871-0.863,1.629-1.833,2.26-2.885l4.53-7.557c1.374-2.292,2.1-4.916,2.1-7.589c0-21.246,1.995-37.606,6.364-50.373
	c5.864,12.743,14.144,20.894,25.788,26.07c3.755,1.669,8.031,1.697,11.811,0.08c11.188-4.795,22.334-7.33,32.23-7.33
	c4.956,0,9.551,0.624,13.656,1.854c5.001,1.5,10.417,0.245,14.247-3.294c3.361-3.102,6.437-5.65,9.387-7.764
	c-1.793,3.913-3.221,7.645-4.173,10.971c-1.79,2.49-2.773,5.493-2.778,8.6c-0.006,3.923,1.551,7.685,4.326,10.459l1.517,1.517
	c0.685,0.685,1.436,1.3,2.242,1.839l3.319,2.214l12.575,12.572c0.492,0.493,1.018,0.951,1.575,1.368
	c6.916,5.191,11.963,8.518,15.887,10.472c1.306,0.651,2.702,1.104,4.143,1.346c2.564,0.43,5.003,0.751,7.369,0.993
	c-8.958,5.582-18.165,13.086-27.469,22.398c-4.973,4.975-5.743,12.768-1.841,18.622c2.493,3.739,4.323,7.617,5.501,11.676
	c-5.948-1.181-11.439-1.964-16.839-2.733c-0.689-0.097-1.384-0.148-2.083-0.148h-4.533c-5.73,0-10.696,3.265-13.142,8.035
	c-5.135,6.462-8.314,16.658-9.144,29.991c-0.217,3.501,0.818,6.965,2.921,9.772c11.179,14.91,23.658,24.83,32.204,30.548
	c10.202,7.102,20.997,10.702,32.081,10.702c9.769,0,19.921-2.837,30.173-8.429c0.291-0.158,0.576-0.328,0.855-0.505
	c8.566-5.449,16.727-7.73,24.46-6.713c-4.237,6.088-12.466,14.878-24.936,22.467c-11.263,6.856-26.234,10.332-44.496,10.332
	c-3.336,0-6.814-0.12-10.343-0.354c-6.131-0.4-11.88,3.029-14.422,8.628c-2.542,5.598-1.343,12.185,3.004,16.534
	c16.675,16.677,35.399,28.558,55.657,35.309c13.737,4.58,28.614,6.806,45.482,6.806c0.205,0,0.41-0.004,0.616-0.013
	c27.931-1.166,53.366-12.749,76.964-35.188c1.262,2.45,3.219,4.561,5.74,6.016c5.929,3.42,13.434,2.316,18.125-2.669
	c18.857-20.038,29.215-47.442,31.273-83.083c6.048-0.491,11.223-4.658,12.954-10.541c6.24-21.192,7.585-45.492,4.04-72.549
	c1.281-0.004,2.576-0.177,3.852-0.527c6.134-1.683,10.501-7.107,10.835-13.461c1.015-19.369-5.945-37.945-20.756-55.508
	c21.635,11.561,36.123,24.247,40.621,35.876c0.952,2.456,2.499,4.531,4.428,6.105c0.936,4.674,1.683,9.493,2.224,14.382
	c0.074,0.66,0.192,1.314,0.353,1.957c3.902,15.585,4.099,27.454,4.099,29.676c0,5.973,3.6,11.357,9.121,13.641
	c0.059,0.024,0.117,0.047,0.176,0.071C482.525,244.415,482.423,251.167,482.233,256.377z"/>
</svg>