<?xml version="1.0" encoding="UTF-8"?>
<svg version="1.1" xmlns="http://www.w3.org/2000/svg" width="509" height="490">
<path d="M0 0 C0.99 0 1.98 0 3 0 C2.93548327 21.9356898 -4.15418747 42.16930739 -13 62 C-12.33395752 61.5973291 -11.66791504 61.1946582 -10.98168945 60.77978516 C-10.09698975 60.24659668 -9.21229004 59.7134082 -8.30078125 59.1640625 C-7.42848877 58.6376416 -6.55619629 58.1112207 -5.6574707 57.56884766 C4.42779583 51.61497327 15.23569667 47.0943538 27 46 C27 50.38382737 26.16391944 51.3934676 24 55 C24 56.32 24 57.64 24 59 C31.42485413 59.19303906 38.42396586 58.66393706 45.75 57.5 C57.71537779 55.74637465 69.1889501 54.68461757 81 58 C80.2578125 61.78125 80.2578125 61.78125 77.9375 63.75 C77.298125 64.1625 76.65875 64.575 76 65 C76.20265302 66.93561402 76.20265302 66.93561402 77 69 C81.79313001 72.59201469 88.00861067 74.40379283 93.58276367 76.49047852 C105.1648541 80.84111756 117.32580919 85.85574929 124 97 C123.703125 99.26953125 123.703125 99.26953125 123 101 C121.02 101 119.04 101 117 101 C116.1847809 108.17392812 119.08080813 113.56615922 122 120 C122.92401437 122.0676466 123.84301897 124.1373775 124.75756836 126.20922852 C125.36220644 127.57676779 125.9721177 128.94199194 126.58813477 130.30444336 C131.80913409 142.0298575 131.80913409 142.0298575 130 148 C129.443125 147.855625 128.88625 147.71125 128.3125 147.5625 C125.88615805 146.97230872 123.45093655 146.476571 121 146 C117.64562482 150.63636339 116.87974851 155.45294236 115.75 160.9375 C113.23808057 172.24505009 109.9686512 183.07963271 101 191 C100.34 191 99.68 191 99 191 C98.80664062 190.08476562 98.61328125 189.16953125 98.4140625 188.2265625 C98.15367187 187.03804687 97.89328125 185.84953125 97.625 184.625 C97.36976563 183.44164062 97.11453125 182.25828125 96.8515625 181.0390625 C96.24476035 177.91803033 96.24476035 177.91803033 94 176 C93.175 176.928125 92.35 177.85625 91.5 178.8125 C70.71490738 199.35015105 39.64586469 210.18060738 13.51953125 221.9140625 C-2.75054971 229.24083417 -19.04532288 236.69381822 -33 248 C-33.85980469 248.69609375 -34.71960938 249.3921875 -35.60546875 250.109375 C-47.66653421 260.40051104 -57.49749937 274.93706263 -59.21923828 291.05200195 C-59.92547673 303.52641867 -58.40004231 314.06369967 -50.1015625 323.93359375 C-40.10648954 333.76146289 -26.28698828 338.1525378 -12.51171875 338.09765625 C-11.4569207 338.09553383 -11.4569207 338.09553383 -10.3808136 338.09336853 C-8.14966456 338.08780109 -5.91861836 338.07525475 -3.6875 338.0625 C-2.16862125 338.05748079 -0.64974091 338.05291862 0.86914062 338.04882812 C4.57946012 338.03784236 8.28972001 338.02060034 12 338 C11.73779297 339.87719727 11.73779297 339.87719727 11 342 C9.35205078 343.10913086 9.35205078 343.10913086 7.1953125 343.96484375 C6.39335449 344.28767334 5.59139648 344.61050293 4.76513672 344.94311523 C3.8938916 345.27126221 3.02264648 345.59940918 2.125 345.9375 C1.23184082 346.28304932 0.33868164 346.62859863 -0.58154297 346.98461914 C-12.44021154 351.45272533 -25.22478663 355.72097818 -38 356 C-39.14597656 356.03867187 -40.29195313 356.07734375 -41.47265625 356.1171875 C-64.69734223 356.54246151 -86.77414584 350.40466229 -103.87060547 334.27661133 C-117.7365867 320.57262683 -125.19242078 304.08845439 -125.4375 284.6875 C-125.26705898 261.17287426 -114.14121875 242.54371709 -98.3125 225.875 C-71.23489252 199.88889298 -34.83887434 189.37009524 0.08235168 178.4775238 C8.51437741 175.84524829 16.93533061 173.18180242 25.33065796 170.43450928 C26.82764643 169.94710842 28.32630815 169.46480849 29.82681274 168.98834229 C46.99775306 163.53120243 64.29104317 156.08045975 74 140 C76.92834877 133.8644121 77.15472469 126.74345631 75.16015625 120.27734375 C71.5837231 112.29358895 66.20694456 108.27373203 58.375 104.75 C42.86569352 99.09087901 26.87984442 101.24178082 11 104 C10.29296875 102.43359375 10.29296875 102.43359375 10 100 C11.01255204 97.5658133 12.05850255 95.36432511 13.3125 93.0625 C15.4060049 89.10623723 17.42964377 85.20090221 19 81 C17.85144531 81.39832031 16.70289063 81.79664063 15.51953125 82.20703125 C6.41661864 85.32516687 -2.55448936 88.09754733 -12 90 C-4.94014727 90.11766421 1.97252688 89.66588578 9 89 C9.88680882 91.96658665 10.19498228 93.51097187 9.03125 96.4296875 C5.89157579 101.44355499 2.68343373 105.70896248 -1.6796875 109.72265625 C-2.33324219 110.35494141 -2.33324219 110.35494141 -3 111 C-3 111.33 -3 111.66 -3 112 C4.49957186 113.99988583 12.42484727 113.12224485 20 112 C19.06992864 118.94533807 14.40849345 123.06273353 9.125 127.3125 C5.22053332 129.42091201 1.24752843 130.75405833 -3 132 C2.12325529 134.45489316 6.33895411 135.50341703 12 136 C12.33 137.32 12.66 138.64 13 140 C11.47561201 141.10751454 9.92886486 142.18423678 8.375 143.25 C7.51648438 143.85328125 6.65796875 144.4565625 5.7734375 145.078125 C-4.69141781 151.07797538 -17.8873109 152.12560013 -29.61914062 153.63085938 C-38.91478781 154.84412834 -47.09076907 156.75033055 -55 162 C-57.38158405 165.57237608 -57.82377719 166.79873631 -57 171 C-54.55503491 173.35421311 -51.86721498 175.19519057 -49 177 C-50 179 -50 179 -53.08203125 180.09765625 C-62.96530117 182.65849332 -73.1766753 181.94367076 -82.359375 177.578125 C-86.364277 175.18466286 -89.7412107 172.32588202 -93 169 C-92.67 168.34 -92.34 167.68 -92 167 C-89.27734375 166.5859375 -89.27734375 166.5859375 -85.9375 166.375 C-84.28041016 166.26285156 -84.28041016 166.26285156 -82.58984375 166.1484375 C-81.30787109 166.07496094 -81.30787109 166.07496094 -80 166 C-80 165.34 -80 164.68 -80 164 C-80.8971875 163.62875 -80.8971875 163.62875 -81.8125 163.25 C-84.35858793 161.79509261 -85.51734865 160.52050729 -87 158 C-87 156.68 -87 155.36 -87 154 C-86.03513672 154.01740234 -86.03513672 154.01740234 -85.05078125 154.03515625 C-77.65385931 154.10901995 -70.36585905 153.65578395 -63 153 C-63.7734375 151.8553125 -63.7734375 151.8553125 -64.5625 150.6875 C-65.036875 149.800625 -65.51125 148.91375 -66 148 C-65.67 147.01 -65.34 146.02 -65 145 C-62.64453951 144.23687887 -60.40873376 143.64976915 -58 143.125 C-50.72212188 141.3692843 -43.34337098 139.51505647 -39 133 C-38.75944532 130.94290404 -38.75944532 130.94290404 -38.875 128.8125 C-38.91625 127.554375 -38.9575 126.29625 -39 125 C-45.74091305 122.75302898 -51.45138549 123.38693468 -57.8125 126.5 C-62.10192968 128.8197936 -66.20139754 131.3801798 -70.3125 134 C-77.19850011 138.34553405 -84.38588389 141.21974184 -92 144 C-90.515 145.11375 -90.515 145.11375 -89 146.25 C-87.3125 147.515625 -87.3125 147.515625 -86 149 C-86 150.32 -86 151.64 -86 153 C-90.099361 153.9327418 -94.12043288 154.28825262 -98.3125 154.5625 C-99.56675781 154.64628906 -100.82101563 154.73007813 -102.11328125 154.81640625 C-103.06589844 154.87699219 -104.01851562 154.93757812 -105 155 C-104.175 155.9075 -103.35 156.815 -102.5 157.75 C-99.96705003 160.53624497 -100 160.87258261 -100 165 C-109.51844419 165.30704659 -118.90878547 164.49978868 -127 159 C-129.5 156.25 -129.5 156.25 -131 154 C-130.01 152.02 -130.01 152.02 -129 150 C-129.99 150 -130.98 150 -132 150 C-132.495 150.99 -132.495 150.99 -133 152 C-137.1765925 150.25902039 -138.4589293 148.24133912 -140.296875 144.22265625 C-141.53190225 140.31859787 -141.105715 137.96756558 -140 134 C-136.80589164 129.80202901 -134.02493764 128.31839561 -129 127 C-125.96066212 126.72711494 -122.92489868 126.6851474 -119.875 126.625 C-106.65507164 126.11167837 -95.17174642 122.45277302 -85.1796875 113.33984375 C-81.50923308 111.08363252 -77.23308493 111.24624422 -73.01953125 111.00390625 C-67.46912577 110.51262742 -64.93313172 108.97338307 -61 105 C-59.31370109 102.84669621 -59.31370109 102.84669621 -58.125 100.6875 C-57.71507812 99.99011719 -57.30515625 99.29273438 -56.8828125 98.57421875 C-56.59148437 98.05472656 -56.30015625 97.53523438 -56 97 C-61.1491997 99.42947627 -66.06418252 101.93856011 -70.75 105.1875 C-76.76159846 109.28296725 -81.77553695 110.6880441 -89 110 C-91.8100346 108.20636089 -93.50940468 106.98119065 -95 104 C-95.49703504 97.41428571 -94.10637605 94.48935352 -89.9375 89.5625 C-86.74866985 86.78075455 -83.47862968 84.79066944 -79.828125 82.67578125 C-66.6712204 75.02983123 -66.6712204 75.02983123 -56.375 64.125 C-55.77945313 63.25230469 -55.18390625 62.37960938 -54.5703125 61.48046875 C-52.86188746 58.88023442 -52.86188746 58.88023442 -51.25 55.4375 C-50 53 -50 53 -47 52 C-46.01 54.31 -45.02 56.62 -44 59 C-36.47557588 51.70474616 -29.40819933 44.31961051 -23 36 C-22.37641602 35.20698486 -22.37641602 35.20698486 -21.74023438 34.39794922 C-13.2930501 23.61371063 -6.58018388 11.99406179 0 0 Z M-117 138 C-116.34 139.32 -115.68 140.64 -115 142 C-114.01 141.34 -113.02 140.68 -112 140 C-112 139.34 -112 138.68 -112 138 C-113.65 138 -115.3 138 -117 138 Z " fill="#F8FED1" transform="translate(232,56)"/>
<path d="M0 0 C7.54230237 8.08103826 11.20801552 17.03636867 10.9375 28.04296875 C9.29048311 42.63965595 1.65649512 53.60774935 -8.375 63.8125 C-9.26251953 64.71935547 -9.26251953 64.71935547 -10.16796875 65.64453125 C-23.91164552 78.59938772 -42.77507872 86.35165601 -59.375 94.8125 C-78.02017085 104.32271362 -78.02017085 104.32271362 -96.16455078 114.74316406 C-99.48639006 116.76125682 -102.7095342 118.50440438 -106.375 119.8125 C-105.34812768 111.61689639 -94.5065807 103.6792026 -88.4375 98.75 C-80.1744031 92.33712091 -71.37374267 86.60276011 -62.67602539 80.80053711 C-41.19971943 66.78696461 -41.19971943 66.78696461 -24.375 47.8125 C-23.75625 46.86375 -23.1375 45.915 -22.5 44.9375 C-20.9136877 40.53107693 -20.63651222 36.4419449 -21.375 31.8125 C-23.26015223 29.23612529 -24.56834857 28.21582572 -27.375 26.8125 C-40.62053163 25.76126733 -50.08928488 31.75410145 -59.89794922 40.10986328 C-66.51994353 45.86928557 -72.61919449 52.04830583 -78.5625 58.5 C-95.46956112 76.82116486 -117.84084317 93.59177979 -143.67578125 95.26171875 C-158.3317257 95.76786681 -170.9762919 93.69138035 -182.375 83.8125 C-190.86437688 75.76451187 -195.40396394 67.10029885 -195.75 55.375 C-195.65658919 44.14234955 -191.23155786 34.55618388 -184.375 25.8125 C-183.75109375 25.01328125 -183.1271875 24.2140625 -182.484375 23.390625 C-170.89882516 9.57378408 -152.0847709 -2.4018733 -134.375 -6.1875 C-134.375 -3.1875 -134.375 -3.1875 -135.64086914 -1.66040039 C-136.22473389 -1.12406982 -136.80859863 -0.58773926 -137.41015625 -0.03515625 C-138.37284424 0.87399536 -138.37284424 0.87399536 -139.35498047 1.80151367 C-140.04221191 2.44451416 -140.72944336 3.08751465 -141.4375 3.75 C-149.61558411 11.63950224 -157.28487896 20.19470296 -157.6875 32.125 C-157.6131222 37.14136958 -156.41312414 39.81496824 -153.375 43.8125 C-146.46942076 48.22031653 -138.78152336 48.72052935 -130.83984375 47.38671875 C-116.75335078 44.0051306 -106.24702204 36.53891952 -95.36083984 27.44921875 C-77.5655264 12.78241505 -58.42123955 -2.33160337 -35.375 -7.1875 C-34.26125 -7.435 -33.1475 -7.6825 -32 -7.9375 C-20.49105769 -8.73122016 -9.51173026 -6.9423278 0 0 Z " fill="#F8FED2" transform="translate(385.375,294.1875)"/>
<path d="M0 0 C0.89009766 -0.01611328 1.78019531 -0.03222656 2.69726562 -0.04882812 C8.83608383 -0.05331229 13.87393403 1.01464277 19.5625 3.3125 C18.5625 6.3125 18.5625 6.3125 15.1328125 8.109375 C13.65434845 8.76789161 12.17233141 9.41846915 10.6875 10.0625 C-0.50674381 15.13159154 -10.0074109 21.43299602 -19.4375 29.3125 C-20.10265625 29.83070313 -20.7678125 30.34890625 -21.453125 30.8828125 C-38.11615197 44.36225302 -48.61101398 65.27088184 -51.4375 86.3125 C-52.42048853 99.77450235 -50.52382802 112.23694067 -47.4375 125.3125 C-51.99323559 123.37680119 -53.33774467 120.31465863 -55.375 116 C-55.71982422 115.29101562 -56.06464844 114.58203125 -56.41992188 113.8515625 C-59.4703177 107.47709049 -62.06622472 100.97031135 -64.4375 94.3125 C-66.91016765 94.65694881 -66.91016765 94.65694881 -69.4375 95.3125 C-69.9325 96.3025 -69.9325 96.3025 -70.4375 97.3125 C-71.4275 96.9825 -72.4175 96.6525 -73.4375 96.3125 C-74.16730635 84.33151248 -71.33468448 77.01770379 -64.07421875 67.53125 C-63.61660156 66.9228125 -63.15898438 66.314375 -62.6875 65.6875 C-62.25953125 65.13835937 -61.8315625 64.58921875 -61.390625 64.0234375 C-60.11306089 62.05652323 -60.11306089 62.05652323 -60.4375 58.3125 C-63.0775 58.3125 -65.7175 58.3125 -68.4375 58.3125 C-68.9325 56.8275 -68.9325 56.8275 -69.4375 55.3125 C-63.37274122 44.96260279 -50.57433569 38.03129005 -40.4375 32.3125 C-40.7675 30.6625 -41.0975 29.0125 -41.4375 27.3125 C-43.4175 26.6525 -45.3975 25.9925 -47.4375 25.3125 C-46.43000109 22.57951445 -45.71767686 21.47924886 -43.1796875 19.96875 C-36.44625313 17.25335957 -29.80911625 15.23618942 -22.69482422 13.83203125 C-18.70617594 13.02367889 -18.70617594 13.02367889 -15.9765625 10.19140625 C-15.79867187 9.57136719 -15.62078125 8.95132813 -15.4375 8.3125 C-16.7575 7.3225 -18.0775 6.3325 -19.4375 5.3125 C-19.1075 4.3225 -18.7775 3.3325 -18.4375 2.3125 C-12.30017604 0.21048412 -6.44420051 -0.02323072 0 0 Z " fill="#F8FED4" transform="translate(147.4375,244.6875)"/>
<path d="M0 0 C0.495 0.99 0.495 0.99 1 2 C0.0625 4.625 0.0625 4.625 -1 7 C2.37749531 8.52791454 5.70634806 9.9030629 9.23046875 11.06640625 C18.12878424 14.00663481 27.89771811 17.56098772 33 26 C33 27.32 33 28.64 33 30 C31.02 30.66 29.04 31.32 27 32 C27.01571045 32.77190674 27.0314209 33.54381348 27.04760742 34.33911133 C27.10989607 37.83016662 27.14897173 41.32110509 27.1875 44.8125 C27.21263672 46.02744141 27.23777344 47.24238281 27.26367188 48.49414062 C27.27333984 49.65751953 27.28300781 50.82089844 27.29296875 52.01953125 C27.3086792 53.09307861 27.32438965 54.16662598 27.34057617 55.27270508 C27 58 27 58 25.48168945 59.8737793 C24.99273193 60.24543213 24.50377441 60.61708496 24 61 C22.57147854 57.04409443 21.55678813 53.09375771 20.625 49 C19.46025339 44.2649246 18.09699153 40.84777735 15 37 C14.443125 36.154375 13.88625 35.30875 13.3125 34.4375 C6.64797986 27.41273553 -3.5838593 24.013746 -13 23 C-31.09222763 22.70538193 -48.34432997 27.44519199 -62.9140625 38.484375 C-64.8784418 39.91167681 -66.79991601 40.98457662 -69 42 C-70.23465208 38.29604375 -69.30628627 36.94614114 -67.65039062 33.55419922 C-67.29138672 32.85568848 -66.93238281 32.15717773 -66.5625 31.4375 C-66.19705078 30.72094238 -65.83160156 30.00438477 -65.45507812 29.26611328 C-60.81821272 20.43578769 -54.96986814 11.89265535 -46 7 C-45.01 7 -44.02 7 -43 7 C-43.33 9.31 -43.66 11.62 -44 14 C-38.14789773 12.38562696 -33.21075301 10.09283405 -28 7 C-18.27705915 1.30248052 -11.32088887 -0.51719797 0 0 Z " fill="#F8FED4" transform="translate(380,258)"/>
<path d="M0 0 C11.13769095 -0.48502848 23.6427116 0.12270563 33 7 C36.45708981 10.46465456 38.61509555 13.7547209 40.0625 18.4375 C39.91007999 27.12544066 36.47012276 32.41920946 30.546875 38.6328125 C24.86078732 43.91773449 18.02552343 50 10 50 C12.19256626 45.42756282 14.85200474 41.13249098 17.44140625 36.77734375 C20.68137541 31.00386487 21.21370155 24.33816298 19.421875 17.93359375 C15.60188126 10.17206101 6.4315406 6.51309192 -1 3 C-0.67 2.01 -0.34 1.02 0 0 Z " fill="#F8FED5" transform="translate(263,163)"/>
<path d="M0 0 C0 0.66 0 1.32 0 2 C-4.35925344 6.29775926 -8.25390437 8.16836454 -14.125 9.6875 C-14.89545654 9.89826172 -15.66591309 10.10902344 -16.4597168 10.32617188 C-23.352544 12.08998367 -30.26061674 12.81386189 -37.36181641 13.10424805 C-41.63980784 13.36321792 -43.53500508 13.64753266 -47.05078125 16.3125 C-48.95679761 18.94043437 -49.61606522 19.85346447 -49.375 23 C-49.33117187 23.680625 -49.28734375 24.36125 -49.2421875 25.0625 C-48.94869813 27.41041499 -48.57408401 29.70366395 -48 32 C-46.906875 31.484375 -45.81375 30.96875 -44.6875 30.4375 C-41 29 -41 29 -38 30 C-38 33.3 -38 36.6 -38 40 C-36.3369416 40.67561748 -34.66905395 41.33933281 -33 42 C-31.80375 42.515625 -30.6075 43.03125 -29.375 43.5625 C-24.38488249 45.45530319 -19.29015734 45.71798794 -14 46 C-14.66 44.35 -15.32 42.7 -16 41 C-14 42.25 -14 42.25 -12 44 C-12 45.32 -12 46.64 -12 48 C-21.51844419 48.30704659 -30.90878547 47.49978868 -39 42 C-41.5 39.25 -41.5 39.25 -43 37 C-42.34 35.68 -41.68 34.36 -41 33 C-41.99 33 -42.98 33 -44 33 C-44.33 33.66 -44.66 34.32 -45 35 C-49.1765925 33.25902039 -50.4589293 31.24133912 -52.296875 27.22265625 C-53.53190225 23.31859787 -53.105715 20.96756558 -52 17 C-48.80589164 12.80202901 -46.02493764 11.31839561 -41 10 C-37.96068818 9.72711728 -34.92489479 9.68455757 -31.875 9.625 C-21.24082735 9.22936677 -12.3588804 7.14166307 -3.5234375 0.953125 C-2 0 -2 0 0 0 Z " fill="#FCFEEB" transform="translate(144,173)"/>
<path d="M0 0 C0.66 0 1.32 0 2 0 C1.75 1.875 1.75 1.875 1 4 C-1.046875 5.1328125 -1.046875 5.1328125 -3 6 C-2.88590407 7.45922693 -2.75834456 8.91740598 -2.625 10.375 C-2.55539063 11.18710938 -2.48578125 11.99921875 -2.4140625 12.8359375 C-2.17107412 15.20334191 -2.17107412 15.20334191 0 17 C6.58982295 17.75960534 12.28157101 17.61163936 18 14 C18.66 14 19.32 14 20 14 C20.20625 13.21625 20.4125 12.4325 20.625 11.625 C22 9 22 9 24.5 7.6875 C29.04107288 6.79550354 33.38910559 6.83597609 38 7 C36.57268007 9.92846676 35.13071088 12.51417063 33 15 C32.34 15 31.68 15 31 15 C30.95875 15.5775 30.9175 16.155 30.875 16.75 C29.54471913 20.17072223 27.09576439 21.17896212 24 23 C23.42378906 23.36609375 22.84757812 23.7321875 22.25390625 24.109375 C19.04117357 25.37887769 16.18746202 25.1886567 12.75 25.125 C11.48671875 25.10695312 10.2234375 25.08890625 8.921875 25.0703125 C7.95765625 25.04710937 6.9934375 25.02390625 6 25 C6.33 24.34 6.66 23.68 7 23 C10.28032359 22.55732657 13.53182288 22.26005844 16.83398438 22.05273438 C22.43761068 21.53014319 25.03405548 20.01835789 29 16 C30.68629891 13.84669621 30.68629891 13.84669621 31.875 11.6875 C32.28492188 10.99011719 32.69484375 10.29273438 33.1171875 9.57421875 C33.55417969 8.79498047 33.55417969 8.79498047 34 8 C28.8508003 10.42947627 23.93581748 12.93856011 19.25 16.1875 C13.23840154 20.28296725 8.22446305 21.6880441 1 21 C-1.8100346 19.20636089 -3.50940468 17.98119065 -5 15 C-5.38182547 9.94081251 -4.97594271 7.12053606 -2 3 C-1.34 2.01 -0.68 1.02 0 0 Z M4 25 C4.66 25.33 5.32 25.66 6 26 C4.02 26.99 4.02 26.99 2 28 C2.66 27.01 3.32 26.02 4 25 Z " fill="#FBFEEB" transform="translate(142,145)"/>
<path d="M0 0 C3 1 3 1 4.1328125 2.71484375 C6.59154232 8.22278575 8.92266235 13.88490802 8 20 C5.2945852 24.63012418 1.89924859 27.82738422 -3 30 C-4.125 25.25 -4.125 25.25 -3 23 C-2.7112098 21.26363303 -2.46678371 19.51976678 -2.24609375 17.7734375 C-2.11396484 16.7421875 -1.98183594 15.7109375 -1.84570312 14.6484375 C-1.71099609 13.56820312 -1.57628906 12.48796875 -1.4375 11.375 C-1.29892578 10.28703125 -1.16035156 9.1990625 -1.01757812 8.078125 C-0.67513472 5.38581132 -0.33608589 2.69311346 0 0 Z " fill="#FAFEE1" transform="translate(192,79)"/>
<path d="M0 0 C2.0625 0.4375 2.0625 0.4375 4 1 C3.09121094 1.51046875 3.09121094 1.51046875 2.1640625 2.03125 C-4.39583269 5.82589707 -10.19839225 10.13815681 -16 15 C-16.66644531 15.51949219 -17.33289063 16.03898437 -18.01953125 16.57421875 C-34.55656675 29.94530448 -45.40422055 51.03408904 -48 72 C-48.113615 75.62624222 -48.09444985 79.24746312 -48.0625 82.875 C-48.05798828 83.84953125 -48.05347656 84.8240625 -48.04882812 85.828125 C-48.03710906 88.21881434 -48.02070219 90.6093744 -48 93 C-48.66 92.67 -49.32 92.34 -50 92 C-50.52947702 55.62492898 -50.52947702 55.62492898 -46.55078125 51.49609375 C-46.03902344 51.00238281 -45.52726562 50.50867188 -45 50 C-44.31099804 48.342442 -43.647462 46.67422077 -43 45 C-38.82349118 37.65348336 -34.24724163 30.62642599 -29 24 C-28.360625 23.13375 -27.72125 22.2675 -27.0625 21.375 C-24.34732186 18.24843123 -21.3715029 15.41652055 -18 13 C-17.34 13 -16.68 13 -16 13 C-15.7215625 12.13375 -15.7215625 12.13375 -15.4375 11.25 C-13.88667917 8.82262826 -12.9116139 8.22359487 -10.4375 6.875 C-6.96468026 5.40524759 -6.96468026 5.40524759 -6 3 C-4.34795544 2.29788106 -2.68076231 1.63028587 -1 1 C-0.67 0.67 -0.34 0.34 0 0 Z " fill="#FCFEEB" transform="translate(144,259)"/>
<path d="M0 0 C0.495 1.485 0.495 1.485 1 3 C-1.19959969 4.34989131 -3.407838 5.6795172 -5.625 7 C-6.24246094 7.3815625 -6.85992187 7.763125 -7.49609375 8.15625 C-11.49608172 10.51413765 -14.2234906 11.47030246 -19 11 C-19.77772405 13.33317216 -20.42415568 15.61435923 -21 18 C-27.46794133 19.51233701 -33.35590042 20.21432579 -40 20 C-39.690625 21.0725 -39.38125 22.145 -39.0625 23.25 C-38.711875 24.4875 -38.36125 25.725 -38 27 C-37.773125 27.78375 -37.54625 28.5675 -37.3125 29.375 C-37.209375 29.91125 -37.10625 30.4475 -37 31 C-38 32 -38 32 -40.28515625 32.09765625 C-41.65994141 32.08025391 -41.65994141 32.08025391 -43.0625 32.0625 C-43.98160156 32.05347656 -44.90070313 32.04445312 -45.84765625 32.03515625 C-46.55792969 32.02355469 -47.26820313 32.01195312 -48 32 C-46.63016497 35.16115776 -46.0109362 35.9927092 -43 38 C-43.33 38.66 -43.66 39.32 -44 40 C-47.96 36.535 -47.96 36.535 -52 33 C-51.67 32.34 -51.34 31.68 -51 31 C-48.27734375 30.5859375 -48.27734375 30.5859375 -44.9375 30.375 C-43.83277344 30.30023438 -42.72804687 30.22546875 -41.58984375 30.1484375 C-40.73519531 30.09945312 -39.88054687 30.05046875 -39 30 C-39 29.34 -39 28.68 -39 28 C-39.598125 27.7525 -40.19625 27.505 -40.8125 27.25 C-43.35858793 25.79509261 -44.51734865 24.52050729 -46 22 C-46 20.68 -46 19.36 -46 18 C-45.35675781 18.01160156 -44.71351563 18.02320313 -44.05078125 18.03515625 C-36.65385931 18.10901995 -29.36585905 17.65578395 -22 17 C-22.515625 16.236875 -23.03125 15.47375 -23.5625 14.6875 C-24.036875 13.800625 -24.51125 12.91375 -25 12 C-24.67 11.01 -24.34 10.02 -24 9 C-21.64450209 8.23686675 -19.40894323 7.64907313 -17 7.125 C-10.71329864 5.62535121 -5.43547449 3.59418909 0 0 Z " fill="#FCFEED" transform="translate(191,192)"/>
<path d="M0 0 C0.10957031 0.90363281 0.21914062 1.80726563 0.33203125 2.73828125 C0.49058594 3.91777344 0.64914063 5.09726563 0.8125 6.3125 C0.96332031 7.48425781 1.11414063 8.65601563 1.26953125 9.86328125 C2.02052491 13.0881364 2.59439707 13.91514413 5 16 C4.6875 18.1875 4.6875 18.1875 4 20 C-3.76785714 20.66964286 -3.76785714 20.66964286 -7.5 17.875 C-10 15 -10 15 -10.8125 12.25 C-9.5086513 7.03460519 -5.84018977 0 0 0 Z " fill="#FCFEEE" transform="translate(134,151)"/>
<path d="M0 0 C0.99 0.33 1.98 0.66 3 1 C2.28714844 1.65484375 1.57429688 2.3096875 0.83984375 2.984375 C-7.62022053 10.96687886 -15.90054858 20.10572906 -16.3125 32.3125 C-16.2381222 37.32886958 -15.03812414 40.00246824 -12 44 C-5.1201819 48.39137326 2.81113631 49.08412858 10.7109375 47.43359375 C16.55025993 45.87153411 22.29250224 43.98705478 28 42 C28 42.66 28 43.32 28 44 C25.69 44.66 23.38 45.32 21 46 C21 46.66 21 47.32 21 48 C11.82841571 50.71750646 0.17393177 52.05009229 -9.05859375 48.984375 C-12.9421803 46.86721452 -17.23394654 44.29816039 -18.6875 39.9375 C-19.61493257 31.21963381 -18.80600789 24.98582012 -15 17 C-14.34 17 -13.68 17 -13 17 C-12.731875 16.46375 -12.46375 15.9275 -12.1875 15.375 C-10.79166667 12.58333333 -9.39583333 9.79166667 -8 7 C-7.01 7 -6.02 7 -5 7 C-4.731875 6.21625 -4.46375 5.4325 -4.1875 4.625 C-3 2 -3 2 0 0 Z " fill="#FCFEEC" transform="translate(244,294)"/>
<path d="M0 0 C0.33 0.66 0.66 1.32 1 2 C-1.48919594 8.63785584 -4.61866212 15.46621218 -8.58203125 21.34765625 C-14.44574182 32.31586417 -13.46665164 52.51671645 -10 64 C-9.875 67 -9.875 67 -10 69 C-15.84066186 63.15933814 -15.36341561 52.48103775 -15.4375 44.6875 C-15.31234271 28.23804781 -10.33534151 12.9755222 0 0 Z " fill="#FBFEE9" transform="translate(122,296)"/>
<path d="M0 0 C-0.7421875 3.78125 -0.7421875 3.78125 -3.0625 5.75 C-4.0215625 6.36875 -4.0215625 6.36875 -5 7 C-4.87822312 8.91466367 -4.87822312 8.91466367 -4 11 C-1.52066803 12.77148372 -1.52066803 12.77148372 1 14 C0.34 14.66 -0.32 15.32 -1 16 C-4.26460973 14.19587357 -5.88929795 13.16605307 -8 10 C-7.62055712 6.33205214 -5.64389555 3.24791222 -4 0 C-8.93026107 0.23653084 -13.85971825 0.48502481 -18.78881836 0.74462891 C-20.46573474 0.83125688 -22.1428235 0.91461236 -23.82006836 0.99462891 C-26.23083448 1.1102087 -28.64073575 1.23754135 -31.05078125 1.3671875 C-32.17592888 1.41732498 -32.17592888 1.41732498 -33.32380676 1.46847534 C-37.0169456 1.67878369 -38.85397453 1.90264969 -42 4 C-45.03125 4.23046875 -45.03125 4.23046875 -48.5 4.1875 C-49.6446875 4.18105469 -50.789375 4.17460938 -51.96875 4.16796875 C-55 4 -55 4 -58 3 C-57.67 1.68 -57.34 0.36 -57 -1 C-57 -0.34 -57 0.32 -57 1 C-49.57514587 1.19303906 -42.57603414 0.66393706 -35.25 -0.5 C-23.28462221 -2.25362535 -11.8110499 -3.31538243 0 0 Z " fill="#FCFEEC" transform="translate(313,114)"/>
<path d="M0 0 C1.65549531 0.38499891 3.3222433 0.72793135 5 1 C5 1.99 5 2.98 5 4 C5.99 4 6.98 4 8 4 C12 8.34285714 12 8.34285714 12 11 C12.66 11 13.32 11 14 11 C16.5393228 14.41831915 17.3636198 16.75776898 17 21 C15.69870216 19.04805324 14.40651583 17.08999094 13.125 15.125 C12.42375 14.09375 11.7225 13.0625 11 12 C10.443125 11.154375 9.88625 10.30875 9.3125 9.4375 C2.64797986 2.41273553 -7.5838593 -0.986254 -17 -2 C-19.76094759 -2.04495992 -22.49480669 -1.92345194 -25.25 -1.75 C-26.36761719 -1.68111572 -26.36761719 -1.68111572 -27.5078125 -1.61083984 C-33.60886974 -1.16355213 -39.20133052 0.03011707 -45 2 C-45.88042969 2.28488281 -46.76085937 2.56976563 -47.66796875 2.86328125 C-49.78602059 3.55616332 -51.89546134 4.26730876 -54 5 C-54 4.34 -54 3.68 -54 3 C-53.14535156 2.65066406 -52.29070312 2.30132812 -51.41015625 1.94140625 C-50.30542969 1.48636719 -49.20070313 1.03132813 -48.0625 0.5625 C-46.96035156 0.11003906 -45.85820312 -0.34242188 -44.72265625 -0.80859375 C-42.13431084 -1.74424608 -42.13431084 -1.74424608 -41 -3 C-29.32329093 -4.84369091 -10.20011337 -6.80007558 0 0 Z " fill="#FCFEED" transform="translate(384,283)"/>
<path d="M0 0 C2.97 0.495 2.97 0.495 6 1 C6 1.66 6 2.32 6 3 C7.485 3.37125 7.485 3.37125 9 3.75 C11.79409867 4.53793582 14.19735624 5.56097103 16.75 6.9375 C27.67273303 12.61054739 39.6935009 13.19504651 51.75 13.1875 C52.81387939 13.18814453 53.87775879 13.18878906 54.97387695 13.18945312 C61.40060479 13.14611912 67.44341478 12.82818475 73.73046875 11.4375 C76.19988512 10.96146793 78.49115445 10.92870066 81 11 C64.10117102 20.05565051 39.58287444 17.03532562 22.0625 11.875 C14.04507336 9.39061752 7.07361753 5.45416854 0 1 C0 0.67 0 0.34 0 0 Z " fill="#FCFEEE" transform="translate(136,396)"/>
<path d="M0 0 C1.32 0.33 2.64 0.66 4 1 C2.02 3.31 0.04 5.62 -2 8 C5.49957186 9.99988583 13.42484727 9.12224485 21 8 C20.06992864 14.94533807 15.40849345 19.06273353 10.125 23.3125 C6.22053332 25.42091201 2.24752843 26.75405833 -2 28 C-1.67 28.66 -1.34 29.32 -1 30 C-2.98 30 -4.96 30 -7 30 C-6.67 28.68 -6.34 27.36 -6 26 C-5.18015625 25.82984375 -4.3603125 25.6596875 -3.515625 25.484375 C-2.43796875 25.24203125 -1.3603125 24.9996875 -0.25 24.75 C0.81734375 24.51796875 1.8846875 24.2859375 2.984375 24.046875 C6.3025811 22.89495889 7.67234553 21.56297778 10 19 C10.886875 18.649375 11.77375 18.29875 12.6875 17.9375 C13.450625 17.628125 14.21375 17.31875 15 17 C15.33 16.01 15.66 15.02 16 14 C16.66 14 17.32 14 18 14 C18.33 12.68 18.66 11.36 19 10 C18.4337793 10.16298584 17.86755859 10.32597168 17.28417969 10.49389648 C14.92398883 11.01684172 12.86717843 11.11396742 10.453125 11.09765625 C9.60878906 11.09443359 8.76445312 11.09121094 7.89453125 11.08789062 C7.02183594 11.07951172 6.14914063 11.07113281 5.25 11.0625 C4.36183594 11.05798828 3.47367188 11.05347656 2.55859375 11.04882812 C0.37232671 11.037074 -1.81380179 11.02064249 -4 11 C-4.33 9.35 -4.66 7.7 -5 6 C-4.01 5.34 -3.02 4.68 -2 4 C-0.80767387 1.94996045 -0.80767387 1.94996045 0 0 Z " fill="#FCFEEA" transform="translate(231,160)"/>
<path d="M0 0 C0.52899902 0.1429248 1.05799805 0.28584961 1.60302734 0.43310547 C9.91610767 2.40421273 18.14714157 2.22478381 26.625 2.125 C28.12108773 2.11494608 29.61718203 2.10582451 31.11328125 2.09765625 C34.74232626 2.07584308 38.37111985 2.04144741 42 2 C41.76855469 3.8684082 41.76855469 3.8684082 41 6 C39.12988281 7.17260742 39.12988281 7.17260742 36.703125 8.10546875 C35.8265625 8.44900391 34.95 8.79253906 34.046875 9.14648438 C33.12390625 9.49001953 32.2009375 9.83355469 31.25 10.1875 C30.3425 10.54263672 29.435 10.89777344 28.5 11.26367188 C24.34091366 12.865893 20.39805163 14.21309849 16 15 C18.4336984 11.3494524 19.83413423 11.11065572 23.9375 9.8125 C24.99839844 9.46832031 26.05929688 9.12414062 27.15234375 8.76953125 C30 8 30 8 33 8 C33 7.34 33 6.68 33 6 C32.43192627 5.98541748 31.86385254 5.97083496 31.27856445 5.95581055 C20.18431747 5.63844757 9.70605946 5.15818823 -1 2 C-0.67 1.34 -0.34 0.68 0 0 Z " fill="#FCFEED" transform="translate(202,392)"/>
<path d="M0 0 C5.74671325 2.42417184 9.50553017 4.75829525 13 10 C13 11.32 13 12.64 13 14 C11.02 14.66 9.04 15.32 7 16 C7.01571045 16.77190674 7.0314209 17.54381348 7.04760742 18.33911133 C7.10989607 21.83016662 7.14897173 25.32110509 7.1875 28.8125 C7.21263672 30.02744141 7.23777344 31.24238281 7.26367188 32.49414062 C7.27333984 33.65751953 7.28300781 34.82089844 7.29296875 36.01953125 C7.3086792 37.09307861 7.32438965 38.16662598 7.34057617 39.27270508 C7 42 7 42 5.48168945 43.8737793 C4.99273193 44.24543213 4.50377441 44.61708496 4 45 C2.08373163 40.01770224 1.4452885 35.27315333 1 30 C1.66 30 2.32 30 3 30 C3.66 31.65 4.32 33.3 5 35 C4.98428955 34.34402832 4.9685791 33.68805664 4.95239258 33.01220703 C4.89016348 30.04989184 4.85104832 27.0877139 4.8125 24.125 C4.78736328 23.09246094 4.76222656 22.05992187 4.73632812 20.99609375 C4.72182617 19.51689453 4.72182617 19.51689453 4.70703125 18.0078125 C4.6913208 17.09660645 4.67561035 16.18540039 4.65942383 15.24658203 C4.77181396 14.50520996 4.8842041 13.76383789 5 13 C5.99 12.34 6.98 11.68 8 11 C7.80528889 9.05000871 7.80528889 9.05000871 7 7 C5.11683841 5.89163577 5.11683841 5.89163577 3 5 C1.25 3.5 1.25 3.5 0 2 C0 1.34 0 0.68 0 0 Z " fill="#FCFEF0" transform="translate(400,274)"/>
<path d="M0 0 C3.28158568 3.81651501 5.06417709 8.24861225 7.0625 12.8125 C7.41376953 13.59431641 7.76503906 14.37613281 8.12695312 15.18164062 C13.80748122 28.03531196 13.80748122 28.03531196 12 34 C11.443125 33.855625 10.88625 33.71125 10.3125 33.5625 C7.88615805 32.97230872 5.45093655 32.476571 3 32 C0.07181744 36.2538354 -1.05042898 40.36159546 -2.1875 45.3125 C-2.36474609 46.05306641 -2.54199219 46.79363281 -2.72460938 47.55664062 C-3.15730953 49.36930342 -3.57970716 51.18442027 -4 53 C-6.35173512 46.48505812 -2.87076448 38.56875523 -0.75 32.3125 C1.6898197 29.08845254 4.12115255 28.73185801 8 28 C7.73798039 21.37090383 6.95880981 17.47247238 3 12 C1.36144927 8.02066251 0 4.32367712 0 0 Z " fill="#FBFEEA" transform="translate(350,170)"/>
<path d="M0 0 C0 0.99 0 1.98 0 3 C-0.99 3 -1.98 3 -3 3 C-3.2475 3.61875 -3.495 4.2375 -3.75 4.875 C-5 7 -5 7 -6.875 7.90625 C-9.30502482 9.15699807 -10.53212436 10.51669808 -12.25 12.625 C-12.77078125 13.25664062 -13.2915625 13.88828125 -13.828125 14.5390625 C-14.21484375 15.02117187 -14.6015625 15.50328125 -15 16 C-14.39671875 15.67257812 -13.7934375 15.34515625 -13.171875 15.0078125 C-10.62452701 13.82576973 -8.77587962 13.84578447 -6 14 C-9.55391974 16.96926381 -13.18517995 19.42318536 -17.1875 21.75 C-18.75564453 22.67039062 -18.75564453 22.67039062 -20.35546875 23.609375 C-23 25 -23 25 -25 25 C-24.49890868 20.78081108 -21.91633633 18.28117723 -19.125 15.3125 C-18.63974854 14.79010742 -18.15449707 14.26771484 -17.65454102 13.72949219 C-4.63497834 0 -4.63497834 0 0 0 Z " fill="#FBFEEA" transform="translate(304,389)"/>
<path d="M0 0 C15.31750974 2.38001147 30.44547677 10.483865 40.734375 21.88671875 C42 24 42 24 41.703125 26.26953125 C41.35507812 27.12611328 41.35507812 27.12611328 41 28 C39.02 28 37.04 28 35 28 C34.91051442 32.47427924 35.14256349 36.60563789 36 41 C33.65454672 38.65454672 33.04491112 37.04014162 32.90234375 33.73828125 C32.91394531 32.93777344 32.92554688 32.13726562 32.9375 31.3125 C32.94652344 30.50425781 32.95554687 29.69601563 32.96484375 28.86328125 C32.97644531 28.24839844 32.98804688 27.63351563 33 27 C34.65 26.34 36.3 25.68 38 25 C38 23.68 38 22.36 38 21 C37.34 21 36.68 21 36 21 C34.33333333 19.33333333 32.66666667 17.66666667 31 16 C28.83379456 14.70480005 28.83379456 14.70480005 27 14 C27 13.34 27 12.68 27 12 C25.35 12 23.7 12 22 12 C22 11.01 22 10.02 22 9 C21.34 9.0825 20.68 9.165 20 9.25 C16.4228912 8.9519076 14.18988605 7.75826279 11.0625 6.08203125 C9.1142915 5.05995975 7.16193238 4.20250378 5.125 3.375 C2 2 2 2 0 0 Z " fill="#FDFEED" transform="translate(314,129)"/>
<path d="M0 0 C4.93446488 0.43539396 7.47991362 2.63296086 11 6 C13.94197194 9.85499771 14.83858384 13.15751512 15 18 C13.56943287 28.10808614 5.71898949 35.0402855 -2 41 C-2.66 40.67 -3.32 40.34 -4 40 C-3.40832031 39.53851563 -2.81664062 39.07703125 -2.20703125 38.6015625 C4.60720282 32.97676243 8.21977548 27.34067356 11 19 C11.06802967 17.27204648 11.08495645 15.54164635 11.0625 13.8125 C11.05347656 12.91144531 11.04445313 12.01039063 11.03515625 11.08203125 C11.02355469 10.39496094 11.01195312 9.70789063 11 9 C10.34 9 9.68 9 9 9 C8.938125 8.38125 8.87625 7.7625 8.8125 7.125 C8.19124685 4.7498001 8.19124685 4.7498001 5.625 3.9375 C4.75875 3.628125 3.8925 3.31875 3 3 C1.1875 1.375 1.1875 1.375 0 0 Z " fill="#FCFEEA" transform="translate(288,167)"/>
<path d="M0 0 C6.11015321 0.31334119 10.40370727 3.20085029 15 7 C17.00593235 9.24819472 18.41293966 11.40299218 20 14 C20.55300781 14.84304687 20.55300781 14.84304687 21.1171875 15.703125 C22.4325729 19.12545516 22.24886062 22.51441169 22.1875 26.125 C22.18685547 26.85332031 22.18621094 27.58164063 22.18554688 28.33203125 C22.14074248 33.71851504 22.14074248 33.71851504 21 36 C20.34 36 19.68 36 19 36 C18.7525 36.721875 18.505 37.44375 18.25 38.1875 C16.89016326 41.24713266 15.17082246 43.4673738 13 46 C12.34 45.67 11.68 45.34 11 45 C11.40992188 44.49210937 11.81984375 43.98421875 12.2421875 43.4609375 C17.47954402 36.7701519 19.56945513 31.45511876 19.37109375 22.87890625 C18.49454924 16.07876623 15.45622279 10.76566978 10.0625 6.5625 C6.84998027 4.41066041 3.52949571 2.58827307 0 1 C0 0.67 0 0.34 0 0 Z " fill="#FCFEEA" transform="translate(289,159)"/>
<path d="M0 0 C-0.6077124 0.28085449 -1.2154248 0.56170898 -1.84155273 0.85107422 C-14.33148294 6.65076866 -26.46150885 12.70146105 -38.19921875 19.90966797 C-41.09951109 21.66572892 -44.04911912 23.3306228 -47 25 C-47 24.34 -47 23.68 -47 23 C-46.34 23 -45.68 23 -45 23 C-44.34 21.68 -43.68 20.36 -43 19 C-41.68 19 -40.36 19 -39 19 C-39 18.34 -39 17.68 -39 17 C-37.35 16.67 -35.7 16.34 -34 16 C-33.67 15.01 -33.34 14.02 -33 13 C-31.1015625 11.82421875 -31.1015625 11.82421875 -28.625 10.6875 C-24.8027088 8.88268062 -21.11241911 6.96384683 -17.4375 4.875 C-5.3238545 -1.77461817 -5.3238545 -1.77461817 0 0 Z " fill="#FBFEE9" transform="translate(247,277)"/>
<path d="M0 0 C0 3.57811631 -0.86465142 4.26675381 -3 7 C-3.33 7.99 -3.66 8.98 -4 10 C-2.02 10 -0.04 10 2 10 C3.15736914 14.98559013 3.55122283 17.80792517 0.8125 22.25 C-1.21211244 25.10695311 -3.29018918 27.75739794 -6 30 C-6.66 30 -7.32 30 -8 30 C-6.61323114 25.56233963 -4.16173462 22.49204781 -1.2421875 18.96484375 C0.35624819 16.82392938 0.35624819 16.82392938 0 13 C-2.64 13 -5.28 13 -8 13 C-8.33 12.01 -8.66 11.02 -9 10 C-7.63671875 8.02734375 -7.63671875 8.02734375 -5.6875 5.9375 C-5.05199219 5.24527344 -4.41648437 4.55304688 -3.76171875 3.83984375 C-2.52249988 2.5456706 -1.26699399 1.26699399 0 0 Z " fill="#FBFEEA" transform="translate(87,290)"/>
<path d="M0 0 C4.62 0.66 9.24 1.32 14 2 C14.495 3.98 14.495 3.98 15 6 C3.60730649 14.27714059 -8.00855413 17.48749283 -22 18 C-21.67 17.34 -21.34 16.68 -21 16 C-18.94965985 15.64877043 -16.88217662 15.39653504 -14.8125 15.1875 C-7.02251884 14.19778928 -0.32406869 11.86767764 7 9 C7.99 8.67 8.98 8.34 10 8 C10 6.68 10 5.36 10 4 C6.7 3.34 3.4 2.68 0 2 C0 1.34 0 0.68 0 0 Z " fill="#FCFEEE" transform="translate(230,190)"/>
<path d="M0 0 C-1.98 0.99 -1.98 0.99 -4 2 C3.05985273 2.11766421 9.97252688 1.66588578 17 1 C18.00772958 4.1959424 18.19442012 5.57177563 16.78515625 8.67578125 C16.21667969 9.54589844 15.64820313 10.41601562 15.0625 11.3125 C14.49660156 12.19550781 13.93070313 13.07851562 13.34765625 13.98828125 C12.90292969 14.65214844 12.45820313 15.31601563 12 16 C11.67 15.01 11.34 14.02 11 13 C11.95495674 11.30712215 12.9590934 9.64142963 14 8 C14.33 6.68 14.66 5.36 15 4 C4.77 4 -5.46 4 -16 4 C-11.17353323 0.78235549 -5.80178176 -0.36261136 0 0 Z " fill="#FDFEF0" transform="translate(224,144)"/>
<path d="M0 0 C-0.9977758 2.99332739 -1.7522025 3.94766315 -4 6 C-3.195625 5.979375 -2.39125 5.95875 -1.5625 5.9375 C1 6 1 6 2 7 C2.27314815 12.73611111 2.27314815 12.73611111 2 15 C0 17 0 17 -2.4375 17.9375 C-4.99924646 18.78830165 -4.99924646 18.78830165 -6.3671875 20.4921875 C-8.41585065 22.3840152 -9.96855712 22.6752354 -12.6875 23.1875 C-13.49574219 23.34605469 -14.30398437 23.50460937 -15.13671875 23.66796875 C-15.75160156 23.77753906 -16.36648437 23.88710938 -17 24 C-13.53726925 21.13865759 -9.99313724 18.63425466 -6.1875 16.25 C-5.21167969 15.63640625 -4.23585938 15.0228125 -3.23046875 14.390625 C-2.49441406 13.93171875 -1.75835937 13.4728125 -1 13 C-1.33 11.35 -1.66 9.7 -2 8 C-3.98 7.34 -5.96 6.68 -8 6 C-6.98565881 3.46414701 -6.34981128 2.21863205 -4 0.75 C-2 0 -2 0 0 0 Z " fill="#FBFEEA" transform="translate(108,264)"/>
<path d="M0 0 C8.85406634 -0.38558031 16.51168642 0.43056454 25 3 C21.04294544 4.45839897 17.30168612 3.67906093 13.25 3.0625 C12.20392578 2.91264648 12.20392578 2.91264648 11.13671875 2.75976562 C9.42348274 2.51334127 7.71159275 2.25759045 6 2 C6 2.99 6 3.98 6 5 C6.804375 5.185625 6.804375 5.185625 7.625 5.375 C10.4638286 6.12206016 13.22223202 7.05303364 16 8 C15.67 9.32 15.34 10.64 15 12 C14.34773438 11.60167969 13.69546875 11.20335937 13.0234375 10.79296875 C8.42446348 8.00509512 3.86143779 5.30278632 -1 3 C-0.67 2.01 -0.34 1.02 0 0 Z " fill="#FCFEED" transform="translate(263,163)"/>
<path d="M0 0 C0.66 0 1.32 0 2 0 C2.66 3.96 3.32 7.92 4 12 C4.66 12 5.32 12 6 12 C6 12.99 6 13.98 6 15 C4.02 15 2.04 15 0 15 C-0.66 13.68 -1.32 12.36 -2 11 C-2.66 11 -3.32 11 -4 11 C-3.25531915 3.25531915 -3.25531915 3.25531915 0 0 Z " fill="#F8FED5" transform="translate(130,154)"/>
<path d="M0 0 C0.99 0 1.98 0 3 0 C2.97057997 10.00280863 1.49531983 19.17853744 -0.9375 28.875 C-1.20256348 29.93912109 -1.46762695 31.00324219 -1.74072266 32.09960938 C-3.7297429 39.7297429 -3.7297429 39.7297429 -6 42 C-5.14901456 35.70270775 -4.25651671 29.53655603 -2.4375 23.4375 C-0.75551885 17.67798878 -0.30232804 11.97358499 0 6 C-0.99 7.485 -0.99 7.485 -2 9 C-2.66 9 -3.32 9 -4 9 C-2.80100302 5.9168649 -1.52299523 2.93720508 0 0 Z " fill="#FCFEEE" transform="translate(232,56)"/>
<path d="M0 0 C0 0.66 0 1.32 0 2 C-2.01171875 3.5859375 -2.01171875 3.5859375 -4.6875 5.375 C-7.56094259 7.32178784 -10.30363889 9.2467066 -13 11.4375 C-15 13 -15 13 -17 13 C-17.25265625 13.61746094 -17.5053125 14.23492187 -17.765625 14.87109375 C-19.20231782 17.34893421 -20.17178565 17.90829939 -22.75 19.0625 C-23.81347656 19.54976563 -23.81347656 19.54976563 -24.8984375 20.046875 C-25.59195312 20.36140625 -26.28546875 20.6759375 -27 21 C-28.11375 21.598125 -29.2275 22.19625 -30.375 22.8125 C-31.24125 23.204375 -32.1075 23.59625 -33 24 C-33.66 23.67 -34.32 23.34 -35 23 C-27.09549703 17.27562959 -19.12962505 11.6786336 -10.97631836 6.31298828 C-8.4919129 4.67562363 -6.04853106 3.03759101 -3.6953125 1.21484375 C-2 0 -2 0 0 0 Z " fill="#FBFEE9" transform="translate(339,365)"/>
<path d="M0 0 C0.33 0.66 0.66 1.32 1 2 C0.34 2.66 -0.32 3.32 -1 4 C-0.67 2.68 -0.34 1.36 0 0 Z M-2 4 C-1.03338637 7.12180401 -1.01011091 9.52083795 -1.4375 12.75 C-1.59025391 13.94882812 -1.59025391 13.94882812 -1.74609375 15.171875 C-1.87177734 16.07679688 -1.87177734 16.07679688 -2 17 C0.64 16.67 3.28 16.34 6 16 C8.65348921 19.13594179 9.80980577 22.08936183 11 26 C11.33 26.66 11.66 27.32 12 28 C12.04022391 30.3329866 12.04320247 32.66706666 12 35 C9.89149671 31.83724506 8.71169124 28.86528462 7.375 25.3125 C6.92898437 24.13300781 6.48296875 22.95351563 6.0234375 21.73828125 C5.68570313 20.83464844 5.34796875 19.93101562 5 19 C2.52733235 19.34444881 2.52733235 19.34444881 0 20 C-0.33 20.66 -0.66 21.32 -1 22 C-1.99 21.67 -2.98 21.34 -4 21 C-4.05441656 19.10448978 -4.09298035 17.2085208 -4.125 15.3125 C-4.14820312 14.25675781 -4.17140625 13.20101563 -4.1953125 12.11328125 C-3.99858729 8.97748141 -3.33057654 6.82354627 -2 4 Z " fill="#FCFEEC" transform="translate(78,320)"/>
<path d="M0 0 C0 4.38370621 -2.1823463 6.76601752 -5 10 C-7.8125 12.125 -7.8125 12.125 -11 14 C-12.3558871 14.85143304 -13.7099772 15.70573274 -15.0625 16.5625 C-18.02414401 18.40504952 -21.00905061 20.20543037 -24 22 C-24.99 22.66 -25.98 23.32 -27 24 C-29.1875 23.625 -29.1875 23.625 -31 23 C-26.84960388 20.2001296 -22.68385616 17.42775682 -18.4609375 14.73828125 C-17.84814941 14.34761475 -17.23536133 13.95694824 -16.60400391 13.55444336 C-15.39171764 12.78323517 -14.17790811 12.0144149 -12.96240234 11.24829102 C-7.92683747 8.04325856 -3.38196015 4.98394128 0 0 Z " fill="#FBFEE9" transform="translate(175,121)"/>
<path d="M0 0 C-2 2 -2 2 -4.125 2.375 C-8.11755797 3.24294738 -11.40127041 5.11190913 -15 7 C-16.03125 7.495 -17.0625 7.99 -18.125 8.5 C-21.12562458 9.99222312 -21.12562458 9.99222312 -24.1875 12.1875 C-27 14 -27 14 -30 14 C-30.185625 14.61875 -30.37125 15.2375 -30.5625 15.875 C-32.71437233 19.05602866 -35.37533763 19.19451947 -39 20 C-32.44412685 13.05989985 -10.45534382 -3.48511461 0 0 Z " fill="#FCFEEC" transform="translate(252,289)"/>
<path d="M0 0 C0 0.33 0 0.66 0 1 C-1.86205078 1.05607422 -1.86205078 1.05607422 -3.76171875 1.11328125 C-5.40367511 1.1789595 -7.04560087 1.2454062 -8.6875 1.3125 C-9.91243164 1.34633789 -9.91243164 1.34633789 -11.16210938 1.38085938 C-16.03890234 1.59804449 -18.87517448 2.22928387 -23 5 C-26.12109375 5.9140625 -26.12109375 5.9140625 -29.4375 6.625 C-31.07525391 6.98464844 -31.07525391 6.98464844 -32.74609375 7.3515625 C-35.82299663 7.96472682 -38.902138 8.50471588 -42 9 C-30.33263762 -0.61996465 -14.34219814 -1.71181075 0 0 Z " fill="#FCFEED" transform="translate(370,287)"/>
<path d="M0 0 C0.66 0.33 1.32 0.66 2 1 C-4.09865821 8.80813058 -11.24364053 13.72910755 -19.80078125 18.60546875 C-22.01808726 19.89797498 -22.01808726 19.89797498 -23.625 21.6328125 C-25.54250129 23.5394189 -27.37930763 23.64585238 -30 24 C-27.47520217 21.29787524 -24.66205267 19.18965718 -21.6875 17 C-16.84221761 13.39861651 -12.05734734 9.73268672 -7.3125 6 C-6.70043701 5.51917969 -6.08837402 5.03835938 -5.45776367 4.54296875 C-2.63728593 2.37706239 -2.63728593 2.37706239 0 0 Z " fill="#FBFEE9" transform="translate(302,312)"/>
<path d="M0 0 C-0.33 2.31 -0.66 4.62 -1 7 C-1.33 7 -1.66 7 -2 7 C-2 5.35 -2 3.7 -2 2 C-6.25594839 5.23976338 -6.25594839 5.23976338 -9.4375 9.4375 C-10.98451259 11.97460065 -12.28029333 13.16390369 -14.5625 15 C-17.57385975 17.45696716 -18.73020426 19.28828939 -20 23 C-22.125 25.3125 -22.125 25.3125 -24 27 C-21.29017187 16.43167028 -13.36752155 7.5512323 -4.8671875 1.1015625 C-3 0 -3 0 0 0 Z " fill="#FCFEE9" transform="translate(337,265)"/>
<path d="M0 0 C0 0.33 0 0.66 0 1 C-0.55872803 1.09498779 -1.11745605 1.18997559 -1.69311523 1.2878418 C-16.2644985 3.28706239 -16.2644985 3.28706239 -29 10 C-31.4294516 13.6441774 -31.16179575 15.71241272 -31 20 C-31.99 19.67 -32.98 19.34 -34 19 C-34.29348468 15.94775928 -34.41093877 13.04516167 -34 10 C-26.40281981 1.2517319 -10.87825163 -0.64980707 0 0 Z " fill="#FCFEEB" transform="translate(206,208)"/>
<path d="M0 0 C0 0.66 0 1.32 0 2 C-0.95712891 2.30744141 -0.95712891 2.30744141 -1.93359375 2.62109375 C-2.75988281 2.89050781 -3.58617187 3.15992188 -4.4375 3.4375 C-5.26121094 3.70433594 -6.08492187 3.97117188 -6.93359375 4.24609375 C-8.96219588 4.82155494 -8.96219588 4.82155494 -10 6 C-11.53677348 6.29734506 -13.07977879 6.5627437 -14.625 6.8125 C-18.02975821 7.44818329 -20.56311575 8.13225656 -23.4375 10.0625 C-27.86465395 12.92525099 -32.86241432 12.8141922 -38 13 C-35.3097617 10.3097617 -32.22696545 9.55810031 -28.69140625 8.3984375 C-27.96888168 8.1571109 -27.24635712 7.9157843 -26.50193787 7.66714478 C-24.97385224 7.15833617 -23.4447741 6.65250013 -21.91479492 6.14941406 C-19.57265259 5.3783424 -17.23443864 4.59616632 -14.89648438 3.8125 C-13.41167989 3.31964452 -11.92666071 2.82743527 -10.44140625 2.3359375 C-9.7413295 2.10160004 -9.04125275 1.86726257 -8.31996155 1.62582397 C-5.42095524 0.6782303 -3.07187959 0 0 0 Z " fill="#FBFEE9" transform="translate(224,238)"/>
<path d="M0 0 C1.1774734 0.73291712 2.34176854 1.48703801 3.5 2.25 C4.1496875 2.66765625 4.799375 3.0853125 5.46875 3.515625 C5.9740625 4.00546875 6.479375 4.4953125 7 5 C7 6.32 7 7.64 7 9 C2.900639 9.9327418 -1.12043288 10.28825262 -5.3125 10.5625 C-6.56675781 10.64628906 -7.82101563 10.73007813 -9.11328125 10.81640625 C-10.06589844 10.87699219 -11.01851563 10.93757812 -12 11 C-12 12.32 -12 13.64 -12 15 C-12.66 15 -13.32 15 -14 15 C-14.33 12.69 -14.66 10.38 -15 8 C-8.73 7.67 -2.46 7.34 4 7 C4 6.34 4 5.68 4 5 C3.01 5 2.02 5 1 5 C0.67 3.35 0.34 1.7 0 0 Z " fill="#FBFEEB" transform="translate(139,200)"/>
<path d="M0 0 C0.703125 1.62890625 0.703125 1.62890625 1 4 C-3.21491844 13.24940435 -10.08414192 20.93117022 -16.71777344 28.50732422 C-19.62250808 31.88880701 -22.31001913 35.44702185 -25 39 C-25.66 38.67 -26.32 38.34 -27 38 C-26.21689453 37.06994141 -26.21689453 37.06994141 -25.41796875 36.12109375 C-15.93348954 24.70982017 -7.11999678 13.04927738 0 0 Z " fill="#FCFEED" transform="translate(227,65)"/>
<path d="M0 0 C0.99 0.33 1.98 0.66 3 1 C-5.71221484 7.60442093 -15.92333736 14.69093987 -27 16 C-22.99935507 10.81397879 -18.16294803 9.37189827 -12.10546875 7.1953125 C-8.57398539 5.83602457 -5.99029296 4.28206568 -3 2 C-2.01 1.34 -1.02 0.68 0 0 Z " fill="#FBFEE8" transform="translate(285,369)"/>
<path d="M0 0 C1.13665504 3.40996511 0.91583208 3.86305848 -0.43359375 7.01171875 C-0.75263672 7.76904297 -1.07167969 8.52636719 -1.40039062 9.30664062 C-1.74263672 10.09232422 -2.08488281 10.87800781 -2.4375 11.6875 C-2.77587891 12.48478516 -3.11425781 13.28207031 -3.46289062 14.10351562 C-4.3000701 16.07265607 -5.1489353 18.03682084 -6 20 C-5.16855469 19.44119141 -5.16855469 19.44119141 -4.3203125 18.87109375 C-3.59585938 18.39800781 -2.87140625 17.92492187 -2.125 17.4375 C-1.40570313 16.96183594 -0.68640625 16.48617187 0.0546875 15.99609375 C1.01761719 15.50302734 1.01761719 15.50302734 2 15 C2.66 15.33 3.32 15.66 4 16 C2.35 16.66 0.7 17.32 -1 18 C-1 18.99 -1 19.98 -1 21 C-3.88834003 23.10770759 -5.38462395 24 -9 24 C-8.08711861 15.0537624 -4.02103927 7.89903761 0 0 Z " fill="#FCFEEA" transform="translate(225,98)"/>
<path d="M0 0 C0.33 0.66 0.66 1.32 1 2 C-1.33874837 7.30116297 -5.88401034 11.0599909 -10 15 C-11.921875 14.1953125 -11.921875 14.1953125 -14 13 C-15.25 9.875 -15.25 9.875 -16 7 C-16.99 7.495 -16.99 7.495 -18 8 C-17.34 6.68 -16.68 5.36 -16 4 C-15.34 4 -14.68 4 -14 4 C-13.01 6.31 -12.02 8.62 -11 11 C-7.37 7.37 -3.74 3.74 0 0 Z " fill="#FAFEE4" transform="translate(199,104)"/>
<path d="M0 0 C0.66 0.33 1.32 0.66 2 1 C1.49210937 1.64324219 0.98421875 2.28648437 0.4609375 2.94921875 C-7.80270657 13.79718596 -12.50095639 24.60600309 -15 38 C-15.33 38 -15.66 38 -16 38 C-16.60194527 28.97082091 -13.50560849 20.23055905 -10 12 C-9.34 11.67 -8.68 11.34 -8 11 C-7.67 10.01 -7.34 9.02 -7 8 C-6.34 8 -5.68 8 -5 8 C-4.731875 7.05125 -4.46375 6.1025 -4.1875 5.125 C-3 2 -3 2 0 0 Z " fill="#FCFEED" transform="translate(187,312)"/>
<path d="M0 0 C-1.3697164 3.99500618 -3.25722422 6.80009492 -6 10 C-5.67 7.69 -5.34 5.38 -5 3 C-6.155 3.33 -7.31 3.66 -8.5 4 C-12.77500587 5.08401934 -16.60361453 5.15701377 -21 5 C-17.62779599 2.751864 -14.36195252 1.83131986 -10.5 0.8125 C-9.82324219 0.62236328 -9.14648438 0.43222656 -8.44921875 0.23632812 C-5.10039119 -0.65867411 -3.35701595 -1.11900532 0 0 Z " fill="#FBFEEB" transform="translate(260,103)"/>
<path d="M0 0 C0.33 0.66 0.66 1.32 1 2 C-0.25 4.5625 -0.25 4.5625 -2 7 C-2.99 7.33 -3.98 7.66 -5 8 C-5.28875 8.94875 -5.5775 9.8975 -5.875 10.875 C-7.25630479 14.71195775 -8.41139667 15.24742628 -12 17 C-12.86625 17.5775 -13.7325 18.155 -14.625 18.75 C-15.40875 19.1625 -16.1925 19.575 -17 20 C-17.99 19.67 -18.98 19.34 -20 19 C-19.28714844 18.43152344 -18.57429688 17.86304688 -17.83984375 17.27734375 C-8.00782475 9.51833486 -8.00782475 9.51833486 0 0 Z " fill="#FBFEE9" transform="translate(360,344)"/>
<path d="M0 0 C0.33 0 0.66 0 1 0 C1.36585366 4.51219512 1.36585366 4.51219512 -0.3125 6.75 C-3.22369483 8.90644061 -6.16373528 9.20035687 -9.66796875 9.53515625 C-11.00698242 9.66567383 -11.00698242 9.66567383 -12.37304688 9.79882812 C-13.30181641 9.88583984 -14.23058594 9.97285156 -15.1875 10.0625 C-16.59805664 10.19881836 -16.59805664 10.19881836 -18.03710938 10.33789062 C-20.3577922 10.56171283 -22.67873689 10.78229246 -25 11 C-20.81530037 8.21020024 -16.2131227 7.66670019 -11.3359375 6.76367188 C-6.14111035 5.66930706 -3.55830425 4.1559345 0 0 Z " fill="#FCFEEA" transform="translate(133,253)"/>
<path d="M0 0 C0.66 0 1.32 0 2 0 C-1.0104869 10.33247514 -8.84995256 19.15193109 -17 26 C-17.66 26 -18.32 26 -19 26 C-19 25.34 -19 24.68 -19 24 C-18.34 24 -17.68 24 -17 24 C-16.67 23.01 -16.34 22.02 -16 21 C-14.0625 18.8125 -14.0625 18.8125 -12 17 C-11.34 17 -10.68 17 -10 17 C-9.566875 16.1028125 -9.566875 16.1028125 -9.125 15.1875 C-8 13 -8 13 -6 10 C-5.34 10 -4.68 10 -4 10 C-3.71125 9.0925 -3.4225 8.185 -3.125 7.25 C-2.23468224 4.67797092 -1.28505587 2.38653234 0 0 Z " fill="#FCFEEC" transform="translate(390,336)"/>
<path d="M0 0 C0.33 0 0.66 0 1 0 C1.08636719 0.96679688 1.17273438 1.93359375 1.26171875 2.9296875 C2.07468587 10.46268561 3.06561998 16.40053337 6.9765625 23.046875 C8 25 8 25 8 28 C1.99063416 23.49297562 0.54633324 17.12657929 -1 10 C-1.31467442 6.85325582 -1.26417739 4.17012865 -1 1 C-0.67 0.67 -0.34 0.34 0 0 Z " fill="#FCFEEC" transform="translate(171,351)"/>
<path d="M0 0 C-6.6483047 4.43220313 -14.0200875 4.31523133 -21.75 4.25 C-22.68199219 4.25773437 -23.61398438 4.26546875 -24.57421875 4.2734375 C-25.47269531 4.27085937 -26.37117187 4.26828125 -27.296875 4.265625 C-28.10479492 4.26336914 -28.91271484 4.26111328 -29.74511719 4.25878906 C-32.21677651 3.97512093 -33.85775463 3.23482604 -36 2 C-29.375 0.875 -29.375 0.875 -26 2 C-16.96239224 2.52515829 -8.71538407 -0.42514069 0 0 Z " fill="#FCFEEC" transform="translate(258,385)"/>
<path d="M0 0 C1.51400391 0.01740234 1.51400391 0.01740234 3.05859375 0.03515625 C4.07050781 0.04417969 5.08242187 0.05320313 6.125 0.0625 C7.29869141 0.07990234 7.29869141 0.07990234 8.49609375 0.09765625 C7.49609375 3.09765625 7.49609375 3.09765625 5.49609375 4.09765625 C4.36258841 6.11435452 4.36258841 6.11435452 3.49609375 8.09765625 C0.52609375 7.60265625 0.52609375 7.60265625 -2.50390625 7.09765625 C-2.88523924 5.10625065 -3.21716207 3.10486548 -3.50390625 1.09765625 C-2.50390625 0.09765625 -2.50390625 0.09765625 0 0 Z M-1.50390625 2.09765625 C-0.84390625 3.41765625 -0.18390625 4.73765625 0.49609375 6.09765625 C1.48609375 5.43765625 2.47609375 4.77765625 3.49609375 4.09765625 C3.49609375 3.43765625 3.49609375 2.77765625 3.49609375 2.09765625 C1.84609375 2.09765625 0.19609375 2.09765625 -1.50390625 2.09765625 Z " fill="#FCFEE9" transform="translate(116.50390625,191.90234375)"/>
<path d="M0 0 C-2.0734568 1.04859028 -4.1515499 2.06988571 -6.26171875 3.04296875 C-11.70341917 5.61046991 -16.28483733 8.55709236 -20.94921875 12.3515625 C-23.52868163 14.42495933 -26.21569645 16.21519003 -29 18 C-26.70236138 13.40472276 -25.54288017 11.62477521 -21 9 C-19.948125 8.278125 -18.89625 7.55625 -17.8125 6.8125 C-15 5 -15 5 -13 5 C-13 4.34 -13 3.68 -13 3 C-4.57142857 -0.42857143 -4.57142857 -0.42857143 0 0 Z " fill="#FDFEED" transform="translate(349,320)"/>
<path d="M0 0 C0 0.66 0 1.32 0 2 C-0.51949219 2.23074219 -1.03898437 2.46148437 -1.57421875 2.69921875 C-6.27876267 4.89931045 -9.34734002 7.24861948 -13 11 C-14.64991582 11.70710678 -16.31562256 12.37943989 -18 13 C-19.77277259 14.52007842 -19.77277259 14.52007842 -21 16 C-21.99 15.67 -22.98 15.34 -24 15 C-21.64924679 13.24525501 -19.29460943 11.49617155 -16.9375 9.75 C-16.28072266 9.25886719 -15.62394531 8.76773437 -14.94726562 8.26171875 C-3.76640625 0 -3.76640625 0 0 0 Z " fill="#FCFEEB" transform="translate(328,296)"/>
<path d="M0 0 C0.91523438 -0.00257813 1.83046875 -0.00515625 2.7734375 -0.0078125 C4.20429688 0.00378906 4.20429688 0.00378906 5.6640625 0.015625 C6.61023438 0.00789062 7.55640625 0.00015625 8.53125 -0.0078125 C17.44143319 0.0172161 17.44143319 0.0172161 21.2890625 2.265625 C21.6190625 2.925625 21.9490625 3.585625 22.2890625 4.265625 C21.12890625 4.12125 19.96875 3.976875 18.7734375 3.828125 C9.90670612 2.7618364 1.23801285 1.94977969 -7.7109375 2.265625 C-4.51837482 0.13724988 -3.66821285 0.00994288 0 0 Z " fill="#FCFEED" transform="translate(266.7109375,154.734375)"/>
<path d="M0 0 C6.96093373 0.36636493 13.34287862 4.07506599 17.9765625 9.17578125 C19.40130022 11.07655693 20.74228176 12.98560575 22 15 C21.67 15.66 21.34 16.32 21 17 C20.59007812 16.50628906 20.18015625 16.01257813 19.7578125 15.50390625 C19.21898437 14.86324219 18.68015625 14.22257812 18.125 13.5625 C17.59132813 12.92441406 17.05765625 12.28632813 16.5078125 11.62890625 C15.0777243 9.89194996 15.0777243 9.89194996 13 9 C13 8.34 13 7.68 13 7 C12.154375 6.7525 11.30875 6.505 10.4375 6.25 C6.61572526 4.86026373 3.48131937 3.08879162 0 1 C0 0.67 0 0.34 0 0 Z " fill="#FCFEEC" transform="translate(370,288)"/>
<path d="M0 0 C-4.12663483 2.75108989 -8.55307602 4.64293286 -13.0625 6.6875 C-13.98611328 7.11611328 -14.90972656 7.54472656 -15.86132812 7.98632812 C-16.74369141 8.38658203 -17.62605469 8.78683594 -18.53515625 9.19921875 C-19.74764038 9.75355591 -19.74764038 9.75355591 -20.98461914 10.3190918 C-21.64969482 10.5437915 -22.31477051 10.76849121 -23 11 C-23.66 10.67 -24.32 10.34 -25 10 C-24.01 9.67 -23.02 9.34 -22 9 C-22 8.34 -22 7.68 -22 7 C-20.56445975 6.49440092 -19.1264798 5.9957251 -17.6875 5.5 C-16.88699219 5.2215625 -16.08648437 4.943125 -15.26171875 4.65625 C-13 4 -13 4 -10 4 C-9.67 3.01 -9.34 2.02 -9 1 C-6.04335481 -0.4783226 -3.25770263 -0.06032783 0 0 Z " fill="#FBFEE9" transform="translate(272,265)"/>
<path d="M0 0 C-1.76360918 5.29082753 -7.21942496 7.53362906 -12 10 C-14.82278571 10.76065721 -17.05648057 10.9444619 -20 11 C-20.33 10.34 -20.66 9.68 -21 9 C-20.19949219 8.77957031 -20.19949219 8.77957031 -19.3828125 8.5546875 C-13.71063403 6.84714588 -9.04425183 4.40874413 -4.06640625 1.20703125 C-2 0 -2 0 0 0 Z " fill="#FBFEE9" transform="translate(357,263)"/>
<path d="M0 0 C0.99 0.33 1.98 0.66 3 1 C4.1875 3.5625 4.1875 3.5625 5 6 C5.33 4.35 5.66 2.7 6 1 C7.69433918 4.0469629 8.49467112 6.82821466 9.125 10.25 C9.29257813 11.14203125 9.46015625 12.0340625 9.6328125 12.953125 C9.75398438 13.62859375 9.87515625 14.3040625 10 15 C5.92537691 13.51187678 4.71340445 11.26814996 2.75 7.5 C2.22921875 6.5203125 1.7084375 5.540625 1.171875 4.53125 C0 2 0 2 0 0 Z " fill="#FCFEED" transform="translate(90,355)"/>
<path d="M0 0 C0.66 0.33 1.32 0.66 2 1 C1.46890625 1.45890625 0.9378125 1.9178125 0.390625 2.390625 C-4.1052501 6.29279373 -4.1052501 6.29279373 -8.375 10.4375 C-10 12 -10 12 -12 12 C-12 12.66 -12 13.32 -12 14 C-13.62553283 15.70680947 -15.29115995 17.37660195 -17 19 C-17.99 18.67 -18.98 18.34 -20 18 C-13.68253838 11.46998827 -7.38730213 5.34439389 0 0 Z " fill="#FCFEEC" transform="translate(148,270)"/>
<path d="M0 0 C1.43836751 0.11458693 2.87570966 0.24209116 4.3125 0.375 C5.51326172 0.47941406 5.51326172 0.47941406 6.73828125 0.5859375 C9 1 9 1 12 3 C13.1577506 6.47325181 13.06866652 9.36067448 13 13 C11.02 13.99 11.02 13.99 9 15 C9.0721875 14.37351563 9.144375 13.74703125 9.21875 13.1015625 C9.3115625 12.28429687 9.404375 11.46703125 9.5 10.625 C9.5928125 9.81289062 9.685625 9.00078125 9.78125 8.1640625 C10.03352351 6.03087175 10.03352351 6.03087175 10 4 C6.37 3.34 2.74 2.68 -1 2 C-0.67 1.34 -0.34 0.68 0 0 Z " fill="#FCFEED" transform="translate(183,177)"/>
<path d="M0 0 C1.53271273 4.58798777 0.02911182 6.77944742 -2 11 C-0.783125 10.67 0.43375 10.34 1.6875 10 C4.87210604 9.19677787 7.6972843 8.79358027 11 9 C8.27893306 11.72106694 6.15223689 11.60655572 2.375 12.125 C0.59222656 12.37636719 0.59222656 12.37636719 -1.2265625 12.6328125 C-2.14179688 12.75398437 -3.05703125 12.87515625 -4 13 C-5.0169313 10.34501768 -5.13022151 9.30844625 -4.00390625 6.640625 C-3.52824219 5.85171875 -3.05257812 5.0628125 -2.5625 4.25 C-2.08941406 3.45078125 -1.61632812 2.6515625 -1.12890625 1.828125 C-0.75636719 1.22484375 -0.38382813 0.6215625 0 0 Z " fill="#FDFEEF" transform="translate(247,147)"/>
<path d="M0 0 C0.78375 0.04125 1.5675 0.0825 2.375 0.125 C-0.27073533 2.19815082 -2.87991797 3.88057002 -5.8828125 5.38671875 C-6.67300781 5.78310547 -7.46320313 6.17949219 -8.27734375 6.58789062 C-9.09332031 6.99201172 -9.90929687 7.39613281 -10.75 7.8125 C-11.57371094 8.22822266 -12.39742188 8.64394531 -13.24609375 9.07226562 C-14.03371094 9.46478516 -14.82132812 9.85730469 -15.6328125 10.26171875 C-16.35098145 10.61967529 -17.06915039 10.97763184 -17.80908203 11.34643555 C-19.625 12.125 -19.625 12.125 -21.625 12.125 C-21.625 11.465 -21.625 10.805 -21.625 10.125 C-21.12049316 9.89312988 -20.61598633 9.66125977 -20.09619141 9.42236328 C-17.81199923 8.36945645 -15.53099306 7.30981832 -13.25 6.25 C-12.05890625 5.70279297 -12.05890625 5.70279297 -10.84375 5.14453125 C-10.08320313 4.79003906 -9.32265625 4.43554688 -8.5390625 4.0703125 C-7.4864624 3.58328857 -7.4864624 3.58328857 -6.41259766 3.08642578 C-0.73941308 0.03521015 -0.73941308 0.03521015 0 0 Z " fill="#FCFEE9" transform="translate(341.625,378.875)"/>
<path d="M0 0 C0.62109375 1.796875 0.62109375 1.796875 1 4 C-0.9375 7.25 -0.9375 7.25 -3 10 C-1.02 9.67 0.96 9.34 3 9 C0.8709858 11.34191563 -1.04408729 12.83554954 -4 14 C-5.32 14 -6.64 14 -8 14 C-6.46162154 10.80375738 -4.71133468 7.78394426 -2.875 4.75 C-2.33617187 3.85796875 -1.79734375 2.9659375 -1.2421875 2.046875 C-0.62730469 1.03367188 -0.62730469 1.03367188 0 0 Z " fill="#FCFEEE" transform="translate(281,199)"/>
<path d="M0 0 C-0.08746284 1.43861294 -0.19565348 2.87597508 -0.3125 4.3125 C-0.37050781 5.11300781 -0.42851562 5.91351563 -0.48828125 6.73828125 C-1 9 -1 9 -4 12 C-3.01 8.7 -2.02 5.4 -1 2 C-1.74765625 2.28875 -2.4953125 2.5775 -3.265625 2.875 C-4.25046875 3.24625 -5.2353125 3.6175 -6.25 4 C-7.71179688 4.556875 -7.71179688 4.556875 -9.203125 5.125 C-12 6 -12 6 -16 6 C-16 5.34 -16 4.68 -16 4 C-13.89748139 3.32815382 -11.79292237 2.66269032 -9.6875 2 C-8.51574219 1.62875 -7.34398437 1.2575 -6.13671875 0.875 C-3 0 -3 0 0 0 Z " fill="#FCFEEC" transform="translate(252,135)"/>
<path d="M0 0 C1.32 0.33 2.64 0.66 4 1 C4.33 2.32 4.66 3.64 5 5 C5.99 5 6.98 5 8 5 C8.268125 5.61875 8.53625 6.2375 8.8125 6.875 C9.95556848 9.2995233 9.95556848 9.2995233 13 11 C13 11.66 13 12.32 13 13 C14.32 13.33 15.64 13.66 17 14 C16.67 14.99 16.34 15.98 16 17 C9.9010112 11.79295818 4.47859599 6.68148263 0 0 Z " fill="#FCFEEA" transform="translate(119,379)"/>
<path d="M0 0 C0.42667969 0.35191406 0.85335937 0.70382812 1.29296875 1.06640625 C7.41835843 5.90356964 14.08558856 9.43739167 21 13 C20.01 13.495 20.01 13.495 19 14 C17.01171875 13.29296875 17.01171875 13.29296875 14.6875 12.1875 C12.13382822 10.99085187 9.64327006 9.86622627 7 8.875 C5 8 5 8 4 6 C3.01 5.67 2.02 5.34 1 5 C0.67 3.35 0.34 1.7 0 0 Z " fill="#FCFEEB" transform="translate(180,379)"/>
<path d="M0 0 C0 3 0 3 -2.5546875 5.91796875 C-3.65369246 7.01564319 -4.76084093 8.10521047 -5.875 9.1875 C-6.43058594 9.74630859 -6.98617188 10.30511719 -7.55859375 10.88085938 C-11.73305861 15 -11.73305861 15 -14 15 C-13.67 13.68 -13.34 12.36 -13 11 C-12.34 11 -11.68 11 -11 11 C-11 10.34 -11 9.68 -11 9 C-10.01 9 -9.02 9 -8 9 C-8 8.01 -8 7.02 -8 6 C-7.01 6 -6.02 6 -5 6 C-4.67 5.01 -4.34 4.02 -4 3 C-1.9375 1.3125 -1.9375 1.3125 0 0 Z " fill="#FCFEEF" transform="translate(308,349)"/>
<path d="M0 0 C-3.77480053 3.04355645 -7.91974724 5.36526811 -12.125 7.75 C-12.85332031 8.17410156 -13.58164062 8.59820312 -14.33203125 9.03515625 C-16.18644777 10.08747764 -18.09039837 11.05149458 -20 12 C-20.66 11.67 -21.32 11.34 -22 11 C-21.67 10.34 -21.34 9.68 -21 9 C-20.01 9 -19.02 9 -18 9 C-18 8.34 -18 7.68 -18 7 C-16.783125 6.5875 -15.56625 6.175 -14.3125 5.75 C-11.40608878 4.68056348 -9.76861847 3.81166619 -7.3125 1.8125 C-4.61866005 -0.29888807 -3.33639109 -0.38130184 0 0 Z " fill="#FCFEEC" transform="translate(320,391)"/>
<path d="M0 0 C0.6875 1.6875 0.6875 1.6875 1 4 C-0.1875 6.3125 -0.1875 6.3125 -2 9 C-2.73825297 10.26557652 -3.46723433 11.53660081 -4.1875 12.8125 C-4.785625 13.864375 -5.38375 14.91625 -6 16 C-6.66 16 -7.32 16 -8 16 C-7.42070126 11.97387377 -6.14350034 9.19196689 -4 5.75 C-3.46375 4.87859375 -2.9275 4.0071875 -2.375 3.109375 C-1 1 -1 1 0 0 Z " fill="#FBFEE9" transform="translate(201,320)"/>
<path d="M0 0 C0.33 0.66 0.66 1.32 1 2 C0.01 2.99 -0.98 3.98 -2 5 C-2 3.68 -2 2.36 -2 1 C-4.08450717 1.2831556 -6.16758367 1.57685669 -8.25 1.875 C-9.41015625 2.03742188 -10.5703125 2.19984375 -11.765625 2.3671875 C-14.91364467 2.82437054 -14.91364467 2.82437054 -17.171875 4.1328125 C-19 5 -19 5 -21.25 4.625 C-21.8275 4.41875 -22.405 4.2125 -23 4 C-15.13664668 0.5326946 -8.57069757 -0.53847315 0 0 Z " fill="#FCFEEF" transform="translate(380,258)"/>
<path d="M0 0 C1.65 0 3.3 0 5 0 C2.19419287 5.61161426 -4.97191494 9.51112465 -10 13 C-10.33 12.34 -10.66 11.68 -11 11 C-8.6875 8.5 -8.6875 8.5 -6 6 C-5.01 6 -4.02 6 -3 6 C-2.690625 5.38125 -2.38125 4.7625 -2.0625 4.125 C-1.375 2.75 -0.6875 1.375 0 0 Z " fill="#FCFEEA" transform="translate(323,230)"/>
<path d="M0 0 C0.66 0.33 1.32 0.66 2 1 C1.23856331 2.94121211 0.46548643 4.87786117 -0.3125 6.8125 C-0.74175781 7.89144531 -1.17101562 8.97039062 -1.61328125 10.08203125 C-2.85336541 12.69144777 -3.81531451 14.17408984 -6 16 C-6.3913152 11.54063718 -5.21759262 9.02208724 -3 5.1875 C-2.443125 4.21167969 -1.88625 3.23585937 -1.3125 2.23046875 C-0.879375 1.49441406 -0.44625 0.75835937 0 0 Z " fill="#FCFEEA" transform="translate(344,224)"/>
<path d="M0 0 C0.66 0 1.32 0 2 0 C2.33 0.99 2.66 1.98 3 3 C3.515625 3.515625 4.03125 4.03125 4.5625 4.5625 C5.036875 5.036875 5.51125 5.51125 6 6 C6 6.66 6 7.32 6 8 C6.66 8 7.32 8 8 8 C8 8.66 8 9.32 8 10 C8.66 10 9.32 10 10 10 C10 10.66 10 11.32 10 12 C10.66 12 11.32 12 12 12 C12.33 12.99 12.66 13.98 13 15 C9.4389135 13.51154587 7.3579126 11.4999313 4.8125 8.625 C4.11769531 7.85414063 3.42289063 7.08328125 2.70703125 6.2890625 C1.06503662 4.08721158 0.40998052 2.68017114 0 0 Z " fill="#FCFEEA" transform="translate(194,365)"/>
<path d="M0 0 C0.99 0.33 1.98 0.66 3 1 C3.94921875 3.94140625 3.94921875 3.94140625 4.6875 7.5625 C4.93886719 8.76003906 5.19023437 9.95757812 5.44921875 11.19140625 C5.63097656 12.11824219 5.81273437 13.04507813 6 14 C5.01 14.33 4.02 14.66 3 15 C2.01 10.05 1.02 5.1 0 0 Z " fill="#FCFEEE" transform="translate(328,232)"/>
<path d="M0 0 C-0.33 0.99 -0.66 1.98 -1 3 C-3.60957127 4.2384406 -6.10724855 5.27487874 -8.8125 6.25 C-9.53759766 6.53101563 -10.26269531 6.81203125 -11.00976562 7.1015625 C-14.8331867 8.51479408 -17.00820884 9.29199958 -21 8 C-19.96359375 7.59007812 -18.9271875 7.18015625 -17.859375 6.7578125 C-16.48954661 6.2136341 -15.11975698 5.66935813 -13.75 5.125 C-13.06808594 4.85558594 -12.38617188 4.58617187 -11.68359375 4.30859375 C-8.954089 3.22209186 -6.26255712 2.13301735 -3.640625 0.8046875 C-2 0 -2 0 0 0 Z " fill="#FDFEEE" transform="translate(286,216)"/>
<path d="M0 0 C0.66 0.33 1.32 0.66 2 1 C-0.35679992 3.6427068 -2.76914003 5.07178895 -5.9375 6.625 C-6.79214844 7.05039062 -7.64679688 7.47578125 -8.52734375 7.9140625 C-10.69624961 8.86659936 -12.68848543 9.51731714 -15 10 C-12.0761589 6.81980317 -9.16598831 4.74648691 -5.375 2.6875 C-4.41335937 2.15511719 -3.45171875 1.62273437 -2.4609375 1.07421875 C-1.64882812 0.71972656 -0.83671875 0.36523438 0 0 Z " fill="#FCFEEA" transform="translate(165,260)"/>
<path d="M0 0 C0.33 0.99 0.66 1.98 1 3 C0.34 3.66 -0.32 4.32 -1 5 C-1.99 5 -2.98 5 -4 5 C-4 5.99 -4 6.98 -4 8 C-6 9.6875 -6 9.6875 -8 11 C-8.66 10.67 -9.32 10.34 -10 10 C-8.90033225 8.70450101 -7.79508199 7.41373929 -6.6875 6.125 C-6.07261719 5.40570313 -5.45773438 4.68640625 -4.82421875 3.9453125 C-3 2 -3 2 0 0 Z " fill="#FCFEEC" transform="translate(212,309)"/>
<path d="M0 0 C0.66 0.33 1.32 0.66 2 1 C-0.28819146 2.50554634 -2.58021169 4.00457043 -4.875 5.5 C-5.85146484 6.14388672 -5.85146484 6.14388672 -6.84765625 6.80078125 C-11.7734375 10 -11.7734375 10 -14 10 C-14 9.34 -14 8.68 -14 8 C-13.01 7.67 -12.02 7.34 -11 7 C-9.99590449 6.00411235 -8.99626637 5.00371974 -8 4 C-6.02734375 2.796875 -6.02734375 2.796875 -3.9375 1.75 C-3.24527344 1.39421875 -2.55304688 1.0384375 -1.83984375 0.671875 C-1.23269531 0.45015625 -0.62554687 0.2284375 0 0 Z " fill="#FCFEEB" transform="translate(310,243)"/>
<path d="M0 0 C-2.2863012 1.36402043 -4.57821749 2.71634274 -6.875 4.0625 C-7.85146484 4.64741211 -7.85146484 4.64741211 -8.84765625 5.24414062 C-10.53065725 6.22444533 -12.26296199 7.11898432 -14 8 C-14.66 7.67 -15.32 7.34 -16 7 C-14.25 5 -14.25 5 -12 3 C-10.68 3 -9.36 3 -8 3 C-8 2.34 -8 1.68 -8 1 C-3.375 -1.125 -3.375 -1.125 0 0 Z " fill="#FCFEED" transform="translate(360,371)"/>
<path d="M0 0 C0.66 0 1.32 0 2 0 C2.99 2.31 3.98 4.62 5 7 C6.32 6.01 7.64 5.02 9 4 C7.95125002 6.62187494 7.35068687 7.79371361 4.875 9.25 C4.25625 9.4975 3.6375 9.745 3 10 C2.01 7.69 1.02 5.38 0 3 C-0.99 3.495 -0.99 3.495 -2 4 C-1.34 2.68 -0.68 1.36 0 0 Z " fill="#FDFEF2" transform="translate(183,108)"/>
<path d="M0 0 C0.33 1.32 0.66 2.64 1 4 C1.598125 3.484375 2.19625 2.96875 2.8125 2.4375 C3.534375 1.963125 4.25625 1.48875 5 1 C5.99 1.33 6.98 1.66 8 2 C5.36 3.98 2.72 5.96 0 8 C-0.66 7.67 -1.32 7.34 -2 7 C-1.34 4.69 -0.68 2.38 0 0 Z " fill="#FDFEF0" transform="translate(312,292)"/>
<path d="M0 0 C0.33 0.99 0.66 1.98 1 3 C1.99 3 2.98 3 4 3 C4.33 2.01 4.66 1.02 5 0 C5.99 0.33 6.98 0.66 8 1 C6.02 2.98 4.04 4.96 2 7 C1.01 6.67 0.02 6.34 -1 6 C-0.67 4.02 -0.34 2.04 0 0 Z " fill="#FCFEF0" transform="translate(189,102)"/>
<path d="M0 0 C-1.26700723 0.9841125 -2.5387619 1.96211497 -3.8125 2.9375 C-4.87404297 3.75541016 -4.87404297 3.75541016 -5.95703125 4.58984375 C-8 6 -8 6 -11 7 C-10.34 5.68 -9.68 4.36 -9 3 C-8.34 3 -7.68 3 -7 3 C-6.67 2.01 -6.34 1.02 -6 0 C-3 -1 -3 -1 0 0 Z " fill="#FBFEE9" transform="translate(371,363)"/>
<path d="M0 0 C0.33 0 0.66 0 1 0 C1.08150744 2.06183633 1.1394194 4.12461349 1.1875 6.1875 C1.22230469 7.33605469 1.25710938 8.48460937 1.29296875 9.66796875 C0.97436317 13.29157624 0.21947332 15.14639144 -2 18 C-2.66 18 -3.32 18 -4 18 C-2.125 12.25 -2.125 12.25 -1 10 C-0.77377919 8.29636178 -0.59111527 6.58671299 -0.4375 4.875 C-0.31181641 3.50988281 -0.31181641 3.50988281 -0.18359375 2.1171875 C-0.12300781 1.41851562 -0.06242187 0.71984375 0 0 Z " fill="#FDFEEE" transform="translate(365,326)"/>
<path d="M0 0 C2.12472576 -0.05386629 4.24983652 -0.09273071 6.375 -0.125 C7.55835938 -0.14820313 8.74171875 -0.17140625 9.9609375 -0.1953125 C13 0 13 0 15 2 C14.67 2.99 14.34 3.98 14 5 C13.360625 4.525625 12.72125 4.05125 12.0625 3.5625 C8.07818481 1.52968613 4.41505926 1.2789471 0 1 C0 0.67 0 0.34 0 0 Z " fill="#FCFEEA" transform="translate(349,319)"/>
<path d="M0 0 C0.99 0.33 1.98 0.66 3 1 C-0.3 3.97 -3.6 6.94 -7 10 C-7 6.04435836 -5.59478606 4.89133304 -3 2 C-2.01 1.34 -1.02 0.68 0 0 Z " fill="#FCFEE9" transform="translate(197,302)"/>
<path d="M0 0 C2.64 0.33 5.28 0.66 8 1 C8 2.32 8 3.64 8 5 C6.35 5.33 4.7 5.66 3 6 C3.66 4.68 4.32 3.36 5 2 C3.35 1.67 1.7 1.34 0 1 C0 0.67 0 0.34 0 0 Z " fill="#FCFEED" transform="translate(158,246)"/>
<path d="M0 0 C0.66 0 1.32 0 2 0 C2.66 1.65 3.32 3.3 4 5 C4.33 5 4.66 5 5 5 C4.67 7.31 4.34 9.62 4 12 C0 4.28571429 0 4.28571429 0 0 Z " fill="#FAFDE8" transform="translate(401,304)"/>
<path d="M0 0 C0.99 0.33 1.98 0.66 3 1 C0.03 3.97 -2.94 6.94 -6 10 C-6.33 9.01 -6.66 8.02 -7 7 C-5.47005208 5.76302083 -3.94010417 4.52604167 -2.41015625 3.2890625 C-0.86733563 2.0333609 -0.86733563 2.0333609 0 0 Z " fill="#FCFEE8" transform="translate(317,338)"/>
<path d="M0 0 C2.56616632 3.84924948 2.55097676 6.4349304 3 11 C1.68 11.33 0.36 11.66 -1 12 C-1.33 11.34 -1.66 10.68 -2 10 C-1.34 9.67 -0.68 9.34 0 9 C0 6.03 0 3.06 0 0 Z " fill="#FDFEF4" transform="translate(360,192)"/>
<path d="M0 0 C1.98 0.99 3.96 1.98 6 3 C6 3.99 6 4.98 6 6 C4.02 6.33 2.04 6.66 0 7 C0 6.34 0 5.68 0 5 C1.32 5 2.64 5 4 5 C4 4.34 4 3.68 4 3 C2.68 2.67 1.36 2.34 0 2 C0 1.34 0 0.68 0 0 Z " fill="#FCFEED" transform="translate(176,229)"/>
<path d="M0 0 C1.65 0 3.3 0 5 0 C5 1.98 5 3.96 5 6 C4.67 5.34 4.34 4.68 4 4 C1.97536745 3.34786708 1.97536745 3.34786708 0 3 C0 2.01 0 1.02 0 0 Z " fill="#F9FDE2" transform="translate(146,212)"/>
<path d="M0 0 C0.66 0 1.32 0 2 0 C1.67 0.99 1.34 1.98 1 3 C0.34 3 -0.32 3 -1 3 C-0.67 2.01 -0.34 1.02 0 0 Z M-2 3 C-1.67 3 -1.34 3 -1 3 C-1 6.3 -1 9.6 -1 13 C-1.66 12.34 -2.32 11.68 -3 11 C-2.96712417 8.27130593 -2.43602229 5.7033382 -2 3 Z " fill="#FDFEEF" transform="translate(94,187)"/>
<path d="M0 0 C-4.95 2.97 -4.95 2.97 -10 6 C-10 5.01 -10 4.02 -10 3 C-3.375 -1.125 -3.375 -1.125 0 0 Z " fill="#FCFEED" transform="translate(170,185)"/>
<path d="M0 0 C3.73487777 0.4979837 5.81237635 0.87491756 9 3 C9 3.66 9 4.32 9 5 C4.68607774 4.5206753 2.83430453 3.2542015 0 0 Z " fill="#FBFEEA" transform="translate(207,380)"/>
<path d="M0 0 C-1.28913487 0.67154933 -2.58140204 1.33708859 -3.875 2 C-4.59429687 2.37125 -5.31359375 2.7425 -6.0546875 3.125 C-8 4 -8 4 -10 4 C-10 3.01 -10 2.02 -10 1 C-6.16112237 -0.48320272 -3.93795909 -1.22419163 0 0 Z " fill="#FCFEF0" transform="translate(180,180)"/>
<path d="M0 0 C0.66 0.33 1.32 0.66 2 1 C0.8125 3 0.8125 3 -1 5 C-3.6875 5.25 -3.6875 5.25 -6 5 C-5.195625 4.360625 -4.39125 3.72125 -3.5625 3.0625 C-1.7249496 1.59396498 -1.7249496 1.59396498 0 0 Z " fill="#FBFEEB" transform="translate(292,211)"/>
<path d="M0 0 C0.33 0.99 0.66 1.98 1 3 C0.01 4.485 0.01 4.485 -1 6 C-2.32 5.67 -3.64 5.34 -5 5 C-3.35 3.35 -1.7 1.7 0 0 Z " fill="#FCFEEC" transform="translate(299,205)"/>
<path d="M0 0 C0.66 0.33 1.32 0.66 2 1 C-1.20336822 3.83374881 -3.78087253 4.5205537 -8 5 C-5.31158141 2.74754119 -3.35358125 1.11786042 0 0 Z " fill="#FCFEEC" transform="translate(237,108)"/>
</svg>
